<svg width="46" height="83" viewBox="0 0 46 83" fill="none" xmlns="http://www.w3.org/2000/svg">
<path d="M11.8499 83L6.93652 64.7915L21.6768 57.8549L33.5267 64.7915L26.8792 83L21.6768 66.5256H19.3646L11.8499 83Z" fill="#FFBEEB"/>
<circle cx="20.0163" cy="15.0794" r="5.78048" fill="#FFBEEB"/>
<path d="M20.0164 5.83075L21.5182 8.43197H18.5146L20.0164 5.83075Z" fill="#FFBEEB"/>
<path d="M20.0164 24.3284L21.5182 21.7271H18.5146L20.0164 24.3284Z" fill="#FFBEEB"/>
<path d="M10.7676 15.0794L13.3688 13.5776V16.5812L10.7676 15.0794Z" fill="#FFBEEB"/>
<path d="M29.2651 15.0795L26.6639 13.5777V16.5813L29.2651 15.0795Z" fill="#FFBEEB"/>
<path d="M13.4762 8.53972L16.3775 9.31712L14.2536 11.441L13.4762 8.53972Z" fill="#FFBEEB"/>
<path d="M26.5558 21.6198L25.7784 18.7185L23.6545 20.8424L26.5558 21.6198Z" fill="#FFBEEB"/>
<path d="M13.4764 21.6193L14.2538 18.718L16.3777 20.8419L13.4764 21.6193Z" fill="#FFBEEB"/>
<path d="M26.5555 8.53967L23.6542 9.31707L25.7781 11.441L26.5555 8.53967Z" fill="#FFBEEB"/>
<path d="M21.6466 71.921L2.49344 66.1247C1.06315 65.6918 0.169507 64.2723 0.39755 62.7955L5.54611 29.4524C5.84727 27.502 7.52582 26.0628 9.49926 26.0628H30.4109C32.3735 26.0628 34.0462 27.4866 34.3596 29.424L39.7785 62.923C40.0083 64.3433 39.1973 65.7267 37.8458 66.2202L22.2792 71.9032C22.0758 71.9775 21.8538 71.9837 21.6466 71.921Z" fill="#EA5EBF"/>
<path d="M39.658 2.57909C37.7495 2.57909 36.1968 4.1318 36.1968 6.04033C36.1968 6.82233 36.4529 7.56078 36.9376 8.17563C37.0305 8.29351 37.1305 8.40957 37.2272 8.52183C37.5159 8.85687 37.7886 9.17336 37.8856 9.52931C37.8877 9.53698 37.906 9.61172 37.9033 9.86616L37.9028 9.90293C37.8999 10.1095 37.896 10.3923 38.1051 10.6044C38.2483 10.7496 38.449 10.8203 38.7189 10.8203H40.5908C40.8821 10.8203 41.0915 10.749 41.2311 10.6023C41.4198 10.404 41.4072 10.1478 41.3988 9.97823C41.3973 9.94825 41.3957 9.91799 41.3953 9.88787C41.3923 9.63315 41.4114 9.56134 41.4122 9.55832C41.5108 9.20241 41.8302 8.82707 42.112 8.49598C42.2061 8.3855 42.2949 8.28115 42.3776 8.17624C42.8625 7.56129 43.1187 6.8227 43.1187 6.04037C43.1188 4.13185 41.5663 2.57909 39.658 2.57909ZM41.8302 7.74447C41.7555 7.83911 41.6708 7.93867 41.5811 8.04405C41.2525 8.43017 40.88 8.86779 40.7403 9.37211C40.7204 9.44397 40.6944 9.5764 40.6983 9.8961C40.6987 9.93491 40.7005 9.97395 40.7025 10.0126C40.704 10.0432 40.706 10.0834 40.7058 10.1153C40.6813 10.1193 40.6442 10.123 40.5908 10.123H38.7189C38.6595 10.123 38.6249 10.1167 38.6071 10.112C38.5979 10.0666 38.5992 9.97223 38.6 9.91274L38.6006 9.87351C38.6039 9.5519 38.5781 9.4185 38.5584 9.34604C38.4199 8.83772 38.0669 8.42808 37.7554 8.06668C37.6594 7.95522 37.5686 7.84989 37.4852 7.74401C37.0985 7.25331 36.8941 6.66415 36.8941 6.04028C36.8941 4.5162 38.134 3.27627 39.6581 3.27627C41.1819 3.27627 42.4217 4.5162 42.4217 6.04028C42.4216 6.66448 42.2171 7.25382 41.8302 7.74447Z" fill="white"/>
<path d="M40.5187 11.1352H38.797C38.4254 11.1352 38.123 11.4376 38.123 11.8092V12.326C38.123 12.6976 38.4254 12.9999 38.797 12.9999H40.5187C40.8904 12.9999 41.1927 12.6976 41.1927 12.326V11.8092C41.1927 11.4376 40.8904 11.1352 40.5187 11.1352ZM40.4955 12.3028H38.8203V11.8325H40.4955V12.3028Z" fill="white"/>
<path d="M39.6577 2.12787C39.8503 2.12787 40.0063 1.97183 40.0063 1.77926V0.34861C40.0063 0.156038 39.8503 0 39.6577 0C39.4651 0 39.3091 0.156038 39.3091 0.34861V1.77926C39.3091 1.97183 39.4652 2.12787 39.6577 2.12787Z" fill="white"/>
<path d="M44.2447 1.60818C44.1118 1.46897 43.8911 1.46381 43.7518 1.59665L42.6934 2.60669C42.5541 2.73958 42.549 2.96027 42.6819 3.09958C42.7504 3.17135 42.8421 3.20751 42.9341 3.20751C43.0206 3.20751 43.1073 3.17553 43.1747 3.11111L44.2331 2.10102C44.3724 1.96813 44.3775 1.74744 44.2447 1.60818Z" fill="white"/>
<path d="M45.2833 5.09436C45.2831 5.09436 45.2829 5.09436 45.2827 5.09436L43.9203 5.09655C43.7277 5.09687 43.5719 5.25319 43.5723 5.44571C43.5726 5.6381 43.7286 5.79377 43.9209 5.79377C43.9211 5.79377 43.9212 5.79377 43.9214 5.79377L45.2838 5.79158C45.4764 5.79126 45.6322 5.63494 45.6319 5.44241C45.6316 5.25003 45.4756 5.09436 45.2833 5.09436Z" fill="white"/>
<path d="M36.4571 3.00659C36.5899 2.86733 36.5848 2.64668 36.4455 2.5137L35.3871 1.50366C35.248 1.37082 35.0273 1.37588 34.8943 1.51519C34.7614 1.65444 34.7665 1.87509 34.9058 2.00807L35.9642 3.01816C36.0317 3.08258 36.1182 3.11456 36.2048 3.11456C36.2967 3.11452 36.3885 3.07835 36.4571 3.00659Z" fill="white"/>
<path d="M35.0787 5.09655L33.7164 5.09436C33.7162 5.09436 33.716 5.09436 33.7158 5.09436C33.5235 5.09436 33.3675 5.25012 33.3672 5.44241C33.3669 5.63494 33.5227 5.79126 33.7152 5.79158L35.0776 5.79377C35.0778 5.79377 35.078 5.79377 35.0782 5.79377C35.2705 5.79377 35.4265 5.63801 35.4268 5.44571C35.4271 5.25319 35.2713 5.09682 35.0787 5.09655Z" fill="white"/>
</svg>
