<svg width="66" height="24" viewBox="0 0 66 24" fill="none" xmlns="http://www.w3.org/2000/svg">
<path d="M8.39687 0H0V23.8026H8.39687V0Z" fill="white"/>
<path d="M10.2617 0V23.8026C14.8296 23.8026 19.3975 20.6503 19.3975 11.5641C19.4143 3.72548 14.8464 0 10.2617 0Z" fill="white"/>
<path d="M30.4134 8.36087C30.4134 6.40541 29.1203 5.49512 27.6592 5.49512H23.5615V11.2435H27.6592C29.1203 11.2266 30.4134 10.3163 30.4134 8.36087ZM25.0058 9.99603V6.7257H27.105C28.1966 6.7257 28.9523 6.96171 28.9523 8.36087C28.9523 9.76003 28.2134 9.99603 27.105 9.99603H25.0058Z" fill="white"/>
<path d="M34.3096 6.32129C32.3784 6.32129 31.0181 7.04616 31.0181 8.83304C31.0181 10.6031 32.4287 11.3279 34.2257 11.3279C35.989 11.3279 37.1646 10.7379 37.4836 9.50733H36.1066C35.7539 9.99619 35.1829 10.1816 34.2257 10.1816C33.302 10.1816 32.5799 9.92876 32.4287 9.15332H37.5676C37.5676 6.94501 36.1066 6.32129 34.3096 6.32129ZM32.4791 8.25988C32.6974 7.58559 33.3524 7.3833 34.3096 7.3833C35.1829 7.3833 35.8547 7.56873 36.0898 8.25988H32.4791Z" fill="white"/>
<path d="M37.9868 9.54079C37.9868 11.0917 39.683 11.3277 41.5135 11.3277C43.344 11.3277 44.5532 11.0917 44.5532 9.72622C44.5532 8.44506 43.2769 8.39449 41.4295 8.24277C39.7838 8.12477 39.5318 8.0742 39.5318 7.77076C39.5318 7.48419 39.9013 7.3999 41.2112 7.3999C42.4875 7.3999 42.9914 7.50105 42.9914 7.90562H44.3852C44.3852 6.57389 43.0753 6.33789 41.2952 6.33789C39.599 6.33789 38.138 6.57389 38.138 7.83819C38.138 9.00135 39.1624 9.16992 41.2616 9.28793C42.941 9.38907 43.1593 9.42278 43.1593 9.79365C43.1593 10.1645 42.9242 10.2657 41.4295 10.2657C39.8845 10.2657 39.3639 10.0634 39.3639 9.55764H37.9868V9.54079Z" fill="white"/>
<path d="M46.5856 4.66992H45.2085V5.90051H46.5856V4.66992Z" fill="white"/>
<path d="M46.5856 6.40625H45.2085V11.2443H46.5856V6.40625Z" fill="white"/>
<path d="M50.0114 11.1759C51.1366 11.1759 51.9427 10.8557 52.4129 10.3162C52.3625 11.5637 51.8251 12.12 50.3976 12.12C49.3396 12.12 48.2816 11.884 47.7274 11.7828V12.9123C48.1809 13.0303 49.3228 13.3 50.7167 13.3C52.5137 13.3 53.8236 12.4402 53.8236 10.4848V6.42218H52.4297V7.19761C51.9595 6.65818 51.1534 6.33789 50.0282 6.33789C48.3992 6.33789 47.2404 7.06276 47.2404 8.76535C47.2236 10.4511 48.3824 11.1759 50.0114 11.1759ZM50.5152 7.50105C51.8083 7.50105 52.4297 7.87191 52.4297 8.76535C52.4297 9.65879 51.8251 10.0128 50.5152 10.0296C49.2053 10.0296 48.6007 9.65879 48.6007 8.76535C48.6007 7.85505 49.2221 7.50105 50.5152 7.50105Z" fill="white"/>
<path d="M59.8355 11.227H61.2293L61.2461 8.54671C61.2293 6.75983 60.037 6.30469 58.7774 6.30469C57.6187 6.30469 56.6782 6.69241 56.0065 7.23184V6.38897H54.6294V11.227H56.0065V8.513C56.4431 8.00728 57.434 7.51842 58.3744 7.51842C59.5164 7.51842 59.8522 8.05785 59.8522 9.08615V11.227H59.8355Z" fill="white"/>
<path d="M26.4006 13.1484L23.4785 18.8968H25.0739L25.6785 17.6662H29.0708L29.6754 18.8968H31.2876L28.3655 13.1484H26.4006ZM26.2327 16.5705L27.3915 14.2442L28.5334 16.5705H26.2327Z" fill="white"/>
<path d="M33.1685 12.6602L31.7747 13.0647V14.0593H30.5151V15.2393H31.7747V17.4477C31.7747 18.5097 32.564 18.9817 33.7899 18.9817C34.4281 18.9817 34.9487 18.948 35.4189 18.8637V17.7342C34.8647 17.8185 34.6128 17.8185 34.1762 17.8185C33.3365 17.8185 33.1517 17.5825 33.1517 16.6385V15.2393H35.4357V14.0593H33.1853V12.6602H33.1685Z" fill="white"/>
<path d="M37.4845 14.0586H36.1074V18.8967H37.4845V14.0586Z" fill="white"/>
<path d="M37.4845 12.3398H36.1074V13.5704H37.4845V12.3398Z" fill="white"/>
<path d="M41.3967 17.9021L39.5326 14.0586H38.0044L40.4059 18.8967H42.3708L44.7891 14.0586H43.2608L41.3967 17.9021Z" fill="white"/>
<path d="M46.6359 14.0586H45.2588V18.8967H46.6359V14.0586Z" fill="white"/>
<path d="M46.6359 12.3398H45.2588V13.5704H46.6359V12.3398Z" fill="white"/>
<path d="M50.7176 15.8961C49.0718 15.7781 48.8199 15.7275 48.8199 15.4241C48.8199 15.1375 49.1894 15.0532 50.4993 15.0532C51.7756 15.0532 52.2794 15.1544 52.2794 15.5589H53.6733C53.6733 14.2272 52.3634 13.9912 50.5833 13.9912C48.8871 13.9912 47.426 14.2272 47.426 15.4915C47.426 16.6547 48.4505 16.8232 50.5497 16.9412C52.2291 17.0424 52.4474 17.0761 52.4474 17.447C52.4474 17.8178 52.2123 17.919 50.7176 17.919C49.1726 17.919 48.652 17.7167 48.652 17.211H47.2749C47.2749 18.7618 48.9711 18.9978 50.8016 18.9978C52.6321 18.9978 53.8413 18.7618 53.8413 17.3964C53.8581 16.0815 52.5817 16.0478 50.7176 15.8961Z" fill="white"/>
<path d="M56.7452 12.6602L55.3513 13.0647V14.0593H54.0918V15.2393H55.3513V17.4477C55.3513 18.5097 56.1406 18.9817 57.3666 18.9817C58.0047 18.9817 58.5253 18.948 58.9956 18.8637V17.7342C58.4414 17.8185 58.1895 17.8185 57.7528 17.8185C56.9131 17.8185 56.7284 17.5825 56.7284 16.6385V15.2393H58.9788V14.0593H56.7284V12.6602H56.7452Z" fill="white"/>
<path d="M62.8596 13.9746C61.8688 13.9746 60.9116 14.16 59.9375 14.4803L60.4245 15.5086C61.3986 15.2052 62.1543 15.1546 62.7925 15.1546C63.4474 15.1546 64.6062 15.2221 64.6062 16.1492C63.9848 15.9301 63.2291 15.8121 62.423 15.8121C60.9116 15.8121 59.5513 16.1998 59.5513 17.4641C59.5513 18.5598 60.391 18.9981 61.7177 18.9981C62.8428 18.9981 63.7665 18.7284 64.6062 18.3238V18.9307H66.0001V16.4864C65.9833 14.632 64.8581 13.9746 62.8596 13.9746ZM64.6062 17.3966C63.9009 17.7169 62.8596 17.9529 62.1039 17.9529C61.3818 17.9529 60.9284 17.9192 60.9284 17.3966C60.9284 16.9078 61.5497 16.7224 62.5909 16.7224C63.4642 16.7224 64.1192 16.8572 64.6062 17.0258V17.3966Z" fill="white"/>
</svg>
