<svg width="90" height="90" viewBox="0 0 90 90" fill="none" xmlns="http://www.w3.org/2000/svg">
<path d="M45.4034 50.3707L40.0901 45.0088L45.4034 39.6469L50.7167 45.0088L45.4034 50.3707Z" stroke="#771F5C" stroke-width="1.5" stroke-miterlimit="10"/>
<path d="M45.4033 64.3219L26.2585 45.002L45.4033 25.682L64.5482 45.002L45.4033 64.3219Z" stroke="#771F5C" stroke-width="1.5" stroke-miterlimit="10"/>
<path d="M11.7805 25.4648L11.7804 25.4645C10.693 21.272 8.7465 18.2356 7.20703 15.834C6.73994 15.1054 6.31032 14.4352 5.95352 13.8089C5.171 12.4353 4.75413 11.3184 4.83507 10.2072C4.9148 9.11269 5.49177 7.86971 7.05673 6.28777C8.56966 4.7611 9.87539 4.35 11.1031 4.4549C12.4004 4.56575 13.7433 5.25853 15.3044 6.25116C15.7323 6.52324 16.1738 6.81696 16.6305 7.12074C19.3966 8.96081 22.7169 11.1696 26.9173 11.1696C31.7401 11.1696 34.1916 9.72556 36.5438 8.33746L36.5509 8.33323C38.8188 6.99484 40.99 5.71354 45.4078 5.71354C49.8257 5.71354 51.9968 6.99484 54.2647 8.33323L54.2719 8.33746C56.624 9.72556 59.0756 11.1696 63.8983 11.1696C68.1049 11.1696 71.4266 8.95933 74.1927 7.11876C74.6482 6.81567 75.0886 6.5226 75.5154 6.25108C77.076 5.2584 78.4178 4.56573 79.7141 4.4549C80.9409 4.35002 82.246 4.76102 83.7592 6.28802C85.2719 7.81453 85.6831 9.13607 85.5784 10.3831C85.4682 11.6972 84.7795 13.0552 83.7963 14.63C83.5264 15.0623 83.2351 15.5082 82.934 15.9693C81.1103 18.7613 78.9247 22.1075 78.9247 26.3402C78.9247 31.2017 80.3536 33.6725 81.7291 36.0461L81.7335 36.0537C83.0597 38.3423 84.3313 40.5365 84.3313 44.9998C84.3313 49.4631 83.0597 51.6573 81.7335 53.9459L81.7291 53.9536C80.3536 56.3272 78.9247 58.7979 78.9247 63.6594C78.9247 67.8984 81.1118 71.2459 82.9359 74.0379C83.2364 74.4978 83.527 74.9426 83.7964 75.3739C84.7796 76.948 85.4682 78.3049 85.5784 79.6181C85.683 80.8641 85.272 82.185 83.7592 83.7116C82.2461 85.2385 80.9403 85.6496 79.7125 85.5447C78.4153 85.4339 77.0724 84.7411 75.5113 83.7485C75.0834 83.4764 74.6418 83.1827 74.1852 82.8789C71.4191 81.0388 68.0987 78.8301 63.8983 78.8301C59.0756 78.8301 56.624 80.2741 54.2719 81.6622L54.2647 81.6664C51.9968 83.0048 49.8256 84.2861 45.4078 84.2861C40.99 84.2861 38.8188 83.0048 36.5509 81.6664L36.5438 81.6622C34.1916 80.2741 31.7401 78.8301 26.9173 78.8301C22.7108 78.8301 19.3891 81.0403 16.623 82.8809C16.1675 83.184 15.7271 83.477 15.3002 83.7486C13.7397 84.7412 12.3979 85.4339 11.1016 85.5447C9.87477 85.6496 8.56964 85.2386 7.05647 83.7116C5.5438 82.1851 5.13259 80.8636 5.23722 79.6165C5.34748 78.3024 6.03613 76.9444 7.01934 75.3697C7.28927 74.9373 7.58055 74.4914 7.88169 74.0303C9.70533 71.2383 11.8909 67.8921 11.8909 63.6594C11.8909 58.7979 10.4621 56.3272 9.08658 53.9536L9.08211 53.9459C7.75592 51.6573 6.48437 49.4631 6.48437 44.9998C6.48437 40.9147 8.01023 38.5499 9.53297 36.19C9.65646 35.9987 9.77993 35.8073 9.90257 35.6151C10.7193 34.3348 11.5139 32.9886 11.9347 31.3583C12.3596 29.7125 12.3922 27.8283 11.7805 25.4648Z" stroke="#771F5C" stroke-width="1.5" stroke-miterlimit="10"/>
<path d="M85.2081 4.8258L85.2083 4.82602C88.3651 8.0116 89.374 10.8438 89.2384 13.5636C89.0998 16.3421 87.7654 19.131 85.9376 22.2212C85.3988 23.1322 84.8183 24.0659 84.2206 25.0273C80.823 30.4917 76.8704 36.8489 76.8704 45C76.8704 53.1514 80.8233 59.5107 84.221 64.9768C84.8185 65.9381 85.3989 66.8718 85.9376 67.7828C87.7654 70.8738 89.0998 73.663 89.2384 76.441C89.374 79.1602 88.3651 81.991 85.2086 85.1738C82.0515 88.357 79.2484 89.3704 76.5607 89.2335C73.8124 89.0934 71.0517 87.7492 67.9889 85.9051C67.0871 85.3621 66.1626 84.7769 65.2106 84.1744C59.7958 80.7471 53.4916 76.757 45.408 76.757C37.3185 76.757 31.011 80.7504 25.5949 84.1795C24.6437 84.7817 23.72 85.3665 22.8189 85.9092C19.756 87.7541 16.9961 89.0984 14.2494 89.238C11.5634 89.3745 8.76238 88.3601 5.60792 85.1742C2.48917 82.0243 1.74359 79.1188 2.19514 76.2482C2.66031 73.2911 4.40408 70.2856 6.51244 66.988C6.81341 66.5173 7.12164 66.0412 7.43355 65.5594C11.41 59.4175 15.986 52.3496 13.7713 43.6154C11.7443 35.6193 8.22255 29.816 5.37044 25.1162C4.41586 23.5432 3.53628 22.0938 2.81287 20.7272C1.35581 17.9746 0.538166 15.5925 0.798062 13.1458C1.05702 10.708 2.40358 8.05945 5.60771 4.82602C8.76485 1.64001 11.5679 0.625436 14.2555 0.761958C17.0036 0.901561 19.7642 2.24594 22.8271 4.0908C23.7292 4.6342 24.6541 5.21982 25.6064 5.82286C31.0209 9.25135 37.3249 13.2431 45.408 13.2431C53.4914 13.2431 59.7975 9.25105 65.2136 5.82246C66.166 5.21958 67.0908 4.63411 67.993 4.09084C71.0566 2.24595 73.8175 0.90156 76.5651 0.761958C79.2521 0.625442 82.0537 1.63993 85.2081 4.8258Z" stroke="#771F5C" stroke-width="1.5" stroke-miterlimit="10"/>
</svg>
