<svg width="90" height="90" viewBox="0 0 90 90" fill="none" xmlns="http://www.w3.org/2000/svg">
<path d="M9.75024 45.9001L9.7499 45.8999C7.41913 44.8032 4.95774 45.1816 3.21346 45.4497C3.122 45.4637 3.03251 45.4775 2.94512 45.4907C2.49224 45.5592 2.10432 45.6136 1.76838 45.6359C1.42716 45.6586 1.194 45.6437 1.03836 45.6037C0.900771 45.5684 0.862989 45.5249 0.843318 45.4961C0.812853 45.4515 0.75 45.3209 0.75 45C0.75 44.7621 0.816202 44.6571 0.882102 44.5909C0.968784 44.5039 1.14003 44.4034 1.46363 44.3286C2.13069 44.1743 3.09773 44.2001 4.27204 44.2694C4.43272 44.2789 4.59671 44.2892 4.76309 44.2996C5.75902 44.3617 6.84082 44.4293 7.81447 44.3727C8.92587 44.3082 10.1092 44.076 10.8944 43.2944C11.6885 42.5038 11.8392 41.5159 11.7413 40.5793C11.6482 39.6894 11.3199 38.7416 11.0271 37.8964L11.0109 37.8497C10.6986 36.9476 10.4283 36.1552 10.355 35.4548C10.285 34.7848 10.4073 34.3183 10.7683 33.9589C11.1302 33.5986 11.6014 33.4761 12.277 33.5461C12.9819 33.6191 13.779 33.8886 14.6848 34.1994L14.7313 34.2154C15.5807 34.507 16.532 34.8335 17.4248 34.926C18.3632 35.0233 19.3531 34.874 20.1464 34.0843C20.9405 33.2938 21.0913 32.3059 20.9933 31.3692C20.9003 30.4794 20.5719 29.5316 20.2792 28.6864L20.263 28.6396C19.9506 27.7375 19.6803 26.9451 19.6071 26.2448C19.537 25.5748 19.6593 25.1082 20.0204 24.7488C20.3823 24.3886 20.8534 24.266 21.5291 24.336C22.2339 24.4091 23.031 24.6786 23.9369 24.9894L23.9833 25.0054C24.8327 25.2969 25.7841 25.6235 26.6769 25.716C27.6153 25.8132 28.6051 25.664 29.3985 24.8743C30.1926 24.0837 30.3433 23.0959 30.2454 22.1592C30.1523 21.2694 29.824 20.3215 29.5312 19.4764L29.515 19.4296C29.2026 18.5275 28.9324 17.7351 28.8591 17.0347C28.7891 16.3647 28.9114 15.8982 29.2724 15.5388C29.6343 15.1785 30.1055 15.056 30.7811 15.126C31.486 15.199 32.2831 15.4685 33.1889 15.7794L33.2354 15.7953C34.0848 16.0869 35.0361 16.4134 35.9289 16.5059C36.8673 16.6032 37.8572 16.4539 38.6505 15.6642C39.4446 14.8737 39.5953 13.8858 39.4974 12.9492C39.4043 12.0593 39.076 11.1115 38.7833 10.2663L38.7671 10.2195C38.4547 9.31745 38.1844 8.52505 38.1112 7.82469C38.0411 7.15468 38.1634 6.68814 38.5245 6.32871C39.003 5.85236 39.3469 5.75206 39.6095 5.75004C39.9167 5.74767 40.2694 5.87546 40.7809 6.14976C40.9272 6.22819 41.0842 6.31839 41.2521 6.41484C42.1694 6.94177 43.4114 7.65531 45 7.65531C46.5886 7.65531 47.8306 6.94178 48.7479 6.41485C48.9158 6.31839 49.0728 6.22819 49.2191 6.14976C49.7306 5.87546 50.0834 5.74767 50.3905 5.75004C50.6531 5.75206 50.997 5.85236 51.4756 6.32871C51.8366 6.68814 51.9589 7.15468 51.8889 7.82468C51.8156 8.52504 51.5453 9.31745 51.233 10.2195L51.2167 10.2663C50.924 11.1115 50.5957 12.0593 50.5026 12.9492C50.4047 13.8858 50.5554 14.8737 51.3495 15.6642C52.1428 16.4539 53.1327 16.6032 54.0711 16.5059C54.9639 16.4134 55.9152 16.0869 56.7646 15.7953L56.8111 15.7794C57.717 15.4685 58.514 15.199 59.2189 15.126C59.8945 15.056 60.3657 15.1785 60.7276 15.5388C61.0887 15.8982 61.211 16.3647 61.1409 17.0347C61.0676 17.7351 60.7974 18.5275 60.485 19.4296L60.4688 19.4764C60.1761 20.3215 59.8477 21.2694 59.7547 22.1592C59.6567 23.0959 59.8074 24.0837 60.6016 24.8743C61.3949 25.664 62.3848 25.8132 63.3231 25.716C64.2159 25.6235 65.1673 25.2969 66.0167 25.0054L66.0632 24.9894C66.969 24.6786 67.7661 24.4091 68.471 24.336C69.1466 24.266 69.6178 24.3886 69.9796 24.7488C70.3407 25.1082 70.463 25.5748 70.3929 26.2448C70.3197 26.9451 70.0494 27.7375 69.7371 28.6396L69.7208 28.6864C69.4281 29.5316 69.0998 30.4794 69.0067 31.3693C68.9088 32.3059 69.0595 33.2938 69.8536 34.0843C70.6469 34.874 71.6368 35.0233 72.5752 34.926C73.468 34.8335 74.4193 34.5069 75.2687 34.2154L75.3152 34.1994C76.2211 33.8886 77.0181 33.6191 77.723 33.5461C78.3986 33.4761 78.8698 33.5986 79.2317 33.9589C79.5927 34.3183 79.715 34.7848 79.645 35.4548C79.5717 36.1552 79.3015 36.9476 78.9891 37.8497L78.9729 37.8965C78.6801 38.7416 78.3518 39.6895 78.2587 40.5793C78.1608 41.5159 78.3115 42.5038 79.1057 43.2944C79.8906 44.0757 81.0735 44.3088 82.185 44.3742C83.1601 44.4315 84.2435 44.3646 85.2407 44.3029C85.4056 44.2928 85.5682 44.2827 85.7276 44.2734C86.9019 44.2047 87.8693 44.1792 88.5368 44.3331C88.8608 44.4078 89.0321 44.5081 89.1187 44.5948C89.1843 44.6604 89.25 44.7641 89.25 45C89.25 45.2379 89.1838 45.3429 89.1179 45.4091C89.0312 45.4961 88.86 45.5966 88.5364 45.6714C87.8693 45.8257 86.9023 45.7999 85.728 45.7306C85.5673 45.7211 85.4032 45.7108 85.2368 45.7004C84.2409 45.6383 83.1592 45.5707 82.1856 45.6273C81.0742 45.6918 79.8908 45.924 79.1057 46.7056C78.3115 47.4962 78.1608 48.4841 78.2587 49.4207C78.3518 50.3105 78.6801 51.2584 78.9729 52.1035L78.9891 52.1503C79.3015 53.0524 79.5717 53.8448 79.645 54.5452C79.715 55.2152 79.5927 55.6817 79.2317 56.0411C78.8698 56.4014 78.3986 56.5239 77.723 56.4539C77.0181 56.3809 76.2211 56.1114 75.3152 55.8006L75.2687 55.7846C74.4193 55.493 73.468 55.1665 72.5752 55.074C71.6368 54.9767 70.6469 55.126 69.8536 55.9157C69.0595 56.7062 68.9088 57.6941 69.0067 58.6308C69.0998 59.5206 69.4281 60.4684 69.7208 61.3136L69.7371 61.3604C70.0494 62.2625 70.3197 63.0549 70.3929 63.7552C70.463 64.4252 70.3407 64.8918 69.9796 65.2512C69.6178 65.6114 69.1466 65.734 68.471 65.664C67.7661 65.5909 66.969 65.3215 66.0632 65.0106L66.0167 64.9946C65.1673 64.7031 64.2159 64.3765 63.3231 64.284C62.3848 64.1868 61.3949 64.336 60.6016 65.1257C59.8074 65.9163 59.6567 66.9042 59.7547 67.8408C59.8477 68.7307 60.1761 69.6785 60.4688 70.5237L60.485 70.5704C60.7974 71.4725 61.0676 72.2649 61.1409 72.9653C61.211 73.6353 61.0887 74.1018 60.7276 74.4612C60.3657 74.8215 59.8945 74.944 59.2189 74.874C58.514 74.801 57.717 74.5315 56.8111 74.2207L56.7646 74.2047C55.9152 73.9131 54.9639 73.5866 54.0711 73.4941C53.1327 73.3968 52.1428 73.5461 51.3495 74.3358C50.5554 75.1263 50.4047 76.1142 50.5026 77.0509C50.5957 77.9407 50.924 78.8885 51.2167 79.7337L51.233 79.7805C51.5453 80.6826 51.8156 81.475 51.8889 82.1753C51.9589 82.8453 51.8366 83.3119 51.4756 83.6713C50.997 84.1476 50.6531 84.2479 50.3905 84.25C50.0834 84.2523 49.7306 84.1245 49.2191 83.8502C49.0728 83.7718 48.9158 83.6816 48.7479 83.5852C47.8307 83.0582 46.5886 82.3447 45 82.3447C43.4114 82.3447 42.1693 83.0582 41.2521 83.5852C41.0842 83.6816 40.9272 83.7718 40.7809 83.8502C40.2694 84.1245 39.9167 84.2523 39.6095 84.25C39.3469 84.2479 39.003 84.1476 38.5245 83.6713C38.1634 83.3119 38.0411 82.8453 38.1112 82.1753C38.1844 81.475 38.4547 80.6826 38.7671 79.7805L38.7833 79.7337C39.076 78.8885 39.4043 77.9407 39.4974 77.0509C39.5953 76.1142 39.4446 75.1263 38.6505 74.3358C37.8572 73.5461 36.8673 73.3968 35.9289 73.4941C35.0361 73.5866 34.0848 73.9131 33.2354 74.2047L33.1889 74.2207C32.2831 74.5315 31.486 74.801 30.7811 74.874C30.1055 74.944 29.6343 74.8215 29.2724 74.4612C28.9114 74.1018 28.7891 73.6353 28.8591 72.9653C28.9324 72.2649 29.2026 71.4725 29.515 70.5704L29.5312 70.5236C29.824 69.6785 30.1523 68.7306 30.2454 67.8408C30.3433 66.9042 30.1926 65.9163 29.3985 65.1257C28.6051 64.336 27.6153 64.1868 26.6769 64.284C25.7841 64.3765 24.8327 64.7031 23.9833 64.9946L23.9369 65.0106C23.031 65.3215 22.2339 65.5909 21.5291 65.664C20.8534 65.734 20.3823 65.6114 20.0204 65.2512C19.6593 64.8918 19.537 64.4252 19.6071 63.7552C19.6803 63.0549 19.9506 62.2625 20.263 61.3604L20.2792 61.3136C20.5719 60.4685 20.9003 59.5206 20.9933 58.6308C21.0913 57.6941 20.9405 56.7062 20.1464 55.9157C19.3531 55.126 18.3632 54.9767 17.4248 55.074C16.5321 55.1665 15.5807 55.493 14.7313 55.7846L14.6848 55.8006C13.779 56.1114 12.9819 56.3809 12.277 56.4539C11.6014 56.5239 11.1302 56.4014 10.7683 56.0411C10.4154 55.6898 10.2597 55.1311 10.3022 54.2735C10.342 53.472 10.5446 52.5687 10.7618 51.6C10.7769 51.533 10.7919 51.4658 10.807 51.3982C11.03 50.401 11.2647 49.3114 11.2264 48.3726C11.1862 47.392 10.8341 46.4108 9.75024 45.9001Z" stroke="#4D068A" stroke-width="1.5" stroke-miterlimit="10"/>
<path d="M22.3516 45.0101C22.3516 44.6782 22.4297 44.4856 22.5189 44.362C22.6117 44.2334 22.7653 44.1121 23.0257 44.0083C23.5847 43.7855 24.4146 43.7231 25.4827 43.6978C25.6615 43.6935 25.8462 43.6903 26.035 43.687C26.9129 43.6717 27.8808 43.6548 28.7745 43.5267C29.8617 43.371 30.9845 43.0348 31.8034 42.2166C33.3794 40.6472 33.0357 38.7148 32.7706 37.2238C32.7645 37.1897 32.7585 37.1559 32.7526 37.1223C32.4625 35.4851 32.3023 34.3289 33.2835 33.3521C34.2668 32.3733 35.4328 32.5335 37.0775 32.8223C37.1113 32.8282 37.1454 32.8342 37.1797 32.8403C38.6775 33.1042 40.6144 33.4456 42.189 31.8781C43.0087 31.0622 43.3454 29.9431 43.5015 28.8598C43.6294 27.9722 43.6468 27.0108 43.6626 26.1388C43.666 25.9486 43.6694 25.7626 43.6738 25.5826C43.7 24.5194 43.7636 23.695 43.9873 23.1402C44.0914 22.8821 44.2132 22.7292 44.3431 22.6364C44.4687 22.5467 44.6642 22.4684 44.9995 22.4684C45.3348 22.4684 45.53 22.5467 45.6552 22.6362C45.7847 22.7288 45.9061 22.8815 46.0099 23.1395C46.233 23.6943 46.2957 24.5186 46.3212 25.5821C46.3254 25.76 46.3287 25.9437 46.332 26.1316C46.3474 27.0055 46.3644 27.9698 46.4931 28.8601C46.6498 29.9438 46.988 31.0629 47.8104 31.8786C49.385 33.4455 51.3216 33.1042 52.8193 32.8403C52.8536 32.8342 52.8876 32.8282 52.9215 32.8223C54.5661 32.5335 55.7321 32.3733 56.7154 33.3521C57.6967 34.3289 57.5365 35.4851 57.2464 37.1223C57.2404 37.1559 57.2344 37.1897 57.2284 37.2238C56.9632 38.715 56.6195 40.6477 58.1961 42.2172C59.0152 43.0326 60.138 43.3672 61.2248 43.5224C62.1158 43.6496 63.0808 43.6669 63.9567 43.6827C64.1479 43.6861 64.3348 43.6894 64.5158 43.6938C65.5836 43.7198 66.4136 43.7831 66.9725 44.0066C67.233 44.1107 67.3869 44.2323 67.4798 44.3612C67.5693 44.4853 67.6474 44.6782 67.6474 45.0101C67.6474 45.3419 67.5693 45.5345 67.48 45.6582C67.3873 45.7867 67.2337 45.908 66.9732 46.0118C66.4143 46.2346 65.5844 46.297 64.5163 46.3223C64.3374 46.3266 64.1528 46.3298 63.964 46.3331C63.086 46.3484 62.1182 46.3653 61.2245 46.4934C60.1372 46.6492 59.0145 46.9853 58.1956 47.8035C56.6195 49.3729 56.9632 51.3053 57.2284 52.7963C57.2344 52.8304 57.2404 52.8642 57.2464 52.8978C57.5365 54.535 57.6967 55.6912 56.7154 56.668C55.7321 57.6468 54.5661 57.4866 52.9215 57.1978C52.8876 57.1919 52.8536 57.1859 52.8193 57.1798C51.3214 56.9159 49.3845 56.5745 47.8099 58.142C46.9903 58.9579 46.6536 60.077 46.4975 61.1603C46.3696 62.0479 46.3521 63.0094 46.3363 63.8813C46.3329 64.0715 46.3295 64.2575 46.3251 64.4375C46.299 65.5007 46.2354 66.3251 46.0116 66.8799C45.9075 67.138 45.7858 67.2909 45.6559 67.3837C45.5303 67.4734 45.3348 67.5518 44.9995 67.5518C44.6641 67.5518 44.469 67.4734 44.3438 67.3839C44.2143 67.2913 44.0929 67.1386 43.9891 66.8806C43.766 66.3258 43.7032 65.5015 43.6778 64.438C43.6735 64.2601 43.6703 64.0764 43.667 63.8885C43.6516 63.0146 43.6346 62.0503 43.5059 61.16C43.3492 60.0763 43.0109 58.9572 42.1885 58.1415C40.614 56.5746 38.6773 56.9159 37.1797 57.1798C37.1454 57.1859 37.1113 57.1919 37.0775 57.1978C35.4328 57.4866 34.2668 57.6468 33.2835 56.668C32.803 56.1896 32.5918 55.5827 32.5341 54.8294C32.4795 54.1166 32.5657 53.3473 32.6598 52.5075C32.6685 52.43 32.6773 52.3519 32.686 52.2733C32.7839 51.3892 32.8809 50.402 32.7042 49.5182C32.516 48.5767 32.0146 47.7351 30.9668 47.1977C28.7988 46.0777 26.5863 46.141 24.9748 46.1872C24.787 46.1926 24.6074 46.1977 24.4369 46.2007C23.5537 46.2163 23.0377 46.1705 22.7344 46.0125C22.616 45.9508 22.5381 45.8743 22.4791 45.7556C22.4128 45.6221 22.3516 45.395 22.3516 45.0101Z" stroke="#4D068A" stroke-width="1.5" stroke-miterlimit="10"/>
<path d="M20.3569 45.0101C20.3569 44.2114 20.5344 43.6467 20.8068 43.2306C21.08 42.8133 21.4876 42.4862 22.0465 42.2287C23.2044 41.695 24.8594 41.5222 26.8385 41.4153C27.2097 41.3953 27.591 41.3776 27.9792 41.3595C29.5994 41.2843 31.3394 41.2034 32.9632 40.9244C34.9836 40.5772 36.9533 39.9059 38.4097 38.4532C39.866 37.0005 40.5394 35.0377 40.8879 33.0249C41.1674 31.41 41.249 29.68 41.3249 28.0697C41.3433 27.681 41.3613 27.2992 41.3816 26.9277C41.4897 24.9584 41.6641 23.3136 42.2001 22.1634C42.4587 21.6086 42.7872 21.2032 43.2073 20.9309C43.6267 20.6591 44.1959 20.4821 45.0002 20.4821C45.8043 20.4821 46.3733 20.6592 46.7923 20.9311C47.2121 21.2035 47.5403 21.6092 47.7985 22.1644C48.3339 23.3155 48.5074 24.9612 48.6148 26.9314C48.6349 27.3007 48.6527 27.6802 48.6708 28.0665C48.7464 29.6794 48.8277 31.4124 49.1081 33.0295C49.4571 35.0421 50.1321 37.0041 51.5918 38.4543C53.0506 39.9036 55.0212 40.5734 57.0418 40.92C58.6633 41.1982 60.4004 41.2794 62.0181 41.3549C62.4086 41.3732 62.7923 41.3911 63.1656 41.4114C65.1438 41.5189 66.7978 41.6926 67.9549 42.227C68.5133 42.4848 68.9207 42.8122 69.1938 43.2298C69.4661 43.6463 69.6434 44.2113 69.6434 45.0101C69.6434 45.8088 69.466 46.3735 69.1936 46.7896C68.9204 47.2069 68.5128 47.534 67.9539 47.7916C66.796 48.3252 65.141 48.498 63.1619 48.6049C62.7907 48.6249 62.4094 48.6426 62.0212 48.6607C60.401 48.736 58.6609 48.8168 57.0372 49.0958C55.0168 49.443 53.047 50.1143 51.5907 51.567C50.1344 53.0197 49.4609 54.9825 49.1125 56.9954C48.833 58.6102 48.7514 60.3402 48.6754 61.9506C48.6571 62.3393 48.6391 62.721 48.6187 63.0925C48.5107 65.0619 48.3363 66.7066 47.8002 67.8568C47.5417 68.4116 47.2132 68.8171 46.7931 69.0893C46.3737 69.3611 45.8044 69.5381 45.0002 69.5381C44.2242 69.5381 43.676 69.3356 43.2632 69.0175C42.8401 68.6916 42.4993 68.1977 42.2272 67.5198C41.6704 66.1327 41.4832 64.2005 41.3176 62.0107C41.3041 61.8319 41.2907 61.6516 41.2773 61.4701C41.1302 59.4865 40.9726 57.3595 40.494 55.5068C39.97 53.478 39.0222 51.6173 37.1269 50.619C33.1998 48.5497 29.2572 48.4995 26.2274 48.461C25.796 48.4555 25.3831 48.4502 24.9914 48.4394C23.3591 48.3944 22.2181 48.2546 21.4745 47.7975C20.8347 47.4042 20.3569 46.6814 20.3569 45.0101Z" stroke="#4D068A" stroke-width="1.5" stroke-miterlimit="10"/>
<path d="M48.2618 45.0185L44.9956 48.2699L41.7294 45.0186L44.9956 41.7672L48.2618 45.0185Z" stroke="#4D068A" stroke-width="1.5" stroke-miterlimit="10"/>
</svg>
