<svg width="90" height="90" viewBox="0 0 90 90" fill="none" xmlns="http://www.w3.org/2000/svg">
<path d="M45.5457 24.4797C45.6529 24.9943 45.858 25.5717 46.3203 26.0307C47.1797 26.8892 48.1134 26.8623 48.7629 26.8436C48.775 26.8432 48.7869 26.8429 48.7987 26.8426C49.4454 26.8242 49.7899 26.8316 50.1751 27.2168C50.5604 27.602 50.5677 27.9466 50.5494 28.5932C50.5491 28.605 50.5487 28.617 50.5484 28.629C50.5296 29.2788 50.5027 30.2131 51.3624 31.0728C52.2221 31.9324 53.1564 31.9055 53.8061 31.8868C53.8182 31.8864 53.8301 31.8861 53.8419 31.8858C54.4886 31.8674 54.8331 31.8748 55.2183 32.26C55.6035 32.6452 55.6109 32.9898 55.5926 33.6364L55.5916 33.6722C55.5728 34.322 55.5459 35.2563 56.4056 36.116C57.2653 36.9756 58.1996 36.9487 58.8493 36.93L58.8851 36.929C59.5318 36.9106 59.8763 36.918 60.2615 37.3032C60.6467 37.6884 60.6541 38.033 60.6358 38.6796L60.6348 38.7154C60.616 39.3652 60.5891 40.2995 61.4488 41.1592C62.3085 42.0188 63.2428 41.9919 63.8925 41.9732L63.9283 41.9721C64.575 41.9538 64.9195 41.9612 65.3047 42.3464C65.9169 42.9585 65.9917 43.1671 66.0195 43.3371C66.0392 43.458 66.0396 43.6096 66.0256 43.8985C66.0235 43.9428 66.0211 43.9895 66.0185 44.0388C66.0053 44.2941 65.9886 44.6164 65.9886 45.0101C65.9886 45.4039 66.0053 45.7263 66.0185 45.9816C66.0211 46.0307 66.0235 46.0773 66.0256 46.1215C66.0396 46.4104 66.0392 46.5614 66.0195 46.6814C65.9921 46.8485 65.9191 47.054 65.3069 47.6611L65.3047 47.6633C64.9195 48.0485 64.575 48.0559 63.9283 48.0375L63.8925 48.0365C63.2428 48.0178 62.3085 47.9909 61.4488 48.8505C60.5891 49.7102 60.616 50.6445 60.6348 51.2943L60.6358 51.3301C60.6541 51.9767 60.6467 52.3213 60.2615 52.7065C59.8763 53.0917 59.5318 53.0991 58.8851 53.0807L58.8493 53.0797C58.1996 53.061 57.2653 53.0341 56.4056 53.8937C55.5459 54.7534 55.5728 55.6877 55.5916 56.3375L55.5926 56.3733C55.6109 57.0199 55.6035 57.3645 55.2183 57.7497C54.8331 58.1349 54.4886 58.1423 53.8419 58.1239L53.8062 58.1229C53.1564 58.1042 52.2221 58.0773 51.3624 58.9369C50.5027 59.7966 50.5296 60.7309 50.5484 61.3807L50.5494 61.4165C50.5677 62.0631 50.5604 62.4077 50.1751 62.7929C49.7899 63.1781 49.4454 63.1855 48.7987 63.1671L48.7629 63.1661C48.1132 63.1474 47.1789 63.1205 46.3192 63.9801C45.8582 64.4411 45.6525 65.0192 45.5443 65.5353C45.4602 65.9365 45.4238 66.3685 45.3936 66.7275C45.386 66.8177 45.3788 66.9033 45.3713 66.9827C45.3285 67.4369 45.2768 67.6857 45.2028 67.8212C45.1774 67.8677 45.1625 67.8748 45.1616 67.8752L45.1615 67.8752C45.1592 67.8766 45.1199 67.9001 45.0003 67.9001C44.8788 67.9001 44.8379 67.8762 44.8346 67.8743C44.8337 67.8738 44.8187 67.8674 44.7929 67.8203C44.7193 67.6859 44.6677 67.4383 44.6255 66.985C44.6181 66.9054 44.611 66.8194 44.6035 66.7288C44.574 66.3709 44.5383 65.94 44.4551 65.5405C44.3478 65.0259 44.1427 64.4485 43.6804 63.9895C42.821 63.131 41.8873 63.1579 41.2378 63.1766L41.202 63.1776C40.5553 63.196 40.2108 63.1886 39.8256 62.8034C39.4403 62.4182 39.433 62.0736 39.4513 61.427L39.4523 61.3912C39.4711 60.7414 39.498 59.8071 38.6383 58.9474C37.7786 58.0878 36.8443 58.1147 36.1946 58.1334L36.1588 58.1344C35.5121 58.1528 35.1676 58.1454 34.7824 57.7602C34.3972 57.375 34.3898 57.0304 34.4081 56.3838L34.4091 56.348C34.4279 55.6982 34.4548 54.7639 33.5951 53.9042C32.7354 53.0446 31.8011 53.0715 31.1514 53.0902L31.1156 53.0912C30.4689 53.1096 30.1244 53.1022 29.7392 52.717C29.354 52.3318 29.3466 51.9872 29.3649 51.3406C29.3652 51.3288 29.3656 51.3168 29.3659 51.3048C29.3847 50.655 29.4116 49.7207 28.5519 48.861C27.6923 48.0014 26.7579 48.0283 26.1082 48.047C26.0961 48.0474 26.0842 48.0477 26.0724 48.0481C25.4257 48.0664 25.0812 48.059 24.696 47.6738C24.0838 47.0617 24.009 46.8531 23.9812 46.6831C23.9615 46.5622 23.9611 46.4106 23.9751 46.1217C23.9772 46.0774 23.9796 46.0307 23.9822 45.9815C23.9954 45.7262 24.0121 45.4038 24.0121 45.0101C24.0121 44.6162 23.9954 44.2939 23.9822 44.0386C23.9796 43.9895 23.9772 43.9428 23.9751 43.8987C23.9611 43.6098 23.9615 43.4588 23.9812 43.3388C24.0086 43.1717 24.0816 42.9662 24.6938 42.3591L24.696 42.3569C25.0812 41.9717 25.4257 41.9643 26.0724 41.9827C26.0842 41.983 26.0961 41.9833 26.1082 41.9837C26.7579 42.0024 27.6923 42.0293 28.5519 41.1697C29.4116 40.31 29.3847 39.3757 29.3659 38.7259C29.3656 38.7139 29.3652 38.7019 29.3649 38.6901C29.3466 38.0435 29.354 37.6989 29.7392 37.3137C30.1244 36.9285 30.4689 36.9211 31.1156 36.9395C31.1274 36.9398 31.1393 36.9401 31.1514 36.9405C31.8011 36.9592 32.7354 36.9861 33.5951 36.1265C34.4548 35.2668 34.4279 34.3325 34.4091 33.6827C34.4088 33.6707 34.4084 33.6588 34.4081 33.6469C34.3898 33.0003 34.3972 32.6557 34.7824 32.2705C35.1676 31.8853 35.5121 31.8779 36.1588 31.8963C36.1706 31.8966 36.1825 31.8969 36.1946 31.8973C36.8443 31.916 37.7786 31.9429 38.6383 31.0833C39.498 30.2236 39.4711 29.2893 39.4523 28.6395C39.452 28.6275 39.4516 28.6156 39.4513 28.6037C39.433 27.9571 39.4403 27.6125 39.8256 27.2273C40.1956 26.8573 40.6323 26.8582 41.453 26.8626C41.8146 26.8645 42.2894 26.8626 42.7405 26.7129C43.2359 26.5486 43.6682 26.2211 43.9764 25.6612L43.9764 25.6612L43.9802 25.6542C44.5223 24.6435 44.5825 23.6273 44.6224 22.9533C44.6291 22.839 44.6353 22.7345 44.6432 22.6416C44.6723 22.297 44.7154 22.1858 44.734 22.1544C44.7352 22.1538 44.7366 22.1532 44.7382 22.1526C44.7641 22.1422 44.8396 22.1201 45.0003 22.1201C45.1215 22.1201 45.1624 22.1438 45.166 22.1458L45.1661 22.1459L45.1662 22.146C45.1681 22.1469 45.183 22.1546 45.2078 22.1999C45.2814 22.3343 45.333 22.5819 45.3752 23.0352C45.3826 23.1148 45.3897 23.2008 45.3972 23.2914C45.4267 23.6493 45.4624 24.0802 45.5457 24.4797Z" stroke="#4D068A" stroke-width="1.5" stroke-miterlimit="10"/>
<path d="M46.4521 10.1241C46.1076 9.94607 45.6438 9.82812 45.0002 9.82812C43.6488 9.82812 43.0109 10.1593 42.6453 10.5798C42.2402 11.0458 42.025 11.774 41.8629 12.8968C41.8088 13.2713 41.7625 13.6793 41.713 14.1153C41.4777 16.1884 41.1704 18.8967 39.6133 21.6742C38.8167 23.1006 37.8113 23.9258 36.6704 24.3949C35.5636 24.85 34.3695 24.9506 33.253 25.0181C33.1322 25.0254 33.0119 25.0324 32.8923 25.0393C30.7377 25.1644 28.7674 25.2788 27.0178 27.0285C25.1476 28.8986 25.0415 30.6168 24.93 32.5614L24.9288 32.5824C24.8147 34.5724 24.6878 36.7867 22.4053 39.0691C21.2314 40.2456 19.7643 40.8506 18.2973 41.2107C17.1831 41.4842 16.0104 41.6277 14.9401 41.7586C14.6198 41.7978 14.3087 41.8358 14.0111 41.8759C12.6594 42.0579 11.6053 42.2795 10.8859 42.7369C10.5447 42.9538 10.2892 43.2186 10.1134 43.5589C9.93533 43.9034 9.81738 44.3673 9.81738 45.0109C9.81738 45.656 9.9354 46.1212 10.1136 46.4669C10.2897 46.8083 10.5454 47.0738 10.8865 47.2912C11.6058 47.7495 12.6598 47.9718 14.0111 48.1537C14.3113 48.1942 14.6252 48.2325 14.9485 48.272C16.0163 48.4024 17.1858 48.5451 18.2967 48.8168C19.7636 49.1755 21.2311 49.7785 22.4053 50.9527C24.6878 53.2351 24.8147 55.4494 24.9288 57.4394L24.93 57.4604C25.0415 59.405 25.1476 61.1231 27.0178 62.9933C28.8879 64.8634 30.6061 64.9696 32.5507 65.081L32.5717 65.0822C34.5616 65.1963 36.7759 65.3232 39.0584 67.6057C40.2349 68.7796 40.8399 70.2468 41.2 71.7137C41.4735 72.8279 41.617 74.0006 41.7479 75.0709C41.787 75.3912 41.8251 75.7023 41.8652 76C42.0472 77.3516 42.2688 78.4057 42.7262 79.1252C42.9431 79.4664 43.2079 79.7218 43.5482 79.8977C43.8927 80.0757 44.3565 80.1936 45.0002 80.1936C45.6453 80.1936 46.1105 80.0756 46.4562 79.8974C46.7975 79.7213 47.0631 79.4657 47.2805 79.1245C47.7388 78.4052 47.961 77.3513 48.143 76C48.1835 75.6998 48.2218 75.3858 48.2613 75.0625C48.3916 73.9947 48.5344 72.8252 48.8061 71.7143C49.1648 70.2474 49.7677 68.7799 50.9419 67.6057C53.2244 65.3232 55.4387 65.1963 57.4286 65.0822L57.4497 65.081C59.3943 64.9696 61.1124 64.8634 62.9826 62.9933C64.8527 61.1231 64.9589 59.405 65.0703 57.4604L65.0715 57.4394C65.1856 55.4496 65.3125 53.2355 67.5943 50.9533L46.4521 10.1241ZM46.4521 10.1241C46.7924 10.2999 47.0572 10.5554 47.2741 10.8966M46.4521 10.1241L47.2741 10.8966M47.2741 10.8966C47.7315 11.6161 47.9531 12.6702 48.1351 14.0218M47.2741 10.8966L48.1351 14.0218M48.1351 14.0218C48.1752 14.3194 48.2133 14.6306 48.2525 14.9509M48.1351 14.0218L48.2525 14.9509M48.2525 14.9509C48.3834 16.0212 48.5268 17.1939 48.8003 18.3081M48.2525 14.9509L48.8003 18.3081M48.8003 18.3081C49.1604 19.775 49.7654 21.2422 50.9419 22.4161M48.8003 18.3081L50.9419 22.4161M50.9419 22.4161C53.2244 24.6985 55.4387 24.8254 57.4286 24.9395M50.9419 22.4161L57.4286 24.9395M57.4286 24.9395L57.4497 24.9407M57.4286 24.9395L57.4497 24.9407M57.4497 24.9407C59.3943 25.0522 61.1124 25.1584 62.9826 27.0285M57.4497 24.9407L62.9826 27.0285M62.9826 27.0285C64.8527 28.8986 64.9589 30.6168 65.0703 32.5614M62.9826 27.0285L65.0703 32.5614M65.0703 32.5614L65.0715 32.5824M65.0703 32.5614L65.0715 32.5824M65.0715 32.5824C65.1856 34.5724 65.3125 36.7866 67.595 39.0691M65.0715 32.5824L67.595 39.0691M67.595 39.0691C68.7692 40.2433 70.2367 40.8463 71.7036 41.205M67.595 39.0691L71.7036 41.205M71.7036 41.205C72.8145 41.4766 73.984 41.6194 75.0518 41.7498M71.7036 41.205L75.0518 41.7498M75.0518 41.7498C75.3751 41.7893 75.6891 41.8276 75.9893 41.868M75.0518 41.7498L75.9893 41.868M75.9893 41.868C77.3406 42.05 78.3945 42.2722 79.1138 42.7306M75.9893 41.868L79.1138 42.7306M79.1138 42.7306C79.455 42.948 79.7106 43.2135 79.8867 43.5549M79.1138 42.7306L79.8867 43.5549M79.8867 43.5549C80.0649 43.9005 80.1829 44.3658 80.1829 45.0109M79.8867 43.5549L80.1829 45.0109M80.1829 45.0109C80.1829 45.6545 80.065 46.1184 79.887 46.4629M80.1829 45.0109L79.887 46.4629M79.887 46.4629C79.7111 46.8031 79.4557 47.0679 79.1145 47.2849M79.887 46.4629L79.1145 47.2849M79.1145 47.2849C78.395 47.7422 77.3409 47.9638 75.9893 48.1459M79.1145 47.2849L75.9893 48.1459M75.9893 48.1459C75.6916 48.1859 75.3805 48.224 75.0602 48.2632M75.9893 48.1459L75.0602 48.2632M75.0602 48.2632C73.9899 48.3941 72.8172 48.5375 71.703 48.811M75.0602 48.2632L71.703 48.811M71.703 48.811C70.2361 49.1711 68.7689 49.7761 67.595 50.9527L71.703 48.811Z" stroke="#4D068A" stroke-width="1.5" stroke-miterlimit="10"/>
<path d="M51.6615 3.43524C50.3638 1.80416 48.3886 0.75 45 0.75C41.5305 0.75 39.4845 1.50068 38.1585 2.7146C36.8144 3.94514 36.0826 5.7627 35.4943 8.20042C35.2376 9.26382 35.0125 10.4338 34.7702 11.6925C33.9175 16.1237 32.8532 21.6544 29.458 27.5044L51.6615 3.43524ZM51.6615 3.43524C53.0064 5.12562 53.7036 7.52737 54.2953 10.4068M51.6615 3.43524L54.2953 10.4068M54.2953 10.4068C54.4538 11.1784 54.6035 11.9817 54.7574 12.8071M54.2953 10.4068L54.7574 12.8071M54.7574 12.8071C55.7268 18.0076 56.8594 24.0839 61.3851 28.6143M54.7574 12.8071L61.3851 28.6143M61.3851 28.6143C65.9137 33.1477 71.994 34.2816 77.1975 35.252M61.3851 28.6143L77.1975 35.252M77.1975 35.252C78.0199 35.4054 78.8203 35.5547 79.5893 35.7126M77.1975 35.252L79.5893 35.7126M79.5893 35.7126C82.4695 36.3043 84.8724 37.0009 86.5637 38.3447M79.5893 35.7126L86.5637 38.3447M86.5637 38.3447C88.1954 39.6412 89.25 41.6144 89.25 45M86.5637 38.3447L89.25 45M89.25 45C89.25 48.3858 88.196 50.3597 86.5649 51.657M89.25 45L86.5649 51.657M86.5649 51.657C84.8744 53.0015 82.4725 53.6991 79.5931 54.2914M86.5649 51.657L79.5931 54.2914M79.5931 54.2914C78.822 54.45 78.0192 54.5998 77.1944 54.7538M79.5931 54.2914L77.1944 54.7538M77.1944 54.7538C71.9935 55.7246 65.9165 56.859 61.3857 61.3851M77.1944 54.7538L61.3857 61.3851M61.3857 61.3851C56.8523 65.9137 55.7184 71.994 54.748 77.1975M61.3857 61.3851L54.748 77.1975M54.748 77.1975C54.5946 78.0199 54.4453 78.8203 54.2874 79.5893M54.748 77.1975L54.2874 79.5893M54.2874 79.5893C53.6957 82.4695 52.9991 84.8724 51.6553 86.5637M54.2874 79.5893L51.6553 86.5637M51.6553 86.5637C50.3588 88.1954 48.3856 89.25 45 89.25M51.6553 86.5637L45 89.25M45 89.25C41.6142 89.25 39.6403 88.196 38.343 86.5649M45 89.25L38.343 86.5649M38.343 86.5649C36.9985 84.8744 36.3009 82.4725 35.7086 79.5931M38.343 86.5649L35.7086 79.5931M35.7086 79.5931C35.55 78.822 35.4002 78.0192 35.2462 77.1944M35.7086 79.5931L35.2462 77.1944M35.2462 77.1944C34.2754 71.9935 33.141 65.9165 28.6149 61.3857M35.2462 77.1944L28.6149 61.3857M28.6149 61.3857C24.0867 56.8527 18.0071 55.7205 12.804 54.7516M28.6149 61.3857L12.804 54.7516M12.804 54.7516C11.9811 54.5984 11.18 54.4492 10.4105 54.2913M12.804 54.7516L10.4105 54.2913M10.4105 54.2913C7.53034 53.7003 5.12761 53.004 3.43643 51.6598M10.4105 54.2913L3.43643 51.6598M3.43643 51.6598C1.8047 50.3629 0.75 48.3885 0.75 45M3.43643 51.6598L0.75 45M0.75 45C0.75 43.3108 1.06958 42.0111 1.60768 40.9887M0.75 45L1.60768 40.9887M1.60768 40.9887C2.14432 39.9691 2.92057 39.1828 3.9 38.5518M1.60768 40.9887L3.9 38.5518M3.9 38.5518C5.89592 37.2658 8.67614 36.6543 11.8508 36.0811M3.9 38.5518L11.8508 36.0811M11.8508 36.0811C12.244 36.0101 12.6428 35.9398 13.0457 35.8687M11.8508 36.0811L13.0457 35.8687M13.0457 35.8687C15.8361 35.3765 18.8245 34.8493 21.5483 33.8276M13.0457 35.8687L21.5483 33.8276M21.5483 33.8276C24.6914 32.6485 27.5538 30.7879 29.4579 27.5047L21.5483 33.8276Z" stroke="#4D068A" stroke-width="1.5" stroke-miterlimit="10"/>
<path d="M44.9914 48.2716L41.7208 45.001L44.9914 41.7304L48.262 45.001L44.9914 48.2716Z" stroke="#4D068A" stroke-width="1.5" stroke-miterlimit="10"/>
</svg>
