<svg width="90" height="90" viewBox="0 0 90 90" fill="none" xmlns="http://www.w3.org/2000/svg">
<path d="M45 88.9393L1.06065 45L45 1.06066L88.9394 45L45 88.9393Z" stroke="#771F5C" stroke-width="1.5" stroke-miterlimit="10"/>
<path d="M13.1882 13.1871L13.1887 13.1865C14.3843 11.9909 15.4202 11.7444 16.4163 11.9128C17.4999 12.0959 18.6465 12.7847 19.9933 13.7444C20.3176 13.9755 20.653 14.222 20.9985 14.4759C22.0358 15.2381 23.1643 16.0674 24.3587 16.7496C25.9721 17.6712 27.7889 18.3786 29.8582 18.3786C31.8548 18.3786 33.3817 17.9929 34.6667 17.3998C35.9259 16.8186 36.9285 16.0474 37.8608 15.3303L37.8847 15.3118C38.838 14.5785 39.7214 13.9024 40.8168 13.3968C41.8972 12.8982 43.2087 12.5561 44.9967 12.5561C46.7847 12.5561 48.0963 12.8982 49.1769 13.3968C50.2725 13.9024 51.1563 14.5786 52.1104 15.312L52.1323 15.3288C53.066 16.0465 54.0702 16.8184 55.332 17.4C56.6186 17.9929 58.1476 18.3786 60.1469 18.3786C62.219 18.3786 64.0371 17.6713 65.6512 16.7497C66.8475 16.0666 67.9771 15.2362 69.0149 14.4733C69.3591 14.2202 69.6932 13.9747 70.0163 13.7443C71.3625 12.7845 72.508 12.0959 73.5905 11.9127C74.5855 11.7444 75.6206 11.9908 76.8164 13.1865C78.0119 14.3821 78.2585 15.418 78.0901 16.4141C77.9069 17.4976 77.2182 18.6442 76.2584 19.9911C76.0273 20.3154 75.7809 20.6508 75.527 20.9963C74.7648 22.0335 73.9355 23.162 73.2532 24.3565C72.3317 25.9698 71.6242 27.7866 71.6242 29.8559C71.6242 31.8526 72.01 33.3795 72.6031 34.6645C73.1842 35.9237 73.9554 36.9262 74.6726 37.8585L74.691 37.8825C75.4243 38.8357 76.1005 39.7192 76.606 40.8145C77.1047 41.895 77.4468 43.2065 77.4468 44.9945C77.4468 46.7825 77.1047 48.0941 76.606 49.1747C76.1004 50.2703 75.4242 51.1541 74.6909 52.1082L74.6741 52.1301C73.9563 53.0638 73.1845 54.068 72.6029 55.3298C72.0099 56.6164 71.6242 58.1454 71.6242 60.1447C71.6242 62.214 72.3317 64.0308 73.2532 65.6442C73.9355 66.8386 74.7648 67.9671 75.527 69.0044C75.7809 69.3499 76.0273 69.6852 76.2584 70.0096C77.2182 71.3564 77.9069 72.503 78.0901 73.5866C78.2585 74.5827 78.0119 75.6186 76.8164 76.8142C75.6208 78.0098 74.5849 78.2563 73.5888 78.0879C72.5052 77.9047 71.3586 77.216 70.0118 76.2563C69.6874 76.0252 69.3521 75.7787 69.0066 75.5248C67.9693 74.7626 66.8408 73.9333 65.6464 73.251C64.033 72.3295 62.2162 71.6221 60.1469 71.6221C58.1503 71.6221 56.6234 72.0078 55.3384 72.6009C54.0792 73.182 53.0766 73.9532 52.1444 74.6704L52.1204 74.6889C51.1671 75.4221 50.2837 76.0983 49.1883 76.6039C48.1079 77.1025 46.7964 77.4446 45.0084 77.4446C43.2204 77.4446 41.9088 77.1025 40.8282 76.6038C39.7326 76.0982 38.8488 75.422 37.8947 74.6887L37.8728 74.6719C36.9391 73.9541 35.9349 73.1823 34.6731 72.6007C33.3865 72.0077 31.8575 71.6221 29.8582 71.6221C27.7861 71.6221 25.968 72.3293 24.3539 73.251C23.1576 73.9341 22.028 74.7644 20.9902 75.5274C20.646 75.7804 20.3119 76.026 19.9888 76.2564C18.6426 77.2162 17.4971 77.9048 16.4146 78.0879C15.4196 78.2562 14.3845 78.0099 13.1887 76.8142C11.9931 75.6186 11.7466 74.5827 11.915 73.5866C12.0982 72.503 12.7869 71.3564 13.7466 70.0096C13.9778 69.6852 14.2242 69.3499 14.4781 69.0044C15.2403 67.9671 16.0696 66.8386 16.7519 65.6442C17.6734 64.0308 18.3808 62.214 18.3808 60.1447C18.3808 58.1481 17.9951 56.6212 17.402 55.3362C16.8209 54.0769 16.0497 53.0744 15.3325 52.1421L15.3141 52.1182C14.5808 51.1649 13.9046 50.2815 13.3991 49.1861C12.9004 48.1057 12.5583 46.7942 12.5583 45.0062C12.5583 41.7358 14.0929 39.8119 15.6915 37.8075C15.7963 37.6761 15.9013 37.5444 16.0062 37.412C16.8473 36.35 17.6966 35.2131 18.1843 33.8418C18.6816 32.4434 18.7876 30.8513 18.2493 28.8889L18.2491 28.8882C17.2271 25.1781 15.2958 22.556 13.7908 20.5127C13.4226 20.0128 13.08 19.5477 12.7824 19.1096C12.0028 17.9621 11.5739 17.0712 11.5635 16.215C11.5536 15.4003 11.9265 14.446 13.1882 13.1871Z" stroke="#771F5C" stroke-width="1.5" stroke-miterlimit="10"/>
<path d="M44.997 17.377C45.9115 17.377 46.5676 17.5781 47.0557 17.8936C47.5444 18.2096 47.9231 18.6781 48.219 19.3102C48.8298 20.6148 49.0281 22.4721 49.1522 24.6737C49.1758 25.0925 49.1967 25.5225 49.218 25.9599C49.3055 27.7605 49.3992 29.6882 49.7129 31.489C50.1043 33.7357 50.8556 35.9133 52.4668 37.5245C54.078 39.1357 56.2556 39.887 58.5023 40.2784C60.3031 40.5921 62.2307 40.6858 64.0313 40.7733C64.4688 40.7946 64.8988 40.8155 65.3176 40.8391C67.5192 40.9632 69.3765 41.1615 70.6811 41.7723C71.3132 42.0682 71.7817 42.4469 72.0977 42.9356C72.4132 43.4237 72.6143 44.0798 72.6143 44.9943C72.6143 45.9088 72.4132 46.5649 72.0977 47.053C71.7817 47.5418 71.3132 47.9204 70.6811 48.2164C69.3765 48.8272 67.5192 49.0255 65.3176 49.1495C64.8988 49.1731 64.4688 49.194 64.0314 49.2153C62.2308 49.3028 60.3031 49.3965 58.5023 49.7103C56.2556 50.1017 54.078 50.8529 52.4668 52.4642C50.8556 54.0754 50.1043 56.253 49.7129 58.4996C49.3992 60.3005 49.3055 62.2281 49.218 64.0287C49.1967 64.4662 49.1758 64.8962 49.1522 65.315C49.0281 67.5166 48.8298 69.3738 48.219 70.6785C47.9231 71.3106 47.5444 71.7791 47.0557 72.0951C46.5676 72.4106 45.9115 72.6117 44.997 72.6117C44.0825 72.6117 43.4264 72.4106 42.9383 72.0951C42.4495 71.7791 42.0709 71.3106 41.7749 70.6785C41.1641 69.3738 40.9658 67.5166 40.8418 65.315C40.8182 64.8962 40.7973 64.4662 40.776 64.0287C40.6885 62.2281 40.5948 60.3004 40.281 58.4996C39.8896 56.253 39.1384 54.0754 37.5271 52.4642C35.9159 50.8529 33.7384 50.1017 31.4917 49.7103C29.6909 49.3965 27.7632 49.3028 25.9626 49.2153C25.5251 49.194 25.0951 49.1731 24.6763 49.1495C22.4747 49.0255 20.6175 48.8272 19.3128 48.2164C18.6808 47.9204 18.2122 47.5418 17.8963 47.053C17.5807 46.5649 17.3796 45.9088 17.3796 44.9943C17.3796 44.108 17.6111 43.4733 17.9808 42.9922C18.3584 42.5009 18.9263 42.1102 19.694 41.8006C21.2607 41.1689 23.4368 40.9559 25.8837 40.7682C26.0865 40.7527 26.2911 40.7373 26.4969 40.7218C28.7156 40.5549 31.0842 40.3767 33.1474 39.8431C35.4085 39.2584 37.4633 38.2078 38.5679 36.1225C40.8804 31.7619 40.9489 27.3923 41.0018 24.0171C41.0094 23.5311 41.0167 23.0657 41.0304 22.624C41.0864 20.8084 41.247 19.5158 41.7773 18.6659C42.2444 17.9172 43.0974 17.377 44.997 17.377Z" stroke="#771F5C" stroke-width="1.5" stroke-miterlimit="10"/>
<path d="M45.0001 49.6292L40.3708 45L45.0001 40.3708L49.6293 45L45.0001 49.6292Z" stroke="#771F5C" stroke-width="1.5" stroke-miterlimit="10"/>
</svg>
