<svg width="44" height="29" viewBox="0 0 44 29" fill="none" xmlns="http://www.w3.org/2000/svg">
<path fill-rule="evenodd" clip-rule="evenodd" d="M0 28.8336H43.9828H44V0H0V28.8336ZM42.8117 27.6582H1.15381V1.17547H42.8117V27.6582ZM2.89363 25.9122V2.92134H9.24823L10.5398 4.18325V25.9122H7.99109V5.47972H5.44236V25.9122H2.89363ZM13.0878 2.92134H15.6366V25.9122H13.0878V2.92134ZM25.833 4.18325L24.5415 2.92134H18.1869V25.9122H20.7356V5.47972H23.2843V21.4696H25.833V4.18325ZM26.108 23.3538H28.3468V2.92134H30.8955V25.2899L30.2239 25.9122H25.8325H23.2837H23.2493V23.3538H23.2837H25.8325H26.108ZM34.0633 2.92134H40.4179L41.0723 3.56094V25.9122H38.5236V18.2371H35.9749V25.9122H33.4261V3.56094L34.0633 2.92134ZM35.9924 15.6787H35.9921V5.47972H38.5408V5.47985H38.5411V15.6788H35.9924V15.6787Z" fill="white"/>
</svg>
