<svg width="45" height="45" viewBox="0 0 45 45" fill="none" xmlns="http://www.w3.org/2000/svg">
<path d="M27.4177 18.8467L22.4999 23.7538L17.582 18.8467L16.0713 20.3574L22.4999 26.786L28.9284 20.3574L27.4177 18.8467Z" fill="#EA5EBF"/>
<path d="M26.6236 38.1026L26.6235 38.1027C26.0038 39.1142 25.6222 40.0489 25.3373 40.8612C25.2136 41.2138 25.1166 41.5142 25.0299 41.7824C24.9024 42.1773 24.7974 42.5023 24.6632 42.821C24.4625 43.2977 24.2763 43.5381 24.0434 43.69C23.799 43.8494 23.3651 44 22.4971 44C21.6962 44 21.3312 43.8107 21.1235 43.6258C20.8837 43.4122 20.6963 43.0689 20.4877 42.4618C20.4243 42.2773 20.361 42.0704 20.2926 41.8463C19.9451 40.7096 19.4632 39.1327 18.1429 37.8124C16.6766 36.3461 15.6908 35.814 14.7561 35.3128L14.7411 35.3048C13.8986 34.8531 13.1034 34.4267 11.8383 33.1617C10.5726 31.8959 10.1465 31.1006 9.69456 30.257L9.68735 30.2435C9.18633 29.3083 8.65442 28.3211 7.18838 26.852C5.86667 25.5274 4.28813 25.0455 3.15066 24.6982C2.92764 24.6301 2.72157 24.5672 2.53772 24.5041C1.93033 24.2957 1.58721 24.1087 1.37389 23.8694C1.18927 23.6623 1 23.2979 1 22.4971C1 21.6962 1.18927 21.3312 1.37424 21.1235C1.58777 20.8837 1.93112 20.6963 2.5382 20.4877C2.72271 20.4243 2.92964 20.361 3.15367 20.2926C4.29043 19.9451 5.86734 19.4632 7.18762 18.1429C8.65391 16.6766 9.18599 15.6908 9.68718 14.7561L9.69518 14.7412C10.1469 13.8986 10.5733 13.1034 11.8383 11.8383C13.1041 10.5726 13.8994 10.1465 14.743 9.69456L14.7565 9.68735C15.6917 9.18633 16.6788 8.65442 18.148 7.18838C19.4726 5.86666 19.9545 4.28812 20.3018 3.15066C20.3699 2.92764 20.4328 2.72157 20.4959 2.53772C20.7043 1.93033 20.8913 1.58721 21.1306 1.37389C21.3377 1.18927 21.7021 1 22.5029 1C23.3038 1 23.6688 1.18927 23.8765 1.37424C24.1163 1.58777 24.3037 1.93112 24.5123 2.5382C24.5757 2.72271 24.639 2.92964 24.7074 3.15367C25.0548 4.29043 25.5368 5.86733 26.8571 7.18762C28.3234 8.65391 29.3092 9.18599 30.2439 9.68718L30.2588 9.69518C31.1014 10.1469 31.8966 10.5733 33.1617 11.8383C34.4274 13.1041 34.8535 13.8994 35.3054 14.743L35.3127 14.7565C35.8137 15.6917 36.3456 16.6788 37.8116 18.148C39.1333 19.4726 40.7119 19.9545 41.8493 20.3018C42.0724 20.3699 42.2784 20.4328 42.4623 20.4959C43.0697 20.7043 43.4128 20.8913 43.6261 21.1306C43.8107 21.3377 44 21.7021 44 22.5029C44 23.3038 43.8107 23.6688 43.6258 23.8765C43.4122 24.1163 43.0689 24.3037 42.4618 24.5123C42.2773 24.5757 42.0704 24.639 41.8463 24.7074C40.7096 25.0548 39.1327 25.5368 37.8124 26.8571C36.3461 28.3234 35.814 29.3092 35.3128 30.2439L35.3048 30.2588C34.8531 31.1014 34.4267 31.8966 33.1617 33.1617C32.0823 34.241 31.2398 34.5965 30.3457 34.9739C30.2338 35.0211 30.1211 35.0687 30.007 35.118C29.4765 35.3476 28.9008 35.6245 28.3163 36.0952C27.7305 36.567 27.1773 37.199 26.6236 38.1026Z" stroke="#EA5EBF" stroke-width="2" stroke-miterlimit="10"/>
<path d="M37.7009 37.7066C37.134 38.2735 36.7417 38.398 36.464 38.4142C36.1436 38.4328 35.7685 38.3226 35.1917 38.0408C35.0164 37.9552 34.8254 37.8536 34.6187 37.7436C33.5691 37.1854 32.1129 36.4109 30.2443 36.4109C28.1714 36.4109 27.0984 36.7328 26.083 37.0403L26.0677 37.0449C25.1523 37.3221 24.288 37.5838 22.4969 37.5838C20.7059 37.5838 19.8416 37.3221 18.9262 37.0449L18.9109 37.0403C17.8955 36.7328 16.8225 36.4109 14.7496 36.4109C12.8842 36.4109 11.4285 37.1849 10.3789 37.743C10.1716 37.8532 9.98021 37.955 9.80457 38.0407C9.22757 38.3225 8.85177 38.4328 8.53063 38.4142C8.25228 38.398 7.8597 38.2733 7.29302 37.7066C6.72612 37.1397 6.60163 36.7475 6.58548 36.4698C6.56684 36.1493 6.67704 35.7742 6.95879 35.1975C7.04442 35.0222 7.14601 34.8312 7.25599 34.6244C7.81426 33.5749 8.58878 32.1187 8.58878 30.25C8.58878 28.1772 8.26684 27.1042 7.95939 26.0888L7.95476 26.0735C7.67755 25.1581 7.41583 24.2938 7.41583 22.5028C7.41583 20.7117 7.67755 19.8474 7.95476 18.932L7.95939 18.9167C8.26684 17.9013 8.58878 16.8283 8.58878 14.7555C8.58878 12.89 7.81475 11.4343 7.25666 10.3848C7.14644 10.1775 7.04465 9.98605 6.9589 9.81042C6.67719 9.23342 6.56682 8.85761 6.58548 8.53648C6.60165 8.25813 6.72633 7.86556 7.29302 7.29887C7.85991 6.73198 8.25215 6.60749 8.52985 6.59134C8.8503 6.5727 9.22541 6.6829 9.80216 6.96465C9.97743 7.05028 10.1684 7.15187 10.3752 7.26185C11.4248 7.82012 12.881 8.59463 14.7496 8.59463C16.8225 8.59463 17.8955 8.2727 18.9109 7.96525L18.9262 7.96062C19.8416 7.68341 20.7059 7.42169 22.4969 7.42169C24.288 7.42169 25.1523 7.68341 26.0677 7.96062L26.083 7.96525C27.0984 8.2727 28.1714 8.59463 30.2443 8.59463C32.1097 8.59463 33.5654 7.82061 34.615 7.26251C34.8222 7.1523 35.0137 7.05051 35.1893 6.96476C35.7663 6.68305 36.1421 6.57268 36.4632 6.59134C36.7416 6.60751 37.1342 6.73219 37.7009 7.29887C38.2677 7.86577 38.3922 8.25801 38.4084 8.5357C38.427 8.85615 38.3168 9.23125 38.0351 9.808C37.9495 9.98327 37.8479 10.1743 37.7379 10.381C37.1796 11.4306 36.4051 12.8868 36.4051 14.7555C36.4051 16.8283 36.727 17.9013 37.0345 18.9167L37.0391 18.932C37.3163 19.8474 37.578 20.7117 37.578 22.5028C37.578 24.0312 37.2338 24.8788 36.8689 25.7773C36.8233 25.8895 36.7774 26.0025 36.7318 26.1177C36.5193 26.6549 36.3083 27.2573 36.2279 28.003C36.1475 28.7501 36.2031 29.5875 36.4501 30.6173C36.7257 31.7708 37.1158 32.7018 37.4882 33.4781C37.6505 33.8164 37.7946 34.0984 37.9232 34.3501C38.1114 34.7184 38.2664 35.0217 38.3967 35.3417C38.592 35.8213 38.6306 36.1234 38.5734 36.3955C38.5136 36.6808 38.3138 37.0937 37.7009 37.7066Z" stroke="#EA5EBF" stroke-width="2" stroke-miterlimit="10"/>
</svg>
