<svg width="65" height="22" viewBox="0 0 65 22" fill="none" xmlns="http://www.w3.org/2000/svg">
<path fill-rule="evenodd" clip-rule="evenodd" d="M11.0093 0C4.91675 0 0 4.91262 0 11C0 17.0583 4.91675 22 11.0093 22C17.0726 22 22.0185 17.0583 22.0185 11C22.0185 4.91262 17.0726 0 11.0093 0ZM16.6062 16.5631C15.1001 18.068 13.1275 18.8835 11.0093 18.8835C8.89097 18.8835 6.91844 18.0583 5.41232 16.5631C3.9062 15.0971 3.08998 13.0874 3.08998 11C3.08998 8.8835 3.91591 6.88349 5.41232 5.40777C6.91844 3.90291 8.88125 3.08738 11.0093 3.08738C13.1275 3.08738 15.1001 3.91262 16.6062 5.40777C18.1123 6.87379 18.8994 8.8835 18.8994 11C18.8994 13.0874 18.1026 15.0874 16.6062 16.5631ZM61.1291 9.2427V19.3398V21.3301H64.0733V19.3398V9.2427V7.16503H61.1291V9.2427ZM56.9022 3.73782H41.8507V9.17472H59.0205L52.4713 21.3301L49.1384 21.3106L54.0648 12.1747H38.8482V0.737823H56.9022V3.73782ZM30.4431 0.737823H27.4697H24.5255V3.76695V21.3301H27.4697V3.76695H29.0924L38.547 21.3301L41.8799 21.3106L30.8026 0.737823H30.4431ZM7.80232 10.6725L11.011 7.46656L14.2197 10.6725L11.011 13.8785L7.80232 10.6725ZM31.7465 14.4958L29.3418 16.8986L31.7465 19.3013L34.1513 16.8986L31.7465 14.4958ZM60.1904 3.08838L62.5952 0.685611L65 3.08838L62.5952 5.49115L60.1904 3.08838Z" fill="white"/>
</svg>
