<?xml version="1.0" encoding="utf-8"?>
<!-- Generator: Adobe Illustrator 24.0.2, SVG Export Plug-In . SVG Version: 6.00 Build 0)  -->
<svg version="1.1" id="Camada_1" xmlns="http://www.w3.org/2000/svg" xmlns:xlink="http://www.w3.org/1999/xlink" x="0px" y="0px"
	 viewBox="0 0 5478.56 1241.45" style="enable-background:new 0 0 5478.56 1241.45;" xml:space="preserve">
<style type="text/css">
	.st0{clip-path:url(#SVGID_2_);fill:url(#SVGID_3_);}
	.st1{opacity:0.5;}
	.st2{opacity:0.5;fill:url(#SVGID_4_);}
	.st3{fill:url(#SVGID_5_);}
	.st4{fill:url(#SVGID_6_);}
	.st5{fill:#FFFFFF;}
	.st6{fill:url(#SVGID_7_);}
	.st7{fill:#2BC2E0;}
	.st8{fill:#EC5AC0;}
	.st9{fill:url(#SVGID_8_);}
	.st10{fill:#1D1D1D;}
	.st11{fill:#DAABFF;}
	.st12{fill:#B66BF5;}
	.st13{fill:url(#SVGID_9_);}
	.st14{fill:url(#SVGID_10_);}
	.st15{clip-path:url(#SVGID_12_);fill:url(#SVGID_13_);}
	.st16{fill:url(#SVGID_14_);}
	.st17{clip-path:url(#SVGID_16_);fill:url(#SVGID_17_);}
	.st18{fill:#C6C6C6;}
	.st19{clip-path:url(#SVGID_19_);}
	.st20{fill:url(#SVGID_20_);}
	.st21{clip-path:url(#SVGID_22_);fill:url(#SVGID_23_);}
	.st22{clip-path:url(#SVGID_25_);}
	.st23{fill:url(#SVGID_26_);}
	.st24{clip-path:url(#SVGID_28_);fill:url(#SVGID_29_);}
	.st25{clip-path:url(#SVGID_31_);}
	.st26{fill:url(#SVGID_32_);}
	.st27{clip-path:url(#SVGID_34_);fill:url(#SVGID_35_);}
	.st28{clip-path:url(#SVGID_37_);}
	.st29{fill:url(#SVGID_38_);}
	.st30{clip-path:url(#SVGID_40_);fill:url(#SVGID_41_);}
	.st31{clip-path:url(#SVGID_43_);}
	.st32{fill:url(#SVGID_44_);}
	.st33{stroke:#000000;stroke-width:5;stroke-miterlimit:10;}
	.st34{fill:url(#SVGID_45_);stroke:#000000;stroke-width:5;stroke-miterlimit:10;}
	.st35{opacity:0.5;fill:url(#SVGID_46_);}
	.st36{fill:url(#SVGID_47_);}
	.st37{fill:url(#SVGID_48_);}
</style>
<g class="st1">
	<linearGradient id="SVGID_2_" gradientUnits="userSpaceOnUse" x1="2739.282" y1="48.8076" x2="2739.282" y2="763.3442">
		<stop  offset="0.5" style="stop-color:#000000"/>
		<stop  offset="1" style="stop-color:#773CA2"/>
	</linearGradient>
	<path style="opacity:0.5;fill:url(#SVGID_2_);" d="M5478.56,527.9l-195.88-195.88c-10.24-10.24-26.84-10.24-37.08,0l-464.58,464.58
		l141.31,141.31H3566.7l257.1-257.1l-464.58-464.58c-10.24-10.24-26.84-10.24-37.08,0l-464.58,464.58l257.1,257.1H1838.2
		l103.83-103.83L1477.44,369.5c-10.24-10.24-26.84-10.24-37.08,0L975.78,834.08l103.83,103.83H497.27l55.94-55.94L88.63,417.39
		c-10.24-10.24-26.84-10.24-37.08,0L0,468.93v772.51h5478.56v-176.14V527.9z"/>
	<linearGradient id="SVGID_3_" gradientUnits="userSpaceOnUse" x1="2739.2817" y1="38.0111" x2="2739.2817" y2="1109.1388">
		<stop  offset="0.2945" style="stop-color:#000000"/>
		<stop  offset="1" style="stop-color:#7B3FA7"/>
	</linearGradient>
	<path style="fill:url(#SVGID_3_);" d="M5476.84,960.52l-464.63-464.63c-10.24-10.24-26.84-10.24-37.08,0l-319.38,319.38
		L3890.74,50.25c-10.24-10.24-26.84-10.24-37.08,0l-682.73,682.73l-448.29-448.29c-10.24-10.24-26.84-10.24-37.08,0L2339.2,631.04
		l-135.16-135.16c-10.24-10.24-26.84-10.24-37.08,0l-464.63,464.63h-3.8l-347.49-347.49c-10.24-10.24-26.84-10.24-37.08,0
		L1177.6,749.38L712.91,284.69c-10.24-10.24-26.84-10.24-37.08,0L0,960.52v280.93h5478.56V960.52H5476.84z M3398.44,960.5
		l13.82,0.02h-13.8L3398.44,960.5z"/>
</g>
</svg>
