<svg width="206" height="70" viewBox="0 0 206 70" fill="none" xmlns="http://www.w3.org/2000/svg">
<path fill-rule="evenodd" clip-rule="evenodd" d="M34.8909 0C15.5823 0 0 15.6311 0 35C0 54.2763 15.5823 70 34.8909 70C54.107 70 69.7818 54.2763 69.7818 35C69.7818 15.6311 54.107 0 34.8909 0ZM52.6289 52.7008C47.8556 57.489 41.6042 60.0838 34.8909 60.0838C28.1775 60.0838 21.9261 57.4581 17.1529 52.7008C12.3796 48.0362 9.79285 41.6417 9.79285 35C9.79285 28.2657 12.4104 21.902 17.1529 17.2065C21.9261 12.4184 28.1467 9.82348 34.8909 9.82348C41.6042 9.82348 47.8556 12.4492 52.6289 17.2065C57.4021 21.8711 59.8965 28.2657 59.8965 35C59.8965 41.6417 57.3713 48.0053 52.6289 52.7008ZM193.732 29.4087V61.5358V67.8686H203.063V61.5358V29.4087V22.798H193.732V29.4087ZM180.336 11.8933H132.635V29.1926H187.05L166.294 67.8686L155.731 67.8069L171.344 38.738H123.119V2.34789H180.336V11.8933ZM96.4812 2.34789H87.0579H77.727V11.986V67.8686H87.0579V11.986H92.2007L122.164 67.8686L132.727 67.8069L97.6207 2.34789H96.4812ZM24.7275 33.958L34.8965 23.7571L45.0656 33.958L34.8965 44.1588L24.7275 33.958ZM100.612 46.1229L92.9909 53.7681L100.612 61.4133L108.234 53.7681L100.612 46.1229ZM190.757 9.82648L198.379 2.18131L206 9.82648L198.379 17.4717L190.757 9.82648Z" fill="#D9ADFF"/>
</svg>
