<svg width="465" height="348" viewBox="0 0 465 348" fill="none" xmlns="http://www.w3.org/2000/svg">
<path d="M127 103C127 46.1147 173.115 0 230 0V0C286.885 0 333 46.1147 333 103V192H127V103Z" fill="#D9ADFF"/>
<path d="M136 104C136 52.0852 178.085 10 230 10V10C281.915 10 324 52.0852 324 104V186H136V104Z" fill="white"/>
<path d="M127 186L0 347.5H465L333 186H127Z" fill="#D9ADFF"/>
<path d="M217.629 186L211.563 163.52L229.761 154.957L244.391 163.52L236.184 186L229.761 165.661H226.907L217.629 186Z" fill="#FFBEEB"/>
<circle cx="227.712" cy="102.147" r="7.1364" fill="#FFBEEB"/>
<path d="M227.711 90.7294L229.565 93.9407H225.857L227.711 90.7294Z" fill="#FFBEEB"/>
<path d="M227.711 113.566L229.565 110.354H225.857L227.711 113.566Z" fill="#FFBEEB"/>
<path d="M216.293 102.148L219.504 100.293V104.002L216.293 102.148Z" fill="#FFBEEB"/>
<path d="M239.13 102.148L235.919 100.294V104.002L239.13 102.148Z" fill="#FFBEEB"/>
<path d="M219.637 94.0738L223.219 95.0336L220.597 97.6557L219.637 94.0738Z" fill="#FFBEEB"/>
<path d="M235.785 110.222L234.826 106.64L232.204 109.262L235.785 110.222Z" fill="#FFBEEB"/>
<path d="M219.638 110.221L220.597 106.639L223.219 109.261L219.638 110.221Z" fill="#FFBEEB"/>
<path d="M235.785 94.0738L232.203 95.0335L234.825 97.6556L235.785 94.0738Z" fill="#FFBEEB"/>
<path d="M229.799 172.345L205.493 164.989C204.063 164.556 203.17 163.137 203.398 161.66L209.97 119.097C210.271 117.146 211.95 115.707 213.923 115.707H241.343C243.306 115.707 244.978 117.131 245.292 119.068L252.202 161.788C252.432 163.208 251.621 164.591 250.269 165.085L230.432 172.327C230.228 172.401 230.006 172.408 229.799 172.345Z" fill="#EA5EBF"/>
<mask id="mask0" mask-type="alpha" maskUnits="userSpaceOnUse" x="136" y="10" width="188" height="176">
<path d="M136 104C136 52.0852 178.085 10 230 10V10C281.915 10 324 52.0852 324 104V186H136V104Z" fill="white"/>
</mask>
<g mask="url(#mask0)">
<rect x="126" y="3" width="198" height="184" fill="white"/>
<circle opacity="0.16" cx="230" cy="50" r="74" fill="#D9ADFF"/>
<circle cx="229.999" cy="49.9995" r="15.468" fill="#D9ADFF"/>
<path d="M230 25.2513L234.018 32.2119H225.981L230 25.2513Z" fill="#D9ADFF"/>
<path d="M230 74.7489L234.018 67.7883H225.981L230 74.7489Z" fill="#D9ADFF"/>
<path d="M205.251 50L212.212 45.9813V54.0187L205.251 50Z" fill="#D9ADFF"/>
<path d="M254.748 50.0001L247.787 45.9814V54.0188L254.748 50.0001Z" fill="#D9ADFF"/>
<path d="M212.499 32.5001L220.263 34.5803L214.579 40.2636L212.499 32.5001Z" fill="#D9ADFF"/>
<path d="M247.5 67.5009L245.42 59.7374L239.736 65.4207L247.5 67.5009Z" fill="#D9ADFF"/>
<path d="M212.5 67.4994L214.58 59.7359L220.264 65.4192L212.5 67.4994Z" fill="#D9ADFF"/>
<path d="M247.499 32.5L239.735 34.5802L245.419 40.2635L247.499 32.5Z" fill="#D9ADFF"/>
<path d="M230.111 45.8L225.616 50.3083L230.111 54.8167L234.605 50.3084L230.111 45.8Z" fill="white"/>
<path d="M152.5 137L187.574 197.75H117.426L152.5 137Z" fill="#B570F2"/>
<path d="M243.5 137L278.574 197.75H208.426L243.5 137Z" fill="#B570F2"/>
<path d="M307.5 124L342.574 187.75H272.426L307.5 124Z" fill="#B570F2"/>
<path d="M180.5 128L215.574 188.75H145.426L180.5 128Z" fill="#D9ADFF"/>
<path d="M208.5 145L243.574 205.75H173.426L208.5 145Z" fill="#D9ADFF"/>
<path d="M270.5 149L305.574 209.75H235.426L270.5 149Z" fill="#D9ADFF"/>
</g>
<path d="M219.629 186L213.563 163.52L231.761 154.957L246.391 163.52L238.184 186L231.761 165.661H228.907L219.629 186Z" fill="#FFBEEB"/>
<circle cx="229.712" cy="102.147" r="7.1364" fill="#FFBEEB"/>
<path d="M229.711 90.7294L231.565 93.9407H227.857L229.711 90.7294Z" fill="#FFBEEB"/>
<path d="M229.711 113.566L231.565 110.354H227.857L229.711 113.566Z" fill="#FFBEEB"/>
<path d="M218.293 102.148L221.504 100.293V104.002L218.293 102.148Z" fill="#FFBEEB"/>
<path d="M241.13 102.148L237.919 100.294V104.002L241.13 102.148Z" fill="#FFBEEB"/>
<path d="M221.637 94.0738L225.219 95.0336L222.597 97.6557L221.637 94.0738Z" fill="#FFBEEB"/>
<path d="M237.785 110.222L236.826 106.64L234.204 109.262L237.785 110.222Z" fill="#FFBEEB"/>
<path d="M221.638 110.221L222.597 106.639L225.219 109.261L221.638 110.221Z" fill="#FFBEEB"/>
<path d="M237.785 94.0738L234.203 95.0335L236.825 97.6556L237.785 94.0738Z" fill="#FFBEEB"/>
<path d="M231.799 172.345L207.493 164.989C206.063 164.556 205.17 163.137 205.398 161.66L211.97 119.097C212.271 117.146 213.95 115.707 215.923 115.707H243.343C245.306 115.707 246.978 117.131 247.292 119.068L254.202 161.788C254.432 163.208 253.621 164.591 252.269 165.085L232.432 172.327C232.228 172.401 232.006 172.408 231.799 172.345Z" fill="#EA5EBF"/>
</svg>
