<svg width="154" height="154" viewBox="0 0 154 154" fill="none" xmlns="http://www.w3.org/2000/svg">
<ellipse cx="76.9997" cy="76.9986" rx="33.6718" ry="33.6718" fill="white"/>
<path d="M76.9992 23.1247L85.7474 38.277H68.2511L76.9992 23.1247Z" fill="white"/>
<path d="M76.9992 130.875L85.7474 115.723H68.2511L76.9992 130.875Z" fill="white"/>
<path d="M23.124 76.9993L38.2763 68.2512V85.7475L23.124 76.9993Z" fill="white"/>
<path d="M130.874 76.9993L115.721 68.2511V85.7475L130.874 76.9993Z" fill="white"/>
<path d="M38.9039 38.9049L55.8041 43.4333L43.4323 55.8051L38.9039 38.9049Z" fill="white"/>
<path d="M115.095 115.097L110.566 98.1969L98.1946 110.569L115.095 115.097Z" fill="white"/>
<path d="M38.9052 115.094L43.4336 98.194L55.8054 110.566L38.9052 115.094Z" fill="white"/>
<path d="M115.094 38.905L98.1942 43.4334L110.566 55.8052L115.094 38.905Z" fill="white"/>
</svg>
