<svg width="51" height="51" viewBox="0 0 51 51" fill="none" xmlns="http://www.w3.org/2000/svg">
<circle cx="10.4167" cy="25.4164" r="1.96061" fill="#F1C40F"/>
<circle cx="40.4167" cy="25.4164" r="1.96061" fill="#F1C40F"/>
<circle cx="25.4167" cy="10.4164" r="1.96061" fill="#F1C40F"/>
<circle cx="25.4167" cy="40.4164" r="1.96061" fill="#F1C40F"/>
<path d="M38.1841 4.24264C40.5273 1.8995 44.3263 1.8995 46.6694 4.24264C49.0125 6.58579 49.0125 10.3848 46.6694 12.7279L33.9415 25.4558L25.4562 16.9706L38.1841 4.24264Z" fill="#F1C40F"/>
<path d="M12.728 46.669C10.3848 49.0121 6.58586 49.0121 4.24271 46.669C1.89957 44.3258 1.89957 40.5268 4.24271 38.1837L16.9706 25.4558L25.4559 33.9411L12.728 46.669Z" fill="#F1C40F"/>
<path d="M4.24264 12.7279C1.8995 10.3847 1.8995 6.58573 4.24264 4.24259C6.58579 1.89944 10.3848 1.89944 12.7279 4.24259L25.4558 16.9705L16.9706 25.4558L4.24264 12.7279Z" fill="#F1C40F"/>
<path d="M46.6695 38.1838C49.0126 40.5269 49.0126 44.3259 46.6695 46.669C44.3263 49.0122 40.5273 49.0122 38.1842 46.669L25.4563 33.9411L33.9415 25.4558L46.6695 38.1838Z" fill="#F1C40F"/>
</svg>
