<svg width="78" height="19" viewBox="0 0 78 19" fill="none" xmlns="http://www.w3.org/2000/svg">
<path fill-rule="evenodd" clip-rule="evenodd" d="M20.8223 2.70183C20.6108 2.89481 20.4377 3.1457 20.3224 3.41588C20.207 3.68606 20.1494 3.99484 20.1494 4.32292H17.9191C17.9191 3.72466 18.0153 3.1457 18.246 2.62463C18.4767 2.10356 18.7843 1.64039 19.1881 1.25442C19.5918 0.849145 20.0725 0.540365 20.63 0.328079C21.1876 0.115793 21.8028 0 22.4565 0C23.1294 0 23.7254 0.115793 24.2829 0.328079C24.8405 0.559664 25.3019 0.868444 25.7057 1.25442C26.1094 1.64039 26.417 2.10356 26.6477 2.62463C26.8592 3.1457 26.9746 3.70536 26.9746 4.32292H24.7444C24.7444 3.99484 24.6674 3.68606 24.5521 3.41588C24.4367 3.1457 24.2637 2.91411 24.0522 2.70183C23.8407 2.48954 23.5908 2.33515 23.3216 2.21936C23.0332 2.10356 22.7449 2.04567 22.4372 2.04567C22.1296 2.04567 21.822 2.10356 21.5528 2.21936C21.2837 2.33515 21.0337 2.48954 20.8223 2.70183ZM16.6882 6.46516V8.25994H8.57487L13.5736 1.87206H9.22855V0.0579746H17.1112L12.1317 6.46516H16.6882ZM20.6108 13.181C20.0532 12.9495 19.5918 12.6407 19.1881 12.2547C18.8035 11.8494 18.4575 11.4056 18.246 10.8845C18.0345 10.3634 17.9191 9.80375 17.9191 9.18619C17.9191 8.58793 18.0153 8.00897 18.246 7.4879C18.4767 6.96684 18.7843 6.52297 19.1881 6.11769C19.5918 5.71242 20.0532 5.40364 20.6108 5.19135C21.1683 4.97907 21.7643 4.86327 22.4372 4.86327C23.0909 4.86327 23.7062 4.97907 24.2637 5.19135C24.8213 5.42294 25.3019 5.73172 25.7057 6.11769C26.1094 6.50367 26.417 6.96684 26.6477 7.4879C26.8592 8.00897 26.9746 8.56863 26.9746 9.18619C26.9746 9.78446 26.8784 10.3634 26.6477 10.8845C26.417 11.4056 26.1094 11.8687 25.7057 12.2547C25.3019 12.66 24.8213 12.9688 24.2637 13.181C23.7062 13.3933 23.0909 13.5091 22.4372 13.5091C21.7643 13.5091 21.1683 13.3933 20.6108 13.181ZM20.8223 7.5458C20.6108 7.73879 20.4377 7.98967 20.3224 8.25985C20.207 8.54934 20.1494 8.83882 20.1301 9.16689C20.1301 9.49497 20.207 9.80375 20.3224 10.0739C20.4377 10.3441 20.6108 10.5757 20.8223 10.788C21.0337 11.0003 21.2837 11.1547 21.5528 11.2705C21.8412 11.3863 22.1296 11.4441 22.4372 11.4441C22.7449 11.4441 23.0525 11.3863 23.3216 11.2705C23.5908 11.1547 23.8407 11.0003 24.0522 10.788C24.2637 10.595 24.4367 10.3441 24.5521 10.0739C24.6867 9.80375 24.7444 9.49497 24.7444 9.16689C24.7444 8.83882 24.6674 8.53004 24.5521 8.25985C24.4367 7.98967 24.2637 7.75809 24.0522 7.5458C23.8407 7.33351 23.5908 7.17912 23.3216 7.06333C23.0332 6.94754 22.7449 6.88964 22.4372 6.88964C22.1296 6.88964 21.822 6.94754 21.5528 7.06333C21.2837 7.17912 21.0337 7.33351 20.8223 7.5458ZM6.63295 10.2862H0V18.5074H2.13408V15.7863H6.63295C7.55579 15.7863 8.24793 15.5547 8.7478 15.0722C9.22845 14.5898 9.47839 13.9143 9.47839 13.0459C9.47839 12.1774 9.22845 11.502 8.7478 11.0195C8.24793 10.537 7.55579 10.2862 6.63295 10.2862ZM6.0754 14.0687H2.13408V12.023H6.09462C6.88289 12.023 7.2674 12.3704 7.2674 13.0459C7.24818 13.7213 6.86366 14.0687 6.0754 14.0687ZM16.1504 14.3582C16.458 13.9722 16.5926 13.4704 16.5926 12.8336C16.5926 12.4862 16.5349 12.1581 16.4195 11.8493C16.3042 11.5406 16.1504 11.2704 15.9197 11.0388C15.7082 10.8072 15.4198 10.6142 15.0737 10.4984C14.7277 10.3633 14.3431 10.3054 13.8817 10.3054H10.5941V18.5074H12.7282V15.3424L14.7469 18.5074H17.4001L14.8238 15.1301C15.4198 14.995 15.862 14.7442 16.1504 14.3582ZM14.0932 13.702C13.8625 13.8757 13.5549 13.9722 13.1319 13.9722H12.7282V11.9458H13.1319C13.5549 11.9458 13.8817 12.0423 14.0932 12.216C14.3239 12.3897 14.4201 12.6406 14.4201 12.9687C14.4393 13.2774 14.3239 13.5283 14.0932 13.702ZM35.0488 10.2862H28.1852V18.5074H30.3192V15.7863H35.068C35.9909 15.7863 36.683 15.5547 37.1829 15.0722C37.6635 14.5898 37.9135 13.9143 37.9135 13.0459C37.9135 12.1774 37.6635 11.502 37.1829 11.0195C36.6638 10.537 35.9524 10.2862 35.0488 10.2862ZM34.4913 14.0687H30.3V12.023H34.4913C35.2795 12.023 35.6641 12.3704 35.6641 13.0459C35.6641 13.7213 35.2795 14.0687 34.4913 14.0687ZM44.0087 15.4968C44.028 15.2459 44.028 14.995 44.028 14.7635H44.0472V10.2862H46.162V15.0529C46.162 16.3267 45.8736 17.2723 45.2969 17.8513C44.7009 18.4495 43.8165 18.739 42.6052 18.739C41.394 18.739 40.4904 18.4302 39.9136 17.8513C39.3176 17.2723 39.0292 16.3267 39.0292 15.0529V10.2862H41.1633V14.7635C41.1633 14.995 41.1633 15.2459 41.1825 15.4968C41.1825 15.7477 41.2402 15.96 41.3363 16.1723C41.4132 16.3846 41.567 16.5389 41.7593 16.674C41.9516 16.8091 42.2399 16.867 42.586 16.867C42.9513 16.867 43.2205 16.8091 43.4127 16.674C43.605 16.5389 43.7396 16.3846 43.8357 16.1723C43.9318 15.9793 43.9895 15.7477 44.0087 15.4968ZM49.9689 10.2862H47.854V18.5074H52.526V16.6933H49.9689V10.2862ZM57.4091 13.4898L57.4091 13.4898C58.1013 13.7214 58.6204 14.0302 58.9857 14.3968C59.3125 14.7828 59.4663 15.3039 59.4663 15.9214C59.4663 16.346 59.3894 16.7127 59.2548 17.0601C59.1202 17.3881 58.9088 17.6776 58.6396 17.9285C58.3704 18.1601 58.0436 18.3531 57.6398 18.4882C57.2361 18.6233 56.7939 18.6812 56.294 18.6812C55.2751 18.6812 54.3138 18.3724 53.4294 17.7548L54.333 16.0372C54.6406 16.3267 54.9674 16.539 55.2751 16.6741C55.5827 16.8092 55.8903 16.8864 56.1979 16.8864C56.544 16.8864 56.7939 16.8092 56.9669 16.6548C57.14 16.5004 57.2169 16.3267 57.2169 16.1144C57.2169 15.9793 57.1977 15.8828 57.1592 15.7863C57.1207 15.6899 57.0438 15.6127 56.9477 15.5355C56.8324 15.4583 56.6978 15.3811 56.544 15.3232C56.4637 15.2963 56.3792 15.2653 56.2888 15.2321L56.2887 15.232L56.2885 15.232C56.1841 15.1936 56.0715 15.1522 55.948 15.1109L55.1405 14.8214C54.8713 14.7056 54.6406 14.5705 54.4291 14.3968C54.2176 14.2232 54.0638 14.0109 53.9292 13.7407C53.7947 13.4705 53.737 13.1424 53.737 12.7371C53.737 12.3319 53.7947 11.9652 53.9292 11.6371C54.0638 11.309 54.2369 11.0196 54.4868 10.788C54.7175 10.5564 55.0251 10.3827 55.3712 10.2476C55.7173 10.1125 56.1018 10.0546 56.544 10.0546C56.9477 10.0546 57.3707 10.1125 57.8129 10.2283C58.2551 10.3441 58.678 10.5178 59.0818 10.7301L58.2359 12.3898C58.0051 12.1968 57.7744 12.0617 57.5437 11.9652C57.313 11.8687 57.0823 11.8301 56.8708 11.8301C56.6016 11.8301 56.3709 11.888 56.1979 12.0231C56.0249 12.1582 55.9287 12.3319 55.9287 12.5442C55.9287 12.6985 55.9672 12.8143 56.0633 12.9108C56.1594 13.0073 56.2748 13.0845 56.4094 13.1617C56.5632 13.2196 56.717 13.2775 56.89 13.3354C57.063 13.374 57.2361 13.4319 57.4091 13.4898ZM65.3101 11.3284C64.9623 11.3284 64.6144 11.3809 64.25 11.4359L64.195 11.4441C64.1151 11.4551 64.0351 11.4667 63.9549 11.4784C63.6108 11.5285 63.2619 11.5792 62.8877 11.5792C62.7339 11.5792 62.5993 11.5792 62.4647 11.5599L59.8307 18.5075H62.0994L62.58 17.0794H65.6177L66.0984 18.5075H68.3671L65.6562 11.3477C65.5408 11.3284 65.4255 11.3284 65.3101 11.3284ZM63.1376 15.4583L64.0989 12.7179L65.0602 15.4583H63.1376ZM76.7311 11.3284C77.1348 11.7144 77.4425 12.1776 77.6732 12.6987C77.8846 13.2197 78 13.7794 78 14.3969C78 14.9952 77.9039 15.5742 77.6732 16.0952C77.4425 16.6163 77.1348 17.0602 76.7311 17.4655C76.3273 17.8707 75.8467 18.1795 75.2891 18.3918C74.7316 18.6041 74.1164 18.7199 73.4627 18.7199C72.7898 18.7199 72.1938 18.6041 71.6362 18.3918C71.0787 18.1602 70.6172 17.8514 70.2135 17.4655C69.8098 17.0795 69.5021 16.6163 69.2714 16.0952C69.0599 15.5742 68.9446 15.0145 68.9446 14.3969C68.9446 13.7987 69.0407 13.2197 69.2714 12.6987C69.5021 12.1776 69.829 11.7337 70.2135 11.3284C70.598 10.9232 71.0787 10.6144 71.6362 10.4021C72.1938 10.1898 72.7898 10.074 73.4627 10.074C74.1164 10.074 74.7316 10.1898 75.2891 10.4021C75.8467 10.6337 76.3273 10.9425 76.7311 11.3284ZM75.0969 16.018C75.3084 15.8251 75.4814 15.5742 75.5968 15.304C75.7121 15.0338 75.7698 14.725 75.789 14.3969C75.789 14.0689 75.7121 13.7601 75.5968 13.4899C75.4814 13.2197 75.3084 12.9881 75.0969 12.7759C74.8854 12.5636 74.6355 12.4092 74.3663 12.2934C74.0971 12.1776 73.7895 12.1197 73.4819 12.1197C73.1743 12.1197 72.8667 12.1776 72.5975 12.2934C72.3284 12.4092 72.0784 12.5636 71.8669 12.7759C71.6554 12.9688 71.4824 13.2197 71.3671 13.4899C71.2325 13.7601 71.1748 14.0689 71.1748 14.3969C71.1748 14.725 71.2517 15.0338 71.3671 15.304C71.4824 15.5742 71.6554 15.8058 71.8669 16.018C72.0784 16.2303 72.3284 16.3847 72.5975 16.5005C72.8859 16.6163 73.1743 16.6742 73.4819 16.6742C73.7895 16.6742 74.0971 16.6163 74.3663 16.5005C74.6355 16.3847 74.8854 16.2303 75.0969 16.018ZM66.2337 10.8268V9.28264C65.4741 9.06067 64.7819 9.17166 64.0897 9.28264C63.3974 9.39363 62.7052 9.50461 61.9457 9.28264V10.8268C62.7212 11.0506 63.4185 10.9408 64.114 10.8313C64.7981 10.7236 65.4804 10.6162 66.2337 10.8268ZM30.2997 3.24227L34.837 8.25994H36.9519V0.0579746H34.837V5.07565L30.2997 0.0579746H28.1656V8.25994H30.2997V3.24227ZM37.9142 8.25994L41.0288 0.0579746H43.3359L46.4505 8.25994H44.1818L43.7012 6.83184H40.6635L40.1828 8.25994H37.9142ZM42.1823 2.47032L41.221 5.21074H43.1436L42.1823 2.47032ZM59.0048 7.93187C59.4855 7.70028 59.9277 7.4108 60.2929 7.02482C60.6582 6.63885 60.9466 6.21428 61.1581 5.71251C61.3696 5.21074 61.4657 4.68968 61.4657 4.16861C61.4657 3.62824 61.3696 3.10718 61.1581 2.60541C60.9466 2.10364 60.6582 1.67907 60.2929 1.29309C59.9277 0.926418 59.5047 0.617638 59.0048 0.386053C58.5242 0.154468 57.9858 0.0579746 57.4283 0.0579746H51.0645V8.25994H57.4283C58.0051 8.25994 58.5242 8.14415 59.0048 7.93187ZM53.1986 6.46516V1.87206H53.6792C54.0445 1.87206 57.5821 1.92995 57.8705 2.04575C58.1589 2.16154 58.4088 2.31593 58.6011 2.52821C58.7933 2.7405 58.9471 2.97209 59.0625 3.26157C59.1778 3.55105 59.2163 3.84053 59.2163 4.16861C59.2163 4.49669 59.1586 4.80547 59.0625 5.09495C58.9664 5.36513 58.8125 5.61601 58.6011 5.8283C58.4088 6.04059 58.1589 6.19498 57.8705 6.31077C57.5821 6.42656 54.0445 6.48446 53.66 6.48446H53.1986V6.46516ZM64.9448 6.46516H69.4245V8.25994H62.8108V0.0579746H69.4245V1.87206H64.9448V3.24227H69.2899V5.03705H64.9448V6.46516ZM24.5713 15.1882C24.456 15.4584 24.2829 15.7093 24.0714 15.9022C23.86 16.1145 23.61 16.2689 23.3409 16.3847C23.0717 16.5005 22.7641 16.5584 22.4565 16.5584C22.1489 16.5584 21.8412 16.5005 21.5721 16.3847C21.3029 16.2689 21.053 16.1145 20.8415 15.9022C20.63 15.69 20.457 15.4584 20.3416 15.1882C20.2263 14.918 20.1494 14.6092 20.1494 14.2812H17.9191C17.9191 14.8987 18.0345 15.4584 18.246 15.9794C18.4767 16.5005 18.7843 16.9637 19.1881 17.3497C19.5918 17.7356 20.0532 18.0444 20.6108 18.276C21.1683 18.4883 21.7643 18.6041 22.4372 18.6041C23.0909 18.6041 23.7062 18.4883 24.2637 18.276C24.8213 18.0637 25.3019 17.7549 25.7057 17.3497C26.1094 16.9637 26.417 16.5005 26.6477 15.9794C26.8784 15.4584 26.9746 14.8794 26.9746 14.2812H24.7444C24.7636 14.6092 24.6867 14.8987 24.5713 15.1882Z" fill="white"/>
</svg>
