<svg width="59" height="35" viewBox="0 0 59 35" fill="none" xmlns="http://www.w3.org/2000/svg">
<path d="M1.26848 8.9369V15.0778H0V0H5.11519C6.67587 0 7.90654 0.400417 8.8072 1.20125C9.71474 2.00209 10.1685 3.10323 10.1685 4.50469C10.1685 5.91996 9.73192 7.0142 8.85877 7.78742C7.99248 8.55374 6.73431 8.9369 5.08425 8.9369H1.26848ZM1.26848 7.85991H5.11519C6.34586 7.85991 7.28433 7.5665 7.93061 6.97969C8.57688 6.39287 8.90002 5.57477 8.90002 4.5254C8.90002 3.48294 8.57688 2.65449 7.93061 2.04006C7.29121 1.41872 6.38024 1.10115 5.19769 1.08734H1.26848V7.85991Z" fill="black"/>
<path d="M14.2937 14.0008H21.7086V15.0778H13.0149V0H14.2937V14.0008Z" fill="black"/>
<path d="M32.465 10.8527H25.6481L24.1012 15.0778H22.7708L28.4532 0H29.6599L35.3422 15.0778H34.0222L32.465 10.8527ZM26.04 9.76535H32.0628L29.0514 1.55334L26.04 9.76535Z" fill="black"/>
<path d="M46.408 1.08734H41.2618V15.0778H39.9934V1.08734H34.8575V0H46.408V1.08734Z" fill="black"/>
<path d="M56.1227 10.8527H49.3059L47.759 15.0778H46.4286L52.111 0H53.3176L59 15.0778H57.68L56.1227 10.8527ZM49.6978 9.76535H55.7205L52.7091 1.55334L49.6978 9.76535Z" fill="black"/>
<path d="M7.49261 29.1615H2.56596V34.2457H0V21.8042H8.10844V23.8806H2.56596V27.0936H7.49261V29.1615Z" fill="black"/>
<path d="M19.8263 28.307C19.8263 29.5317 19.6096 30.6056 19.1763 31.5284C18.7429 32.4513 18.1214 33.1634 17.3117 33.6647C16.5077 34.166 15.5839 34.4166 14.5404 34.4166C13.5084 34.4166 12.5875 34.1688 11.7778 33.6732C10.9681 33.1776 10.3408 32.4712 9.89606 31.5541C9.45129 30.6312 9.22606 29.5716 9.22035 28.3753V27.7601C9.22035 26.5353 9.43989 25.4586 9.87895 24.5301C10.3237 23.5958 10.9481 22.8809 11.7521 22.3853C12.5618 21.884 13.4856 21.6333 14.5233 21.6333C15.5611 21.6333 16.482 21.884 17.286 22.3853C18.0957 22.8809 18.7201 23.5958 19.1592 24.5301C19.6039 25.4586 19.8263 26.5324 19.8263 27.7515V28.307ZM17.2262 27.743C17.2262 26.4384 16.9924 25.4472 16.5248 24.7693C16.0572 24.0914 15.3901 23.7525 14.5233 23.7525C13.6623 23.7525 12.998 24.0886 12.5304 24.7608C12.0629 25.4273 11.8262 26.4071 11.8205 27.7003V28.307C11.8205 29.5773 12.0543 30.5628 12.5219 31.2635C12.9895 31.9642 13.6623 32.3146 14.5404 32.3146C15.4015 32.3146 16.0629 31.9785 16.5248 31.3063C16.9867 30.6283 17.2205 29.6428 17.2262 28.3497V27.743Z" fill="black"/>
<path d="M26.3011 29.6912H24.2569V34.2457H21.6909V21.8042H26.3182C27.7894 21.8042 28.9241 22.1318 29.7224 22.7869C30.5207 23.442 30.9198 24.3677 30.9198 25.564C30.9198 26.4128 30.7345 27.122 30.3639 27.6917C29.9989 28.2557 29.443 28.7057 28.696 29.0418L31.3903 34.1261V34.2457H28.6361L26.3011 29.6912ZM24.2569 27.6148H26.3268C26.9711 27.6148 27.47 27.4525 27.8236 27.1277C28.1771 26.7973 28.3539 26.3444 28.3539 25.7691C28.3539 25.1823 28.1857 24.7209 27.8492 24.3848C27.5185 24.0487 27.0082 23.8806 26.3182 23.8806H24.2569V27.6148Z" fill="black"/>
<path d="M36.2314 21.8042L39.4303 30.8277L42.6121 21.8042H45.982V34.2457H43.4075V30.8448L43.6641 24.9744L40.3027 34.2457H38.5407L35.1879 24.9829L35.4445 30.8448V34.2457H32.8785V21.8042H36.2314Z" fill="black"/>
<path d="M55.4077 31.6822H50.9087L50.0533 34.2457H47.3249L51.9607 21.8042H54.3385L59 34.2457H56.2715L55.4077 31.6822ZM51.6015 29.6058H54.7148L53.1496 24.9488L51.6015 29.6058Z" fill="black"/>
</svg>
