<svg width="690" height="514" viewBox="0 0 690 514" fill="none" xmlns="http://www.w3.org/2000/svg">
<g opacity="0.6">
<path d="M120.302 187.211L-367.788 675.302L-855.878 187.211L-367.788 -300.879L120.302 187.211Z" stroke="#4D068A" stroke-width="3"/>
<path d="M-290.787 578.525L-682.1 187.212L-290.787 -204.101L100.526 187.212L-290.787 578.525Z" stroke="#771F5C"/>
<path d="M-820.18 265.76L-141.207 944.733L537.767 265.76L-141.207 -413.214L-820.18 265.76Z" stroke="#4D068A" stroke-miterlimit="10"/>
<path d="M-141.214 -438.152L-845.151 265.785L-141.214 969.722L562.723 265.785L-141.214 -438.152Z" stroke="#4D068A" stroke-width="1.25" stroke-miterlimit="10"/>
<path d="M-141.249 -463.115L-870.15 265.785L-141.249 994.686L587.652 265.785L-141.249 -463.115Z" stroke="#4D068A" stroke-width="1.5" stroke-miterlimit="10"/>
<path d="M-141.216 -488.079L-895.08 265.785L-141.216 1019.65L612.648 265.785L-141.216 -488.079Z" stroke="#4D068A" stroke-width="1.75" stroke-miterlimit="10"/>
<path d="M-141.215 -513.08L-920.08 265.785L-141.215 1044.65L637.65 265.785L-141.215 -513.08Z" stroke="#4D068A" stroke-width="2" stroke-miterlimit="10"/>
<path d="M-141.178 -538.043L-945.006 265.785L-141.178 1069.61L662.651 265.785L-141.178 -538.043Z" stroke="#4D068A" stroke-width="2.15" stroke-miterlimit="10"/>
<path d="M-970 265.79L-141.208 1094.58L687.584 265.79L-141.208 -563.003L-970 265.79Z" stroke="#4D068A" stroke-width="2.5" stroke-miterlimit="10"/>
</g>
</svg>
