<svg width="79" height="20" viewBox="0 0 79 20" fill="none" xmlns="http://www.w3.org/2000/svg">
<path d="M6.98869 10.7455H0.354736V18.968H2.48914V16.2465H6.98869C7.91168 16.2465 8.60392 16.0148 9.10387 15.5323C9.58459 15.0498 9.83457 14.3742 9.83457 13.5056C9.83457 12.637 9.58459 11.9615 9.10387 11.4789C8.60392 10.9964 7.91168 10.7455 6.98869 10.7455ZM6.43106 14.5286H2.48914V12.4826H6.45029C7.23867 12.4826 7.62325 12.8301 7.62325 13.5056C7.60402 14.1812 7.21944 14.5286 6.43106 14.5286Z" fill="#EA5EBF"/>
<path d="M16.5069 14.8181C16.8145 14.4321 16.9491 13.9302 16.9491 13.2933C16.9491 12.9459 16.8914 12.6177 16.7761 12.3089C16.6607 12.0001 16.5068 11.7299 16.2761 11.4982C16.0646 11.2666 15.7762 11.0736 15.43 10.9578C15.0839 10.8227 14.6993 10.7648 14.2378 10.7648H10.9497V18.968H13.0841V15.8025L15.1031 18.968H17.7567L15.1801 15.5902C15.7762 15.4551 16.2184 15.2042 16.5069 14.8181ZM14.4494 14.1619C14.2186 14.3356 13.911 14.4321 13.4879 14.4321H13.0841V12.4054H13.4879C13.911 12.4054 14.2378 12.5019 14.4494 12.6756C14.6801 12.8494 14.7763 13.1003 14.7763 13.4284C14.7955 13.7372 14.6801 13.9882 14.4494 14.1619Z" fill="#EA5EBF"/>
<path d="M19.545 12.7143C19.9488 13.1004 20.4103 13.4092 20.9679 13.6408C21.5256 13.8531 22.1217 13.9689 22.7947 13.9689C23.4484 13.9689 24.0638 13.8531 24.6214 13.6408C25.179 13.4285 25.6598 13.1197 26.0636 12.7143C26.4674 12.3283 26.775 11.8651 27.0058 11.3439C27.2365 10.8228 27.3327 10.2437 27.3327 9.64536C27.3327 9.0277 27.2173 8.46795 27.0058 7.94681C26.775 7.42566 26.4674 6.96242 26.0636 6.57639C25.6598 6.19035 25.179 5.88153 24.6214 5.64991C24.0638 5.43759 23.4484 5.32178 22.7947 5.32178C22.1217 5.32178 21.5256 5.43759 20.9679 5.64991C20.4103 5.86222 19.9488 6.17105 19.545 6.57639C19.1412 6.98172 18.8335 7.42566 18.6028 7.94681C18.372 8.46795 18.2759 9.047 18.2759 9.64536C18.2759 10.263 18.3913 10.8228 18.6028 11.3439C18.8143 11.8651 19.1604 12.309 19.545 12.7143ZM20.6795 8.71888C20.7949 8.44865 20.9679 8.19773 21.1794 8.00471C21.391 7.79239 21.6409 7.63798 21.9101 7.52217C22.1793 7.40636 22.487 7.34845 22.7947 7.34845C23.1023 7.34845 23.3908 7.40636 23.6792 7.52217C23.9484 7.63798 24.1984 7.79239 24.4099 8.00471C24.6214 8.21703 24.7945 8.44865 24.9098 8.71888C25.0252 8.9891 25.1021 9.29793 25.1021 9.62605C25.1021 9.95418 25.0444 10.263 24.9098 10.5332C24.7945 10.8035 24.6214 11.0544 24.4099 11.2474C24.1984 11.4597 23.9484 11.6141 23.6792 11.7299C23.41 11.8457 23.1023 11.9037 22.7947 11.9037C22.487 11.9037 22.1986 11.8457 21.9101 11.7299C21.6409 11.6141 21.391 11.4597 21.1794 11.2474C20.9679 11.0351 20.7949 10.8035 20.6795 10.5332C20.5641 10.263 20.4872 9.95418 20.4872 9.62605C20.5064 9.29793 20.5641 9.0084 20.6795 8.71888Z" fill="#EA5EBF"/>
<path d="M35.4089 10.7455H28.5442V18.968H30.6786V16.2465H35.4281C36.3511 16.2465 37.0433 16.0148 37.5433 15.5323C38.024 15.0498 38.274 14.3742 38.274 13.5056C38.274 12.637 38.024 11.9615 37.5433 11.4789C37.0241 10.9964 36.3127 10.7455 35.4089 10.7455ZM34.8513 14.5286H30.6594V12.4826H34.8513C35.6396 12.4826 36.0242 12.8301 36.0242 13.5056C36.0242 14.1812 35.6396 14.5286 34.8513 14.5286Z" fill="#EA5EBF"/>
<path d="M44.3887 15.2235C44.3887 15.4551 44.3887 15.706 44.3694 15.9569C44.3502 16.2079 44.2925 16.4395 44.1964 16.6325C44.1002 16.8448 43.9656 16.9992 43.7733 17.1343C43.5811 17.2695 43.3118 17.3274 42.9465 17.3274C42.6004 17.3274 42.3119 17.2695 42.1197 17.1343C41.9274 16.9992 41.7735 16.8448 41.6966 16.6325C41.6005 16.4202 41.5428 16.2079 41.5428 15.9569C41.5236 15.706 41.5236 15.4551 41.5236 15.2235V10.7455H39.3892V15.513C39.3892 16.7869 39.6776 17.7327 40.2737 18.3117C40.8506 18.8908 41.7543 19.1996 42.9657 19.1996C44.1771 19.1996 45.0617 18.9101 45.6578 18.3117C46.2346 17.7327 46.5231 16.7869 46.5231 15.513V10.7455H44.4079V15.2235H44.3887Z" fill="#EA5EBF"/>
<path d="M50.3305 10.7455H48.2153V18.968H52.888V17.1536H50.3305V10.7455Z" fill="#EA5EBF"/>
<path d="M57.7721 13.9496C57.5991 13.8917 57.426 13.8338 57.2529 13.7952C57.0799 13.7373 56.9261 13.6794 56.7722 13.6215C56.6376 13.5443 56.5222 13.4671 56.4261 13.3706C56.33 13.2741 56.2915 13.1582 56.2915 13.0038C56.2915 12.7915 56.3876 12.6178 56.5607 12.4827C56.7338 12.3476 56.9645 12.2897 57.2337 12.2897C57.4452 12.2897 57.676 12.3283 57.9067 12.4248C58.1375 12.5213 58.3682 12.6564 58.599 12.8494L59.445 11.1895C59.0412 10.9772 58.6182 10.8034 58.1759 10.6876C57.7337 10.5718 57.3106 10.5139 56.9068 10.5139C56.4646 10.5139 56.08 10.5718 55.7339 10.7069C55.3877 10.842 55.0801 11.0158 54.8493 11.2474C54.5994 11.479 54.4263 11.7685 54.2917 12.0967C54.1571 12.4248 54.0994 12.7915 54.0994 13.1968C54.0994 13.6022 54.1571 13.9303 54.2917 14.2005C54.4263 14.4708 54.5801 14.6831 54.7916 14.8568C55.0032 15.0305 55.2339 15.1656 55.5031 15.2814C55.7723 15.3779 56.0415 15.4744 56.3107 15.571C56.5415 15.6482 56.7338 15.7254 56.9068 15.7833C57.0607 15.8412 57.1953 15.9184 57.3106 15.9956C57.4068 16.0728 57.4837 16.15 57.5221 16.2465C57.5606 16.343 57.5798 16.4395 57.5798 16.5746C57.5798 16.787 57.5029 16.9607 57.3299 17.1151C57.1568 17.2695 56.9068 17.3467 56.5607 17.3467C56.253 17.3467 55.9454 17.2695 55.6377 17.1344C55.3301 16.9993 55.0032 16.787 54.6955 16.4974L53.7917 18.2153C54.6763 18.8329 55.6377 19.1418 56.6568 19.1418C57.1568 19.1418 57.5991 19.0839 58.0029 18.9488C58.4067 18.8136 58.7336 18.6206 59.0028 18.389C59.272 18.1381 59.4835 17.8486 59.6181 17.5204C59.7527 17.173 59.8296 16.8063 59.8296 16.3816C59.8296 15.764 59.6758 15.2428 59.3489 14.8568C58.9835 14.4901 58.4644 14.1812 57.7721 13.9496Z" fill="#EA5EBF"/>
<path d="M65.675 11.7878C65.3097 11.7878 64.9444 11.8457 64.5598 11.9037C64.1367 11.9616 63.7137 12.0388 63.2522 12.0388C63.0984 12.0388 62.9638 12.0388 62.8292 12.0195L60.1948 18.9681H62.4638L62.9445 17.5397H65.9827L66.4634 18.9681H68.7324L66.0212 11.8071C65.9058 11.7878 65.7904 11.7878 65.675 11.7878ZM63.5022 15.9184L64.4636 13.1776L65.4251 15.9184H63.5022Z" fill="#EA5EBF"/>
<path d="M78.0392 13.1584C77.8085 12.6372 77.5008 12.174 77.097 11.7879C76.6932 11.4019 76.2125 11.0931 75.6549 10.8615C75.0972 10.6491 74.4819 10.5333 73.8281 10.5333C73.1551 10.5333 72.559 10.6491 72.0014 10.8615C71.4437 11.0738 70.963 11.3826 70.5784 11.7879C70.1939 12.1933 69.867 12.6372 69.6362 13.1584C69.4055 13.6795 69.3093 14.2586 69.3093 14.8569C69.3093 15.4746 69.4247 16.0343 69.6362 16.5555C69.867 17.0766 70.1746 17.5398 70.5784 17.9259C70.9822 18.3119 71.4437 18.6207 72.0014 18.8524C72.559 19.0647 73.1551 19.1805 73.8281 19.1805C74.4819 19.1805 75.0972 19.0647 75.6549 18.8524C76.2125 18.64 76.6932 18.3312 77.097 17.9259C77.5008 17.5205 77.8085 17.0766 78.0392 16.5555C78.27 16.0343 78.3661 15.4553 78.3661 14.8569C78.3661 14.2392 78.2507 13.6795 78.0392 13.1584ZM75.9625 15.7641C75.8471 16.0343 75.6741 16.2852 75.4626 16.4782C75.251 16.6906 75.0011 16.845 74.7319 16.9608C74.4627 17.0766 74.155 17.1345 73.8473 17.1345C73.5397 17.1345 73.2512 17.0766 72.9628 16.9608C72.6936 16.845 72.4436 16.6906 72.2321 16.4782C72.0206 16.2659 71.8475 16.0343 71.7322 15.7641C71.6168 15.4939 71.5399 15.185 71.5399 14.8569C71.5399 14.5288 71.5976 14.2199 71.7322 13.9497C71.8475 13.6795 72.0206 13.4286 72.2321 13.2356C72.4436 13.0232 72.6936 12.8688 72.9628 12.753C73.232 12.6372 73.5397 12.5793 73.8473 12.5793C74.155 12.5793 74.4627 12.6372 74.7319 12.753C75.0011 12.8688 75.251 13.0232 75.4626 13.2356C75.6741 13.4479 75.8471 13.6795 75.9625 13.9497C76.0779 14.2199 76.1548 14.5288 76.1548 14.8569C76.1356 15.185 76.0779 15.4939 75.9625 15.7641Z" fill="#EA5EBF"/>
<path d="M66.5981 11.2859C66.5981 10.6683 66.5981 10.3595 66.5981 9.7418C65.079 9.29786 63.8291 10.1857 62.3101 9.7418V11.2859C63.8484 11.7299 65.079 10.8613 66.5981 11.2859Z" fill="#EA5EBF"/>
<path d="M17.0452 8.71896V6.92391H12.488L17.4683 0.515747H9.58444V2.33011H13.9302L8.93066 8.71896H17.0452Z" fill="#EA5EBF"/>
<path d="M30.6595 3.70053L35.1976 8.71896H37.3127V0.515747H35.1976V5.53419L30.6595 0.515747H28.5251V8.71896H30.6595V3.70053Z" fill="#EA5EBF"/>
<path d="M41.389 0.515747L38.2739 8.71896H40.5429L41.0237 7.29064H44.0618L44.5425 8.71896H46.8115L43.6965 0.515747H41.389ZM41.5813 5.6693L42.5427 2.92846L43.5042 5.6693H41.5813Z" fill="#EA5EBF"/>
<path d="M59.368 8.39084C59.8488 8.15922 60.291 7.86969 60.6564 7.48366C61.0217 7.09762 61.3102 6.67299 61.5217 6.17114C61.7332 5.6693 61.8293 5.14815 61.8293 4.62701C61.8293 4.08656 61.7332 3.56541 61.5217 3.06357C61.3102 2.56173 61.0217 2.13709 60.6564 1.75106C60.291 1.38432 59.868 1.0755 59.368 0.843876C58.8873 0.612255 58.3489 0.515747 57.7913 0.515747H51.4265V8.71896H57.7913C58.3681 8.71896 58.8873 8.60315 59.368 8.39084ZM53.5609 6.92391V2.33011H54.0416C54.407 2.33011 57.9451 2.38801 58.2335 2.50382C58.522 2.61963 58.7719 2.77404 58.9642 2.98636C59.1565 3.19868 59.3104 3.4303 59.4257 3.71983C59.5411 4.00935 59.5796 4.29888 59.5796 4.62701C59.5796 4.95514 59.5219 5.26396 59.4257 5.55349C59.3296 5.82371 59.1757 6.07463 58.9642 6.28695C58.7719 6.49927 58.522 6.65368 58.2335 6.76949C57.9451 6.8853 54.407 6.94321 54.0224 6.94321H53.5609V6.92391Z" fill="#EA5EBF"/>
<path d="M69.79 6.92391H65.3097V5.49558H69.6554V3.70053H65.3097V2.33011H69.79V0.515747H63.1753V8.71896H69.79V6.92391Z" fill="#EA5EBF"/>
<path d="M24.9291 15.6483C24.8137 15.9185 24.6406 16.1694 24.4291 16.3624C24.2176 16.5748 23.9676 16.7292 23.6984 16.845C23.4292 16.9608 23.1216 17.0187 22.8139 17.0187C22.5062 17.0187 22.1986 16.9608 21.9294 16.845C21.6602 16.7292 21.4102 16.5748 21.1987 16.3624C20.9871 16.1501 20.8141 15.9185 20.6987 15.6483C20.5833 15.378 20.5064 15.0692 20.5064 14.7411H18.2759C18.2759 15.3587 18.3913 15.9185 18.6028 16.4396C18.8335 16.9608 19.1412 17.424 19.545 17.8101C19.9488 18.1961 20.4103 18.5049 20.9679 18.7365C21.5256 18.9489 22.1217 19.0647 22.7947 19.0647C23.4484 19.0647 24.0638 18.9489 24.6214 18.7365C25.179 18.5242 25.6598 18.2154 26.0636 17.8101C26.4674 17.424 26.775 16.9608 27.0058 16.4396C27.2365 15.9185 27.3327 15.3394 27.3327 14.7411H25.1021C25.1214 15.0692 25.0444 15.3587 24.9291 15.6483Z" fill="#EA5EBF"/>
<path d="M20.6795 3.87416C20.7949 3.60394 20.9679 3.35302 21.1794 3.16C21.391 2.94768 21.6409 2.79327 21.9101 2.67746C22.1793 2.56165 22.487 2.50374 22.7947 2.50374C23.1023 2.50374 23.3908 2.56165 23.6792 2.67746C23.9484 2.79327 24.1984 2.94768 24.4099 3.16C24.6214 3.37232 24.7945 3.60394 24.9098 3.87416C25.0252 4.14439 25.1021 4.45321 25.1021 4.78134H27.3327C27.3327 4.16369 27.2173 3.60394 27.0058 3.08279C26.775 2.56165 26.4674 2.09841 26.0636 1.71237C25.6598 1.32634 25.1983 1.01751 24.6406 0.785892C24.083 0.573574 23.4869 0.457764 22.8139 0.457764C22.1601 0.457764 21.5448 0.573574 20.9871 0.785892C20.4295 0.998211 19.9488 1.30704 19.545 1.71237C19.1412 2.09841 18.8335 2.56165 18.6028 3.08279C18.372 3.60394 18.2759 4.18299 18.2759 4.78134H20.5064C20.5064 4.45321 20.5641 4.14439 20.6795 3.87416Z" fill="#EA5EBF"/>
</svg>
