<svg width="79" height="20" viewBox="0 0 79 20" fill="none" xmlns="http://www.w3.org/2000/svg">
<path d="M6.98845 10.7456H0.354492V18.9681H2.4889V16.2466H6.98845C7.91144 16.2466 8.60368 16.015 9.10363 15.5324C9.58435 15.0499 9.83432 14.3743 9.83432 13.5057C9.83432 12.6372 9.58435 11.9616 9.10363 11.4791C8.60368 10.9965 7.91144 10.7456 6.98845 10.7456ZM6.43081 14.5287H2.4889V12.4828H6.45004C7.23843 12.4828 7.623 12.8302 7.623 13.5057C7.60377 14.1813 7.2192 14.5287 6.43081 14.5287Z" fill="#EA5EBF"/>
<path d="M16.5064 14.8183C16.814 14.4322 16.9486 13.9304 16.9486 13.2934C16.9486 12.946 16.8909 12.6179 16.7756 12.309C16.6602 12.0002 16.5064 11.73 16.2756 11.4984C16.0641 11.2667 15.7757 11.0737 15.4295 10.9579C15.0834 10.8228 14.6988 10.7649 14.2374 10.7649H10.9492V18.9681H13.0836V15.8026L15.1027 18.9681H17.7562L15.1796 15.5903C15.7757 15.4552 16.2179 15.2043 16.5064 14.8183ZM14.4489 14.162C14.2181 14.3357 13.9105 14.4322 13.4874 14.4322H13.0836V12.4055H13.4874C13.9105 12.4055 14.2374 12.502 14.4489 12.6758C14.6796 12.8495 14.7758 13.1004 14.7758 13.4285C14.795 13.7374 14.6796 13.9883 14.4489 14.162Z" fill="#EA5EBF"/>
<path d="M19.5445 12.7143C19.9483 13.1004 20.4098 13.4092 20.9674 13.6408C21.5251 13.8531 22.1212 13.9689 22.7942 13.9689C23.448 13.9689 24.0633 13.8531 24.6209 13.6408C25.1786 13.4285 25.6593 13.1197 26.0631 12.7143C26.4669 12.3283 26.7745 11.8651 27.0053 11.3439C27.236 10.8228 27.3322 10.2437 27.3322 9.64536C27.3322 9.0277 27.2168 8.46795 27.0053 7.94681C26.7745 7.42566 26.4669 6.96242 26.0631 6.57639C25.6593 6.19035 25.1786 5.88153 24.6209 5.64991C24.0633 5.43759 23.448 5.32178 22.7942 5.32178C22.1212 5.32178 21.5251 5.43759 20.9674 5.64991C20.4098 5.86222 19.9483 6.17105 19.5445 6.57639C19.1407 6.98172 18.833 7.42566 18.6023 7.94681C18.3715 8.46795 18.2754 9.047 18.2754 9.64536C18.2754 10.263 18.3908 10.8228 18.6023 11.3439C18.8138 11.8651 19.1599 12.309 19.5445 12.7143ZM20.679 8.71888C20.7944 8.44865 20.9674 8.19773 21.1789 8.00471C21.3905 7.79239 21.6404 7.63798 21.9096 7.52217C22.1788 7.40636 22.4865 7.34845 22.7942 7.34845C23.1018 7.34845 23.3903 7.40636 23.6787 7.52217C23.9479 7.63798 24.1979 7.79239 24.4094 8.00471C24.6209 8.21703 24.794 8.44865 24.9093 8.71888C25.0247 8.9891 25.1016 9.29793 25.1016 9.62605C25.1016 9.95418 25.0439 10.263 24.9093 10.5332C24.794 10.8035 24.6209 11.0544 24.4094 11.2474C24.1979 11.4597 23.9479 11.6141 23.6787 11.7299C23.4095 11.8457 23.1018 11.9037 22.7942 11.9037C22.4865 11.9037 22.1981 11.8457 21.9096 11.7299C21.6404 11.6141 21.3905 11.4597 21.1789 11.2474C20.9674 11.0351 20.7944 10.8035 20.679 10.5332C20.5636 10.263 20.4867 9.95418 20.4867 9.62605C20.5059 9.29793 20.5636 9.0084 20.679 8.71888Z" fill="#EA5EBF"/>
<path d="M35.4087 10.7456H28.5439V18.9681H30.6783V16.2466H35.4279C36.3509 16.2466 37.0431 16.015 37.5431 15.5324C38.0238 15.0499 38.2737 14.3743 38.2737 13.5057C38.2737 12.6372 38.0238 11.9616 37.5431 11.4791C37.0239 10.9965 36.3124 10.7456 35.4087 10.7456ZM34.851 14.5287H30.6591V12.4828H34.851C35.6394 12.4828 36.024 12.8302 36.024 13.5057C36.024 14.1813 35.6394 14.5287 34.851 14.5287Z" fill="#EA5EBF"/>
<path d="M44.3882 15.2236C44.3882 15.4552 44.3882 15.7061 44.3689 15.9571C44.3497 16.208 44.292 16.4396 44.1959 16.6326C44.0997 16.8449 43.9651 16.9994 43.7729 17.1345C43.5806 17.2696 43.3114 17.3275 42.946 17.3275C42.5999 17.3275 42.3115 17.2696 42.1192 17.1345C41.9269 16.9994 41.7731 16.8449 41.6961 16.6326C41.6 16.4203 41.5423 16.208 41.5423 15.9571C41.5231 15.7061 41.5231 15.4552 41.5231 15.2236V10.7456H39.3887V15.5131C39.3887 16.787 39.6771 17.7328 40.2732 18.3119C40.8501 18.8909 41.7538 19.1997 42.9652 19.1997C44.1767 19.1997 45.0612 18.9102 45.6573 18.3119C46.2341 17.7328 46.5226 16.787 46.5226 15.5131V10.7456H44.4074V15.2236H44.3882Z" fill="#EA5EBF"/>
<path d="M50.33 10.7456H48.2148V18.9681H52.8875V17.1538H50.33V10.7456Z" fill="#EA5EBF"/>
<path d="M57.7714 13.9496C57.5983 13.8917 57.4253 13.8338 57.2522 13.7952C57.0792 13.7373 56.9253 13.6794 56.7715 13.6215C56.6369 13.5443 56.5215 13.4671 56.4254 13.3706C56.3292 13.2741 56.2908 13.1582 56.2908 13.0038C56.2908 12.7915 56.3869 12.6178 56.56 12.4827C56.733 12.3476 56.9638 12.2897 57.233 12.2897C57.4445 12.2897 57.6752 12.3283 57.906 12.4248C58.1367 12.5213 58.3675 12.6564 58.5982 12.8494L59.4443 11.1895C59.0405 10.9772 58.6175 10.8034 58.1752 10.6876C57.7329 10.5718 57.3099 10.5139 56.9061 10.5139C56.4638 10.5139 56.0792 10.5718 55.7331 10.7069C55.387 10.842 55.0793 11.0158 54.8486 11.2474C54.5986 11.479 54.4256 11.7685 54.291 12.0967C54.1564 12.4248 54.0987 12.7915 54.0987 13.1968C54.0987 13.6022 54.1564 13.9303 54.291 14.2005C54.4256 14.4708 54.5794 14.6831 54.7909 14.8568C55.0024 15.0305 55.2332 15.1656 55.5024 15.2814C55.7716 15.3779 56.0408 15.4744 56.31 15.571C56.5407 15.6482 56.733 15.7254 56.9061 15.7833C57.0599 15.8412 57.1945 15.9184 57.3099 15.9956C57.406 16.0728 57.483 16.15 57.5214 16.2465C57.5599 16.343 57.5791 16.4395 57.5791 16.5746C57.5791 16.787 57.5022 16.9607 57.3291 17.1151C57.1561 17.2695 56.9061 17.3467 56.56 17.3467C56.2523 17.3467 55.9446 17.2695 55.637 17.1344C55.3293 16.9993 55.0024 16.787 54.6948 16.4974L53.791 18.2153C54.6755 18.8329 55.637 19.1418 56.6561 19.1418C57.1561 19.1418 57.5983 19.0839 58.0021 18.9488C58.4059 18.8136 58.7328 18.6206 59.002 18.389C59.2712 18.1381 59.4828 17.8486 59.6174 17.5204C59.752 17.173 59.8289 16.8063 59.8289 16.3816C59.8289 15.764 59.675 15.2428 59.3482 14.8568C58.9828 14.4901 58.4636 14.1812 57.7714 13.9496Z" fill="#EA5EBF"/>
<path d="M65.6746 11.7878C65.3092 11.7878 64.9439 11.8457 64.5593 11.9037C64.1363 11.9616 63.7132 12.0388 63.2517 12.0388C63.0979 12.0388 62.9633 12.0388 62.8287 12.0195L60.1943 18.9681H62.4633L62.9441 17.5397H65.9822L66.4629 18.9681H68.7319L66.0207 11.8071C65.9053 11.7878 65.7899 11.7878 65.6746 11.7878ZM63.5017 15.9184L64.4631 13.1776L65.4246 15.9184H63.5017Z" fill="#EA5EBF"/>
<path d="M78.0395 13.1582C77.8087 12.6371 77.5011 12.1738 77.0973 11.7878C76.6935 11.4018 76.2127 11.093 75.6551 10.8613C75.0975 10.649 74.4821 10.5332 73.8284 10.5332C73.1553 10.5332 72.5592 10.649 72.0016 10.8613C71.444 11.0737 70.9633 11.3825 70.5787 11.7878C70.1941 12.1931 69.8672 12.6371 69.6365 13.1582C69.4057 13.6794 69.3096 14.2584 69.3096 14.8568C69.3096 15.4744 69.4249 16.0342 69.6365 16.5553C69.8672 17.0765 70.1749 17.5397 70.5787 17.9258C70.9825 18.3118 71.444 18.6206 72.0016 18.8522C72.5592 19.0646 73.1553 19.1804 73.8284 19.1804C74.4821 19.1804 75.0975 19.0646 75.6551 18.8522C76.2127 18.6399 76.6935 18.3311 77.0973 17.9258C77.5011 17.5204 77.8087 17.0765 78.0395 16.5553C78.2702 16.0342 78.3664 15.4551 78.3664 14.8568C78.3664 14.2391 78.251 13.6794 78.0395 13.1582ZM75.9628 15.764C75.8474 16.0342 75.6743 16.2851 75.4628 16.4781C75.2513 16.6904 75.0013 16.8449 74.7321 16.9607C74.4629 17.0765 74.1552 17.1344 73.8476 17.1344C73.5399 17.1344 73.2515 17.0765 72.9631 16.9607C72.6939 16.8449 72.4439 16.6904 72.2324 16.4781C72.0208 16.2658 71.8478 16.0342 71.7324 15.764C71.617 15.4937 71.5401 15.1849 71.5401 14.8568C71.5401 14.5287 71.5978 14.2198 71.7324 13.9496C71.8478 13.6794 72.0208 13.4285 72.2324 13.2354C72.4439 13.0231 72.6939 12.8687 72.9631 12.7529C73.2323 12.6371 73.5399 12.5792 73.8476 12.5792C74.1552 12.5792 74.4629 12.6371 74.7321 12.7529C75.0013 12.8687 75.2513 13.0231 75.4628 13.2354C75.6743 13.4478 75.8474 13.6794 75.9628 13.9496C76.0781 14.2198 76.155 14.5287 76.155 14.8568C76.1358 15.1849 76.0781 15.4937 75.9628 15.764Z" fill="#EA5EBF"/>
<path d="M66.5976 11.2858C66.5976 10.6682 66.5976 10.3593 66.5976 9.74168C65.0785 9.29774 63.8286 10.1856 62.3096 9.74168V11.2858C63.8479 11.7298 65.0785 10.8612 66.5976 11.2858Z" fill="#EA5EBF"/>
<path d="M17.0452 8.71909V6.92403H12.488L17.4683 0.515869H9.58444V2.33023H13.9302L8.93066 8.71909H17.0452Z" fill="#EA5EBF"/>
<path d="M30.6588 3.70065L35.1968 8.71909H37.312V0.515869H35.1968V5.53431L30.6588 0.515869H28.5244V8.71909H30.6588V3.70065Z" fill="#EA5EBF"/>
<path d="M41.3885 0.515869L38.2734 8.71909H40.5424L41.0232 7.29076H44.0613L44.542 8.71909H46.8111L43.696 0.515869H41.3885ZM41.5808 5.66942L42.5422 2.92858L43.5037 5.66942H41.5808Z" fill="#EA5EBF"/>
<path d="M59.3683 8.39096C59.849 8.15934 60.2913 7.86981 60.6566 7.48378C61.022 7.09774 61.3104 6.67311 61.5219 6.17126C61.7334 5.66942 61.8296 5.14827 61.8296 4.62713C61.8296 4.08668 61.7334 3.56554 61.5219 3.06369C61.3104 2.56185 61.022 2.13721 60.6566 1.75118C60.2913 1.38445 59.8682 1.07562 59.3683 0.843998C58.8876 0.612378 58.3492 0.515869 57.7915 0.515869H51.4268V8.71909H57.7915C58.3684 8.71909 58.8876 8.60328 59.3683 8.39096ZM53.5612 6.92403V2.33023H54.0419C54.4072 2.33023 57.9453 2.38813 58.2338 2.50394C58.5222 2.61975 58.7722 2.77417 58.9645 2.98649C59.1568 3.1988 59.3106 3.43042 59.426 3.71995C59.5413 4.00947 59.5798 4.299 59.5798 4.62713C59.5798 4.95526 59.5221 5.26408 59.426 5.55361C59.3298 5.82383 59.176 6.07476 58.9645 6.28707C58.7722 6.49939 58.5222 6.65381 58.2338 6.76962C57.9453 6.88543 54.4072 6.94333 54.0227 6.94333H53.5612V6.92403Z" fill="#EA5EBF"/>
<path d="M69.7895 6.92403H65.3092V5.49571H69.6549V3.70065H65.3092V2.33023H69.7895V0.515869H63.1748V8.71909H69.7895V6.92403Z" fill="#EA5EBF"/>
<path d="M24.9286 15.6481C24.8132 15.9184 24.6401 16.1693 24.4286 16.3623C24.2171 16.5746 23.9671 16.729 23.6979 16.8449C23.4287 16.9607 23.1211 17.0186 22.8134 17.0186C22.5057 17.0186 22.1981 16.9607 21.9289 16.8449C21.6597 16.729 21.4097 16.5746 21.1982 16.3623C20.9867 16.15 20.8136 15.9184 20.6982 15.6481C20.5829 15.3779 20.5059 15.0691 20.5059 14.741H18.2754C18.2754 15.3586 18.3908 15.9184 18.6023 16.4395C18.833 16.9607 19.1407 17.4239 19.5445 17.8099C19.9483 18.196 20.4098 18.5048 20.9674 18.7364C21.5251 18.9487 22.1212 19.0645 22.7942 19.0645C23.448 19.0645 24.0633 18.9487 24.6209 18.7364C25.1786 18.5241 25.6593 18.2153 26.0631 17.8099C26.4669 17.4239 26.7745 16.9607 27.0053 16.4395C27.236 15.9184 27.3322 15.3393 27.3322 14.741H25.1016C25.1209 15.0691 25.044 15.3586 24.9286 15.6481Z" fill="#EA5EBF"/>
<path d="M20.679 3.87416C20.7944 3.60394 20.9674 3.35302 21.1789 3.16C21.3905 2.94768 21.6404 2.79327 21.9096 2.67746C22.1788 2.56165 22.4865 2.50374 22.7942 2.50374C23.1018 2.50374 23.3903 2.56165 23.6787 2.67746C23.9479 2.79327 24.1979 2.94768 24.4094 3.16C24.6209 3.37232 24.794 3.60394 24.9093 3.87416C25.0247 4.14439 25.1016 4.45321 25.1016 4.78134H27.3322C27.3322 4.16369 27.2168 3.60394 27.0053 3.08279C26.7745 2.56165 26.4669 2.09841 26.0631 1.71237C25.6593 1.32634 25.1978 1.01751 24.6401 0.785892C24.0825 0.573574 23.4864 0.457764 22.8134 0.457764C22.1596 0.457764 21.5443 0.573574 20.9867 0.785892C20.429 0.998211 19.9483 1.30704 19.5445 1.71237C19.1407 2.09841 18.833 2.56165 18.6023 3.08279C18.3715 3.60394 18.2754 4.18299 18.2754 4.78134H20.5059C20.5059 4.45321 20.5636 4.14439 20.679 3.87416Z" fill="#EA5EBF"/>
</svg>
