<svg width="68" height="25" viewBox="0 0 68 25" fill="none" xmlns="http://www.w3.org/2000/svg">
<path d="M8.6508 0.229004H0.143555V24.3445H8.6508V0.229004Z" fill="#EA5EBF"/>
<path d="M10.5396 0.22879V24.3443C15.1675 24.3443 19.7954 21.1505 19.7954 11.9449C19.8125 4.00324 15.1845 0.22879 10.5396 0.22879Z" fill="#EA5EBF"/>
<path d="M30.9566 8.69984C30.9566 6.71868 29.6464 5.79642 28.1662 5.79642H24.0146V11.6203H28.1662C29.6464 11.6033 30.9566 10.681 30.9566 8.69984ZM25.4779 10.3565V7.04318H27.6047C28.7106 7.04318 29.4763 7.28228 29.4763 8.69984C29.4763 10.1174 28.7277 10.3565 27.6047 10.3565H25.4779Z" fill="#EA5EBF"/>
<path d="M34.9042 6.63333C32.9475 6.63333 31.5693 7.36773 31.5693 9.17809C31.5693 10.9714 32.9986 11.7058 34.8191 11.7058C36.6056 11.7058 37.7966 11.108 38.1199 9.86125H36.7247C36.3674 10.3565 35.7889 10.5444 34.8191 10.5444C33.8833 10.5444 33.1517 10.2882 32.9986 9.50259H38.205C38.205 7.26525 36.7247 6.63333 34.9042 6.63333ZM33.0496 8.59741C33.2708 7.91425 33.9343 7.7093 34.9042 7.7093C35.7889 7.7093 36.4695 7.89717 36.7077 8.59741H33.0496Z" fill="#EA5EBF"/>
<path d="M38.6304 9.89548C38.6304 11.4667 40.3488 11.7058 42.2034 11.7058C44.058 11.7058 45.2831 11.4667 45.2831 10.0833C45.2831 8.78535 43.9899 8.73411 42.1184 8.5804C40.4509 8.46085 40.1957 8.40961 40.1957 8.10219C40.1957 7.81185 40.57 7.72646 41.8972 7.72646C43.1903 7.72646 43.7007 7.82893 43.7007 8.23882H45.1129C45.1129 6.88959 43.7858 6.65048 41.9822 6.65048C40.2638 6.65048 38.7835 6.88959 38.7835 8.17051C38.7835 9.34895 39.8214 9.51974 41.9482 9.63929C43.6497 9.74177 43.8708 9.77593 43.8708 10.1517C43.8708 10.5274 43.6326 10.6299 42.1184 10.6299C40.553 10.6299 40.0256 10.4249 40.0256 9.91256H38.6304V9.89548Z" fill="#EA5EBF"/>
<path d="M47.342 4.95975H45.9468V6.20651H47.342V4.95975Z" fill="#EA5EBF"/>
<path d="M47.342 6.71878H45.9468V11.6204H47.342V6.71878Z" fill="#EA5EBF"/>
<path d="M50.8125 11.5521C51.9524 11.5521 52.7691 11.2276 53.2455 10.6811C53.1945 11.945 52.65 12.5086 51.2038 12.5086C50.1319 12.5086 49.06 12.2695 48.4985 12.167V13.3113C48.9579 13.4308 50.1149 13.7041 51.5271 13.7041C53.3476 13.7041 54.6748 12.8331 54.6748 10.8519V6.73588H53.2626V7.52151C52.7861 6.97498 51.9694 6.65048 50.8295 6.65048C49.1791 6.65048 48.0051 7.38488 48.0051 9.10985C47.9881 10.8177 49.1621 11.5521 50.8125 11.5521ZM51.3229 7.82893C52.633 7.82893 53.2626 8.20466 53.2626 9.10985C53.2626 10.015 52.65 10.3737 51.3229 10.3908C49.9958 10.3908 49.3832 10.015 49.3832 9.10985C49.3832 8.18759 50.0128 7.82893 51.3229 7.82893Z" fill="#EA5EBF"/>
<path d="M60.7662 11.6033H62.1784L62.1954 8.88771C62.1784 7.07734 60.9704 6.61621 59.6943 6.61621C58.5203 6.61621 57.5675 7.00903 56.8869 7.55555V6.70161H55.4917V11.6033H56.8869V8.85355C57.3293 8.34118 58.3331 7.84589 59.2859 7.84589C60.4429 7.84589 60.7832 8.39242 60.7832 9.43424V11.6033H60.7662Z" fill="#EA5EBF"/>
<path d="M26.8902 13.5505L23.9297 19.3744H25.5461L26.1586 18.1276H29.5955L30.208 19.3744H31.8414L28.8809 13.5505H26.8902ZM26.7201 17.0175L27.8941 14.6606L29.051 17.0175H26.7201Z" fill="#EA5EBF"/>
<path d="M33.7474 13.055L32.3352 13.4649V14.4726H31.0591V15.6681H32.3352V17.9054C32.3352 18.9814 33.1348 19.4596 34.3769 19.4596C35.0235 19.4596 35.5509 19.4255 36.0273 19.3401V18.1958C35.4658 18.2812 35.2106 18.2812 34.7682 18.2812C33.9175 18.2812 33.7304 18.0421 33.7304 17.0857V15.6681H36.0443V14.4726H33.7644V13.055H33.7474Z" fill="#EA5EBF"/>
<path d="M38.1198 14.4726H36.7246V19.3742H38.1198V14.4726Z" fill="#EA5EBF"/>
<path d="M38.1198 12.7307H36.7246V13.9775H38.1198V12.7307Z" fill="#EA5EBF"/>
<path d="M42.0844 18.3666L40.1958 14.4726H38.6475L41.0805 19.3742H43.0712L45.5213 14.4726H43.973L42.0844 18.3666Z" fill="#EA5EBF"/>
<path d="M47.3927 14.4726H45.9976V19.3742H47.3927V14.4726Z" fill="#EA5EBF"/>
<path d="M47.3927 12.7307H45.9976V13.9775H47.3927V12.7307Z" fill="#EA5EBF"/>
<path d="M51.527 16.3342C49.8596 16.2147 49.6044 16.1634 49.6044 15.856C49.6044 15.5657 49.9787 15.4803 51.3058 15.4803C52.599 15.4803 53.1094 15.5827 53.1094 15.9926H54.5216C54.5216 14.6434 53.1945 14.4043 51.3909 14.4043C49.6725 14.4043 48.1922 14.6434 48.1922 15.9243C48.1922 17.1028 49.2301 17.2736 51.3569 17.3931C53.0583 17.4956 53.2795 17.5297 53.2795 17.9055C53.2795 18.2812 53.0413 18.3837 51.527 18.3837C49.9617 18.3837 49.4343 18.1787 49.4343 17.6664H48.0391C48.0391 19.2376 49.7575 19.4767 51.6121 19.4767C53.4667 19.4767 54.6917 19.2376 54.6917 17.8542C54.7087 16.5221 53.4156 16.4879 51.527 16.3342Z" fill="#EA5EBF"/>
<path d="M57.6356 13.055L56.2234 13.4649V14.4726H54.9473V15.6681H56.2234V17.9054C56.2234 18.9814 57.023 19.4596 58.2651 19.4596C58.9116 19.4596 59.4391 19.4255 59.9155 19.3401V18.1958C59.354 18.2812 59.0988 18.2812 58.6564 18.2812C57.8057 18.2812 57.6185 18.0421 57.6185 17.0857V15.6681H59.8985V14.4726H57.6185V13.055H57.6356Z" fill="#EA5EBF"/>
<path d="M63.8289 14.3871C62.825 14.3871 61.8552 14.575 60.8684 14.8995L61.3618 15.9413C62.3486 15.6339 63.1143 15.5827 63.7608 15.5827C64.4244 15.5827 65.5984 15.651 65.5984 16.5903C64.9689 16.3683 64.2032 16.2487 63.3865 16.2487C61.8552 16.2487 60.4771 16.6416 60.4771 17.9225C60.4771 19.0326 61.3278 19.4767 62.6719 19.4767C63.8119 19.4767 64.7477 19.2034 65.5984 18.7935V19.4084H67.0106V16.9319C66.9936 15.0532 65.8536 14.3871 63.8289 14.3871ZM65.5984 17.8542C64.8838 18.1787 63.8289 18.4178 63.0633 18.4178C62.3316 18.4178 61.8722 18.3836 61.8722 17.8542C61.8722 17.3589 62.5018 17.171 63.5567 17.171C64.4414 17.171 65.105 17.3076 65.5984 17.4784V17.8542Z" fill="#EA5EBF"/>
</svg>
