<svg width="68" height="25" viewBox="0 0 68 25" fill="none" xmlns="http://www.w3.org/2000/svg">
<path d="M8.6508 0.229004H0.143555V24.3445H8.6508V0.229004Z" fill="#EA5EBF"/>
<path d="M10.5391 0.22876V24.3442C15.167 24.3442 19.795 21.1505 19.795 11.9449C19.812 4.00321 15.184 0.22876 10.5391 0.22876Z" fill="#EA5EBF"/>
<path d="M30.9566 8.69981C30.9566 6.71865 29.6464 5.79639 28.1662 5.79639H24.0146V11.6203H28.1662C29.6464 11.6032 30.9566 10.681 30.9566 8.69981ZM25.4779 10.3565V7.04315H27.6047C28.7106 7.04315 29.4763 7.28225 29.4763 8.69981C29.4763 10.1174 28.7277 10.3565 27.6047 10.3565H25.4779Z" fill="#EA5EBF"/>
<path d="M34.9042 6.6333C32.9475 6.6333 31.5693 7.3677 31.5693 9.17806C31.5693 10.9714 32.9986 11.7057 34.8191 11.7057C36.6056 11.7057 37.7966 11.108 38.1199 9.86122H36.7247C36.3674 10.3565 35.7889 10.5444 34.8191 10.5444C33.8833 10.5444 33.1517 10.2882 32.9986 9.50256H38.205C38.205 7.26522 36.7247 6.6333 34.9042 6.6333ZM33.0496 8.59738C33.2708 7.91422 33.9343 7.70927 34.9042 7.70927C35.7889 7.70927 36.4695 7.89714 36.7077 8.59738H33.0496Z" fill="#EA5EBF"/>
<path d="M38.6299 9.89539C38.6299 11.4666 40.3484 11.7058 42.2029 11.7058C44.0575 11.7058 45.2826 11.4666 45.2826 10.0833C45.2826 8.78526 43.9895 8.73402 42.1179 8.58031C40.4504 8.46076 40.1952 8.40952 40.1952 8.1021C40.1952 7.81176 40.5695 7.72636 41.8967 7.72636C43.1898 7.72636 43.7002 7.82884 43.7002 8.23873H45.1124C45.1124 6.8895 43.7853 6.65039 41.9817 6.65039C40.2633 6.65039 38.783 6.88949 38.783 8.17041C38.783 9.34886 39.8209 9.51965 41.9477 9.6392C43.6492 9.74168 43.8704 9.77583 43.8704 10.1516C43.8704 10.5273 43.6322 10.6298 42.1179 10.6298C40.5525 10.6298 40.0251 10.4248 40.0251 9.91246H38.6299V9.89539Z" fill="#EA5EBF"/>
<path d="M47.3415 4.95972H45.9463V6.20648H47.3415V4.95972Z" fill="#EA5EBF"/>
<path d="M47.3415 6.71875H45.9463V11.6204H47.3415V6.71875Z" fill="#EA5EBF"/>
<path d="M50.8125 11.552C51.9524 11.552 52.7691 11.2275 53.2455 10.681C53.1945 11.9449 52.65 12.5085 51.2038 12.5085C50.1319 12.5085 49.06 12.2694 48.4985 12.1669V13.3112C48.9579 13.4307 50.1149 13.704 51.5271 13.704C53.3476 13.704 54.6748 12.833 54.6748 10.8518V6.73579H53.2626V7.52141C52.7861 6.97489 51.9694 6.65039 50.8295 6.65039C49.1791 6.65039 48.0051 7.38478 48.0051 9.10976C47.9881 10.8176 49.1621 11.552 50.8125 11.552ZM51.3229 7.82884C52.633 7.82884 53.2626 8.20457 53.2626 9.10976C53.2626 10.0149 52.65 10.3736 51.3229 10.3907C49.9958 10.3907 49.3832 10.0149 49.3832 9.10976C49.3832 8.18749 50.0128 7.82884 51.3229 7.82884Z" fill="#EA5EBF"/>
<path d="M60.7667 11.6033H62.1789L62.1959 8.88771C62.1789 7.07734 60.9709 6.61621 59.6948 6.61621C58.5208 6.61621 57.568 7.00903 56.8874 7.55555V6.70161H55.4922V11.6033H56.8874V8.85355C57.3298 8.34118 58.3336 7.84589 59.2864 7.84589C60.4434 7.84589 60.7837 8.39242 60.7837 9.43424V11.6033H60.7667Z" fill="#EA5EBF"/>
<path d="M26.8902 13.5505L23.9297 19.3745H25.5461L26.1586 18.1277H29.5955L30.208 19.3745H31.8414L28.8809 13.5505H26.8902ZM26.7201 17.0176L27.8941 14.6607L29.051 17.0176H26.7201Z" fill="#EA5EBF"/>
<path d="M33.7469 13.0549L32.3347 13.4648V14.4725H31.0586V15.668H32.3347V17.9054C32.3347 18.9813 33.1344 19.4595 34.3764 19.4595C35.023 19.4595 35.5504 19.4254 36.0268 19.34V18.1957C35.4653 18.2811 35.2101 18.2811 34.7677 18.2811C33.917 18.2811 33.7299 18.042 33.7299 17.0856V15.668H36.0438V14.4725H33.7639V13.0549H33.7469Z" fill="#EA5EBF"/>
<path d="M38.1198 14.4727H36.7246V19.3743H38.1198V14.4727Z" fill="#EA5EBF"/>
<path d="M38.1198 12.7307H36.7246V13.9775H38.1198V12.7307Z" fill="#EA5EBF"/>
<path d="M42.0844 18.3667L40.1958 14.4727H38.6475L41.0805 19.3743H43.0712L45.5213 14.4727H43.973L42.0844 18.3667Z" fill="#EA5EBF"/>
<path d="M47.3932 14.4727H45.998V19.3743H47.3932V14.4727Z" fill="#EA5EBF"/>
<path d="M47.3932 12.7307H45.998V13.9775H47.3932V12.7307Z" fill="#EA5EBF"/>
<path d="M51.527 16.3342C49.8596 16.2147 49.6044 16.1634 49.6044 15.856C49.6044 15.5657 49.9787 15.4803 51.3058 15.4803C52.599 15.4803 53.1094 15.5827 53.1094 15.9926H54.5216C54.5216 14.6434 53.1945 14.4043 51.3909 14.4043C49.6725 14.4043 48.1922 14.6434 48.1922 15.9243C48.1922 17.1028 49.2301 17.2736 51.3569 17.3931C53.0583 17.4956 53.2795 17.5297 53.2795 17.9055C53.2795 18.2812 53.0413 18.3837 51.527 18.3837C49.9617 18.3837 49.4343 18.1787 49.4343 17.6664H48.0391C48.0391 19.2376 49.7575 19.4767 51.6121 19.4767C53.4667 19.4767 54.6917 19.2376 54.6917 17.8542C54.7087 16.5221 53.4156 16.4879 51.527 16.3342Z" fill="#EA5EBF"/>
<path d="M57.6356 13.0549L56.2234 13.4648V14.4725H54.9473V15.668H56.2234V17.9054C56.2234 18.9813 57.023 19.4595 58.2651 19.4595C58.9116 19.4595 59.4391 19.4254 59.9155 19.34V18.1957C59.354 18.2811 59.0988 18.2811 58.6564 18.2811C57.8057 18.2811 57.6185 18.042 57.6185 17.0856V15.668H59.8985V14.4725H57.6185V13.0549H57.6356Z" fill="#EA5EBF"/>
<path d="M63.8284 14.3872C62.8246 14.3872 61.8547 14.5751 60.8679 14.8996L61.3613 15.9414C62.3482 15.634 63.1138 15.5827 63.7604 15.5827C64.4239 15.5827 65.5979 15.651 65.5979 16.5904C64.9684 16.3684 64.2027 16.2488 63.386 16.2488C61.8547 16.2488 60.4766 16.6416 60.4766 17.9225C60.4766 19.0327 61.3273 19.4767 62.6714 19.4767C63.8114 19.4767 64.7472 19.2035 65.5979 18.7936V19.4084H67.0101V16.932C66.9931 15.0533 65.8531 14.3872 63.8284 14.3872ZM65.5979 17.8542C64.8833 18.1787 63.8284 18.4178 63.0628 18.4178C62.3311 18.4178 61.8717 18.3837 61.8717 17.8542C61.8717 17.3589 62.5013 17.1711 63.5562 17.1711C64.4409 17.1711 65.1045 17.3077 65.5979 17.4785V17.8542Z" fill="#EA5EBF"/>
</svg>
