<svg width="45" height="30" viewBox="0 0 45 30" fill="none" xmlns="http://www.w3.org/2000/svg">
<path d="M2.9314 2.95972V26.2526H5.51361V5.5517H8.09582V26.2526H10.678V4.2382L9.36947 2.95972H2.9314Z" fill="#EA5EBF"/>
<path d="M15.8425 2.95972H13.2603V26.2526H15.8425V2.95972Z" fill="#EA5EBF"/>
<path d="M26.1714 4.2382L24.8629 2.95972H18.4248V26.2526H21.007V5.5517H23.5892V21.7516H26.1714V4.2382Z" fill="#EA5EBF"/>
<path d="M28.7184 23.6606H26.4502H26.1711H23.5889H23.554V26.2526H23.5889H26.1711H30.6201L31.3006 25.6221V2.95972H28.7184V23.6606Z" fill="#EA5EBF"/>
<path d="M40.9491 2.95972H34.511L33.8655 3.60771V26.2526H36.4477V18.4766H39.0299V26.2526H41.6121V3.60771L40.9491 2.95972ZM39.0473 15.8846H36.4651V5.5517H39.0473V15.8846Z" fill="#EA5EBF"/>
<path d="M44.5608 29.2124H0.000244141V0H44.5782V29.2124H44.5608ZM1.16921 28.0215H43.3744V1.19091H1.16921V28.0215Z" fill="#EA5EBF"/>
</svg>
