<svg width="79" height="20" viewBox="0 0 79 20" fill="none" xmlns="http://www.w3.org/2000/svg">
<path d="M6.98894 10.7455H0.35498V18.9681H2.48938V16.2465H6.98894C7.91192 16.2465 8.60416 16.0149 9.10411 15.5324C9.58484 15.0498 9.83481 14.3743 9.83481 13.5057C9.83481 12.6371 9.58484 11.9616 9.10411 11.479C8.60416 10.9965 7.91192 10.7455 6.98894 10.7455ZM6.4313 14.5287H2.48938V12.4827H6.45053C7.23891 12.4827 7.62349 12.8301 7.62349 13.5057C7.60426 14.1812 7.21969 14.5287 6.4313 14.5287Z" fill="#EA5EBF"/>
<path d="M16.5073 14.8182C16.815 14.4322 16.9496 13.9303 16.9496 13.2934C16.9496 12.946 16.8919 12.6178 16.7765 12.309C16.6612 12.0002 16.5073 11.7299 16.2766 11.4983C16.0651 11.2667 15.7766 11.0737 15.4305 10.9579C15.0844 10.8228 14.6998 10.7649 14.2383 10.7649H10.9502V18.9681H13.0846V15.8026L15.1036 18.9681H17.7572L15.1805 15.5903C15.7766 15.4552 16.2189 15.2043 16.5073 14.8182ZM14.4498 14.162C14.2191 14.3357 13.9114 14.4322 13.4884 14.4322H13.0846V12.4055H13.4884C13.9114 12.4055 14.2383 12.502 14.4498 12.6757C14.6806 12.8494 14.7767 13.1004 14.7767 13.4285C14.796 13.7373 14.6806 13.9882 14.4498 14.162Z" fill="#EA5EBF"/>
<path d="M19.5455 12.7144C19.9493 13.1004 20.4108 13.4092 20.9684 13.6409C21.526 13.8532 22.1221 13.969 22.7951 13.969C23.4489 13.969 24.0643 13.8532 24.6219 13.6409C25.1795 13.4285 25.6602 13.1197 26.0641 12.7144C26.4679 12.3284 26.7755 11.8651 27.0063 11.344C27.237 10.8228 27.3332 10.2438 27.3332 9.64542C27.3332 9.02776 27.2178 8.46801 27.0063 7.94687C26.7755 7.42572 26.4679 6.96248 26.0641 6.57645C25.6602 6.19041 25.1795 5.88159 24.6219 5.64997C24.0643 5.43765 23.4489 5.32184 22.7951 5.32184C22.1221 5.32184 21.526 5.43765 20.9684 5.64997C20.4108 5.86229 19.9493 6.17111 19.5455 6.57645C19.1417 6.98178 18.834 7.42572 18.6033 7.94687C18.3725 8.46801 18.2764 9.04706 18.2764 9.64542C18.2764 10.2631 18.3917 10.8228 18.6033 11.344C18.8148 11.8651 19.1609 12.3091 19.5455 12.7144ZM20.68 8.71894C20.7953 8.44871 20.9684 8.19779 21.1799 8.00477C21.3914 7.79245 21.6414 7.63804 21.9106 7.52223C22.1798 7.40642 22.4875 7.34852 22.7951 7.34852C23.1028 7.34852 23.3912 7.40642 23.6797 7.52223C23.9489 7.63804 24.1989 7.79245 24.4104 8.00477C24.6219 8.21709 24.795 8.44871 24.9103 8.71894C25.0257 8.98916 25.1026 9.29799 25.1026 9.62612C25.1026 9.95424 25.0449 10.2631 24.9103 10.5333C24.795 10.8035 24.6219 11.0544 24.4104 11.2475C24.1989 11.4598 23.9489 11.6142 23.6797 11.73C23.4105 11.8458 23.1028 11.9037 22.7951 11.9037C22.4875 11.9037 22.1991 11.8458 21.9106 11.73C21.6414 11.6142 21.3914 11.4598 21.1799 11.2475C20.9684 11.0351 20.7953 10.8035 20.68 10.5333C20.5646 10.2631 20.4877 9.95424 20.4877 9.62612C20.5069 9.29799 20.5646 9.00846 20.68 8.71894Z" fill="#EA5EBF"/>
<path d="M35.4091 10.7455H28.5444V18.9681H30.6788V16.2465H35.4284C36.3514 16.2465 37.0436 16.0149 37.5435 15.5324C38.0243 15.0498 38.2742 14.3743 38.2742 13.5057C38.2742 12.6371 38.0243 11.9616 37.5435 11.479C37.0244 10.9965 36.3129 10.7455 35.4091 10.7455ZM34.8515 14.5287H30.6596V12.4827H34.8515C35.6399 12.4827 36.0245 12.8301 36.0245 13.5057C36.0245 14.1812 35.6399 14.5287 34.8515 14.5287Z" fill="#EA5EBF"/>
<path d="M44.3892 15.2235C44.3892 15.4552 44.3892 15.7061 44.3699 15.957C44.3507 16.2079 44.293 16.4395 44.1969 16.6326C44.1007 16.8449 43.9661 16.9993 43.7738 17.1344C43.5815 17.2695 43.3123 17.3274 42.947 17.3274C42.6009 17.3274 42.3124 17.2695 42.1201 17.1344C41.9279 16.9993 41.774 16.8449 41.6971 16.6326C41.601 16.4202 41.5433 16.2079 41.5433 15.957C41.5241 15.7061 41.5241 15.4552 41.5241 15.2235V10.7455H39.3896V15.5131C39.3896 16.787 39.6781 17.7328 40.2742 18.3118C40.851 18.8909 41.7548 19.1997 42.9662 19.1997C44.1776 19.1997 45.0622 18.9102 45.6583 18.3118C46.2351 17.7328 46.5236 16.787 46.5236 15.5131V10.7455H44.4084V15.2235H44.3892Z" fill="#EA5EBF"/>
<path d="M50.3305 10.7455H48.2153V18.9681H52.888V17.1537H50.3305V10.7455Z" fill="#EA5EBF"/>
<path d="M57.7724 13.9497C57.5993 13.8918 57.4262 13.8339 57.2532 13.7953C57.0801 13.7374 56.9263 13.6795 56.7725 13.6216C56.6379 13.5444 56.5225 13.4672 56.4263 13.3707C56.3302 13.2741 56.2917 13.1583 56.2917 13.0039C56.2917 12.7916 56.3879 12.6179 56.5609 12.4828C56.734 12.3477 56.9648 12.2898 57.234 12.2898C57.4455 12.2898 57.6762 12.3284 57.907 12.4249C58.1377 12.5214 58.3685 12.6565 58.5992 12.8495L59.4453 11.1896C59.0415 10.9772 58.6184 10.8035 58.1762 10.6877C57.7339 10.5719 57.3109 10.514 56.9071 10.514C56.4648 10.514 56.0802 10.5719 55.7341 10.707C55.388 10.8421 55.0803 11.0159 54.8496 11.2475C54.5996 11.4791 54.4265 11.7686 54.2919 12.0967C54.1573 12.4249 54.0996 12.7916 54.0996 13.1969C54.0996 13.6023 54.1573 13.9304 54.2919 14.2006C54.4265 14.4709 54.5804 14.6832 54.7919 14.8569C55.0034 15.0306 55.2342 15.1657 55.5034 15.2815C55.7726 15.378 56.0418 15.4745 56.311 15.571C56.5417 15.6483 56.734 15.7255 56.9071 15.7834C57.0609 15.8413 57.1955 15.9185 57.3109 15.9957C57.407 16.0729 57.4839 16.1501 57.5224 16.2466C57.5608 16.3431 57.5801 16.4396 57.5801 16.5747C57.5801 16.7871 57.5032 16.9608 57.3301 17.1152C57.157 17.2696 56.9071 17.3468 56.5609 17.3468C56.2533 17.3468 55.9456 17.2696 55.638 17.1345C55.3303 16.9994 55.0034 16.7871 54.6957 16.4975L53.792 18.2154C54.6765 18.833 55.638 19.1419 56.6571 19.1419C57.157 19.1419 57.5993 19.084 58.0031 18.9488C58.4069 18.8137 58.7338 18.6207 59.003 18.3891C59.2722 18.1382 59.4837 17.8486 59.6183 17.5205C59.7529 17.1731 59.8299 16.8064 59.8299 16.3817C59.8299 15.7641 59.676 15.2429 59.3491 14.8569C58.9838 14.4902 58.4646 14.1813 57.7724 13.9497Z" fill="#EA5EBF"/>
<path d="M65.6755 11.7879C65.3102 11.7879 64.9448 11.8458 64.5603 11.9037C64.1372 11.9616 63.7142 12.0388 63.2527 12.0388C63.0989 12.0388 62.9643 12.0388 62.8297 12.0195L60.1953 18.9681H62.4643L62.945 17.5398H65.9832L66.4639 18.9681H68.7329L66.0217 11.8072C65.9063 11.7879 65.7909 11.7879 65.6755 11.7879ZM63.5027 15.9184L64.4641 13.1776L65.4256 15.9184H63.5027Z" fill="#EA5EBF"/>
<path d="M78.0395 13.1584C77.8087 12.6372 77.5011 12.174 77.0973 11.7879C76.6935 11.4019 76.2127 11.0931 75.6551 10.8615C75.0975 10.6491 74.4821 10.5333 73.8284 10.5333C73.1553 10.5333 72.5592 10.6491 72.0016 10.8615C71.444 11.0738 70.9633 11.3826 70.5787 11.7879C70.1941 12.1933 69.8672 12.6372 69.6365 13.1584C69.4057 13.6795 69.3096 14.2586 69.3096 14.8569C69.3096 15.4746 69.4249 16.0343 69.6365 16.5555C69.8672 17.0766 70.1749 17.5398 70.5787 17.9259C70.9825 18.3119 71.444 18.6207 72.0016 18.8524C72.5592 19.0647 73.1553 19.1805 73.8284 19.1805C74.4821 19.1805 75.0975 19.0647 75.6551 18.8524C76.2127 18.64 76.6935 18.3312 77.0973 17.9259C77.5011 17.5205 77.8087 17.0766 78.0395 16.5555C78.2702 16.0343 78.3664 15.4553 78.3664 14.8569C78.3664 14.2392 78.251 13.6795 78.0395 13.1584ZM75.9628 15.7641C75.8474 16.0343 75.6743 16.2852 75.4628 16.4782C75.2513 16.6906 75.0013 16.845 74.7321 16.9608C74.4629 17.0766 74.1552 17.1345 73.8476 17.1345C73.5399 17.1345 73.2515 17.0766 72.9631 16.9608C72.6939 16.845 72.4439 16.6906 72.2324 16.4782C72.0208 16.2659 71.8478 16.0343 71.7324 15.7641C71.617 15.4939 71.5401 15.185 71.5401 14.8569C71.5401 14.5288 71.5978 14.2199 71.7324 13.9497C71.8478 13.6795 72.0208 13.4286 72.2324 13.2356C72.4439 13.0232 72.6939 12.8688 72.9631 12.753C73.2323 12.6372 73.5399 12.5793 73.8476 12.5793C74.1552 12.5793 74.4629 12.6372 74.7321 12.753C75.0013 12.8688 75.2513 13.0232 75.4628 13.2356C75.6743 13.4479 75.8474 13.6795 75.9628 13.9497C76.0781 14.2199 76.155 14.5288 76.155 14.8569C76.1358 15.185 76.0781 15.4939 75.9628 15.7641Z" fill="#EA5EBF"/>
<path d="M66.5981 11.286C66.5981 10.6683 66.5981 10.3595 66.5981 9.74183C65.079 9.29789 63.8291 10.1858 62.3101 9.74183V11.286C63.8484 11.7299 65.079 10.8613 66.5981 11.286Z" fill="#EA5EBF"/>
<path d="M17.0457 8.719V6.92394H12.4885L17.4688 0.515778H9.58493V2.33014H13.9307L8.93115 8.719H17.0457Z" fill="#EA5EBF"/>
<path d="M30.6598 3.70056L35.1978 8.719H37.313V0.515778H35.1978V5.53422L30.6598 0.515778H28.5254V8.719H30.6598V3.70056Z" fill="#EA5EBF"/>
<path d="M41.3895 0.515778L38.2744 8.719H40.5434L41.0241 7.29067H44.0623L44.543 8.719H46.812L43.697 0.515778H41.3895ZM41.5818 5.66933L42.5432 2.92849L43.5047 5.66933H41.5818Z" fill="#EA5EBF"/>
<path d="M59.3683 8.39087C59.849 8.15925 60.2913 7.86972 60.6566 7.48369C61.022 7.09765 61.3104 6.67302 61.5219 6.17117C61.7334 5.66933 61.8296 5.14818 61.8296 4.62704C61.8296 4.08659 61.7334 3.56544 61.5219 3.0636C61.3104 2.56176 61.022 2.13712 60.6566 1.75109C60.2913 1.38435 59.8682 1.07553 59.3683 0.843906C58.8876 0.612286 58.3492 0.515778 57.7915 0.515778H51.4268V8.719H57.7915C58.3684 8.719 58.8876 8.60318 59.3683 8.39087ZM53.5612 6.92394V2.33014H54.0419C54.4072 2.33014 57.9453 2.38804 58.2338 2.50385C58.5222 2.61966 58.7722 2.77408 58.9645 2.98639C59.1568 3.19871 59.3106 3.43033 59.426 3.71986C59.5413 4.00938 59.5798 4.29891 59.5798 4.62704C59.5798 4.95517 59.5221 5.26399 59.426 5.55352C59.3298 5.82374 59.176 6.07466 58.9645 6.28698C58.7722 6.4993 58.5222 6.65371 58.2338 6.76952C57.9453 6.88533 54.4072 6.94324 54.0227 6.94324H53.5612V6.92394Z" fill="#EA5EBF"/>
<path d="M69.7905 6.92394H65.3102V5.49561H69.6559V3.70056H65.3102V2.33014H69.7905V0.515778H63.1758V8.719H69.7905V6.92394Z" fill="#EA5EBF"/>
<path d="M24.9296 15.6482C24.8142 15.9185 24.6411 16.1694 24.4296 16.3624C24.2181 16.5747 23.9681 16.7291 23.6989 16.8449C23.4297 16.9608 23.122 17.0187 22.8144 17.0187C22.5067 17.0187 22.1991 16.9608 21.9299 16.8449C21.6606 16.7291 21.4107 16.5747 21.1992 16.3624C20.9876 16.1501 20.8146 15.9185 20.6992 15.6482C20.5838 15.378 20.5069 15.0692 20.5069 14.7411H18.2764C18.2764 15.3587 18.3917 15.9185 18.6033 16.4396C18.834 16.9608 19.1417 17.424 19.5455 17.81C19.9493 18.1961 20.4108 18.5049 20.9684 18.7365C21.526 18.9488 22.1221 19.0646 22.7951 19.0646C23.4489 19.0646 24.0643 18.9488 24.6219 18.7365C25.1795 18.5242 25.6602 18.2154 26.0641 17.81C26.4679 17.424 26.7755 16.9608 27.0063 16.4396C27.237 15.9185 27.3332 15.3394 27.3332 14.7411H25.1026C25.1218 15.0692 25.0449 15.3587 24.9296 15.6482Z" fill="#EA5EBF"/>
<path d="M20.68 3.87422C20.7953 3.604 20.9684 3.35308 21.1799 3.16006C21.3914 2.94774 21.6414 2.79333 21.9106 2.67752C22.1798 2.56171 22.4875 2.5038 22.7951 2.5038C23.1028 2.5038 23.3912 2.56171 23.6797 2.67752C23.9489 2.79333 24.1989 2.94774 24.4104 3.16006C24.6219 3.37238 24.795 3.604 24.9103 3.87422C25.0257 4.14445 25.1026 4.45328 25.1026 4.7814H27.3332C27.3332 4.16375 27.2178 3.604 27.0063 3.08285C26.7755 2.56171 26.4679 2.09847 26.0641 1.71243C25.6602 1.3264 25.1988 1.01757 24.6411 0.785953C24.0835 0.573635 23.4874 0.457825 22.8144 0.457825C22.1606 0.457825 21.5453 0.573635 20.9876 0.785953C20.43 0.998272 19.9493 1.3071 19.5455 1.71243C19.1417 2.09847 18.834 2.56171 18.6033 3.08285C18.3725 3.604 18.2764 4.18305 18.2764 4.7814H20.5069C20.5069 4.45328 20.5646 4.14445 20.68 3.87422Z" fill="#EA5EBF"/>
</svg>
