<svg width="79" height="20" viewBox="0 0 79 20" fill="none" xmlns="http://www.w3.org/2000/svg">
<path d="M6.98894 10.7456H0.35498V18.9681H2.48938V16.2466H6.98894C7.91192 16.2466 8.60416 16.015 9.10411 15.5324C9.58484 15.0499 9.83481 14.3743 9.83481 13.5057C9.83481 12.6372 9.58484 11.9616 9.10411 11.4791C8.60416 10.9965 7.91192 10.7456 6.98894 10.7456ZM6.4313 14.5287H2.48938V12.4828H6.45053C7.23891 12.4828 7.62349 12.8302 7.62349 13.5057C7.60426 14.1813 7.21969 14.5287 6.4313 14.5287Z" fill="#EA5EBF"/>
<path d="M16.5073 14.8183C16.815 14.4322 16.9496 13.9304 16.9496 13.2934C16.9496 12.946 16.8919 12.6179 16.7765 12.309C16.6612 12.0002 16.5073 11.73 16.2766 11.4984C16.0651 11.2667 15.7766 11.0737 15.4305 10.9579C15.0844 10.8228 14.6998 10.7649 14.2383 10.7649H10.9502V18.9681H13.0846V15.8026L15.1036 18.9681H17.7572L15.1805 15.5903C15.7766 15.4552 16.2189 15.2043 16.5073 14.8183ZM14.4498 14.162C14.2191 14.3357 13.9114 14.4322 13.4884 14.4322H13.0846V12.4055H13.4884C13.9114 12.4055 14.2383 12.502 14.4498 12.6758C14.6806 12.8495 14.7767 13.1004 14.7767 13.4285C14.796 13.7374 14.6806 13.9883 14.4498 14.162Z" fill="#EA5EBF"/>
<path d="M19.5455 12.7143C19.9493 13.1004 20.4108 13.4092 20.9684 13.6408C21.526 13.8531 22.1221 13.9689 22.7951 13.9689C23.4489 13.9689 24.0643 13.8531 24.6219 13.6408C25.1795 13.4285 25.6602 13.1197 26.0641 12.7143C26.4679 12.3283 26.7755 11.8651 27.0063 11.3439C27.237 10.8228 27.3332 10.2437 27.3332 9.64536C27.3332 9.0277 27.2178 8.46795 27.0063 7.94681C26.7755 7.42566 26.4679 6.96242 26.0641 6.57639C25.6602 6.19035 25.1795 5.88153 24.6219 5.64991C24.0643 5.43759 23.4489 5.32178 22.7951 5.32178C22.1221 5.32178 21.526 5.43759 20.9684 5.64991C20.4108 5.86222 19.9493 6.17105 19.5455 6.57639C19.1417 6.98172 18.834 7.42566 18.6033 7.94681C18.3725 8.46795 18.2764 9.047 18.2764 9.64536C18.2764 10.263 18.3917 10.8228 18.6033 11.3439C18.8148 11.8651 19.1609 12.309 19.5455 12.7143ZM20.68 8.71888C20.7953 8.44865 20.9684 8.19773 21.1799 8.00471C21.3914 7.79239 21.6414 7.63798 21.9106 7.52217C22.1798 7.40636 22.4875 7.34845 22.7951 7.34845C23.1028 7.34845 23.3912 7.40636 23.6797 7.52217C23.9489 7.63798 24.1989 7.79239 24.4104 8.00471C24.6219 8.21703 24.795 8.44865 24.9103 8.71888C25.0257 8.9891 25.1026 9.29793 25.1026 9.62605C25.1026 9.95418 25.0449 10.263 24.9103 10.5332C24.795 10.8035 24.6219 11.0544 24.4104 11.2474C24.1989 11.4597 23.9489 11.6141 23.6797 11.7299C23.4105 11.8457 23.1028 11.9037 22.7951 11.9037C22.4875 11.9037 22.1991 11.8457 21.9106 11.7299C21.6414 11.6141 21.3914 11.4597 21.1799 11.2474C20.9684 11.0351 20.7953 10.8035 20.68 10.5332C20.5646 10.263 20.4877 9.95418 20.4877 9.62605C20.5069 9.29793 20.5646 9.0084 20.68 8.71888Z" fill="#EA5EBF"/>
<path d="M35.4091 10.7456H28.5444V18.9681H30.6788V16.2466H35.4284C36.3514 16.2466 37.0436 16.015 37.5435 15.5324C38.0243 15.0499 38.2742 14.3743 38.2742 13.5057C38.2742 12.6372 38.0243 11.9616 37.5435 11.4791C37.0244 10.9965 36.3129 10.7456 35.4091 10.7456ZM34.8515 14.5287H30.6596V12.4828H34.8515C35.6399 12.4828 36.0245 12.8302 36.0245 13.5057C36.0245 14.1813 35.6399 14.5287 34.8515 14.5287Z" fill="#EA5EBF"/>
<path d="M44.3892 15.2236C44.3892 15.4552 44.3892 15.7061 44.3699 15.9571C44.3507 16.208 44.293 16.4396 44.1969 16.6326C44.1007 16.8449 43.9661 16.9994 43.7738 17.1345C43.5815 17.2696 43.3123 17.3275 42.947 17.3275C42.6009 17.3275 42.3124 17.2696 42.1201 17.1345C41.9279 16.9994 41.774 16.8449 41.6971 16.6326C41.601 16.4203 41.5433 16.208 41.5433 15.9571C41.5241 15.7061 41.5241 15.4552 41.5241 15.2236V10.7456H39.3896V15.5131C39.3896 16.787 39.6781 17.7328 40.2742 18.3119C40.851 18.8909 41.7548 19.1997 42.9662 19.1997C44.1776 19.1997 45.0622 18.9102 45.6583 18.3119C46.2351 17.7328 46.5236 16.787 46.5236 15.5131V10.7456H44.4084V15.2236H44.3892Z" fill="#EA5EBF"/>
<path d="M50.3305 10.7456H48.2153V18.9681H52.888V17.1538H50.3305V10.7456Z" fill="#EA5EBF"/>
<path d="M57.7724 13.9496C57.5993 13.8917 57.4262 13.8338 57.2532 13.7952C57.0801 13.7373 56.9263 13.6794 56.7725 13.6215C56.6379 13.5443 56.5225 13.4671 56.4263 13.3706C56.3302 13.2741 56.2917 13.1582 56.2917 13.0038C56.2917 12.7915 56.3879 12.6178 56.5609 12.4827C56.734 12.3476 56.9648 12.2897 57.234 12.2897C57.4455 12.2897 57.6762 12.3283 57.907 12.4248C58.1377 12.5213 58.3685 12.6564 58.5992 12.8494L59.4453 11.1895C59.0415 10.9772 58.6184 10.8034 58.1762 10.6876C57.7339 10.5718 57.3109 10.5139 56.9071 10.5139C56.4648 10.5139 56.0802 10.5718 55.7341 10.7069C55.388 10.842 55.0803 11.0158 54.8496 11.2474C54.5996 11.479 54.4265 11.7685 54.2919 12.0967C54.1573 12.4248 54.0996 12.7915 54.0996 13.1968C54.0996 13.6022 54.1573 13.9303 54.2919 14.2005C54.4265 14.4708 54.5804 14.6831 54.7919 14.8568C55.0034 15.0305 55.2342 15.1656 55.5034 15.2814C55.7726 15.3779 56.0418 15.4744 56.311 15.571C56.5417 15.6482 56.734 15.7254 56.9071 15.7833C57.0609 15.8412 57.1955 15.9184 57.3109 15.9956C57.407 16.0728 57.4839 16.15 57.5224 16.2465C57.5608 16.343 57.5801 16.4395 57.5801 16.5746C57.5801 16.787 57.5032 16.9607 57.3301 17.1151C57.157 17.2695 56.9071 17.3467 56.5609 17.3467C56.2533 17.3467 55.9456 17.2695 55.638 17.1344C55.3303 16.9993 55.0034 16.787 54.6957 16.4974L53.792 18.2153C54.6765 18.8329 55.638 19.1418 56.6571 19.1418C57.157 19.1418 57.5993 19.0839 58.0031 18.9488C58.4069 18.8136 58.7338 18.6206 59.003 18.389C59.2722 18.1381 59.4837 17.8486 59.6183 17.5204C59.7529 17.173 59.8299 16.8063 59.8299 16.3816C59.8299 15.764 59.676 15.2428 59.3491 14.8568C58.9838 14.4901 58.4646 14.1812 57.7724 13.9496Z" fill="#EA5EBF"/>
<path d="M65.6755 11.7878C65.3102 11.7878 64.9448 11.8457 64.5603 11.9037C64.1372 11.9616 63.7142 12.0388 63.2527 12.0388C63.0989 12.0388 62.9643 12.0388 62.8297 12.0195L60.1953 18.9681H62.4643L62.945 17.5397H65.9832L66.4639 18.9681H68.7329L66.0217 11.8071C65.9063 11.7878 65.7909 11.7878 65.6755 11.7878ZM63.5027 15.9184L64.4641 13.1776L65.4256 15.9184H63.5027Z" fill="#EA5EBF"/>
<path d="M78.0395 13.1582C77.8087 12.6371 77.5011 12.1738 77.0973 11.7878C76.6935 11.4018 76.2127 11.093 75.6551 10.8613C75.0975 10.649 74.4821 10.5332 73.8284 10.5332C73.1553 10.5332 72.5592 10.649 72.0016 10.8613C71.444 11.0737 70.9633 11.3825 70.5787 11.7878C70.1941 12.1931 69.8672 12.6371 69.6365 13.1582C69.4057 13.6794 69.3096 14.2584 69.3096 14.8568C69.3096 15.4744 69.4249 16.0342 69.6365 16.5553C69.8672 17.0765 70.1749 17.5397 70.5787 17.9258C70.9825 18.3118 71.444 18.6206 72.0016 18.8522C72.5592 19.0646 73.1553 19.1804 73.8284 19.1804C74.4821 19.1804 75.0975 19.0646 75.6551 18.8522C76.2127 18.6399 76.6935 18.3311 77.0973 17.9258C77.5011 17.5204 77.8087 17.0765 78.0395 16.5553C78.2702 16.0342 78.3664 15.4551 78.3664 14.8568C78.3664 14.2391 78.251 13.6794 78.0395 13.1582ZM75.9628 15.764C75.8474 16.0342 75.6743 16.2851 75.4628 16.4781C75.2513 16.6904 75.0013 16.8449 74.7321 16.9607C74.4629 17.0765 74.1552 17.1344 73.8476 17.1344C73.5399 17.1344 73.2515 17.0765 72.9631 16.9607C72.6939 16.8449 72.4439 16.6904 72.2324 16.4781C72.0208 16.2658 71.8478 16.0342 71.7324 15.764C71.617 15.4937 71.5401 15.1849 71.5401 14.8568C71.5401 14.5287 71.5978 14.2198 71.7324 13.9496C71.8478 13.6794 72.0208 13.4285 72.2324 13.2354C72.4439 13.0231 72.6939 12.8687 72.9631 12.7529C73.2323 12.6371 73.5399 12.5792 73.8476 12.5792C74.1552 12.5792 74.4629 12.6371 74.7321 12.7529C75.0013 12.8687 75.2513 13.0231 75.4628 13.2354C75.6743 13.4478 75.8474 13.6794 75.9628 13.9496C76.0781 14.2198 76.155 14.5287 76.155 14.8568C76.1358 15.1849 76.0781 15.4937 75.9628 15.764Z" fill="#EA5EBF"/>
<path d="M66.5981 11.2858C66.5981 10.6682 66.5981 10.3593 66.5981 9.74168C65.079 9.29774 63.8291 10.1856 62.3101 9.74168V11.2858C63.8484 11.7298 65.079 10.8612 66.5981 11.2858Z" fill="#EA5EBF"/>
<path d="M17.0457 8.71909V6.92403H12.4885L17.4688 0.515869H9.58493V2.33023H13.9307L8.93115 8.71909H17.0457Z" fill="#EA5EBF"/>
<path d="M30.6598 3.70065L35.1978 8.71909H37.313V0.515869H35.1978V5.53431L30.6598 0.515869H28.5254V8.71909H30.6598V3.70065Z" fill="#EA5EBF"/>
<path d="M41.3895 0.515869L38.2744 8.71909H40.5434L41.0241 7.29076H44.0623L44.543 8.71909H46.812L43.697 0.515869H41.3895ZM41.5818 5.66942L42.5432 2.92858L43.5047 5.66942H41.5818Z" fill="#EA5EBF"/>
<path d="M59.3683 8.39096C59.849 8.15934 60.2913 7.86981 60.6566 7.48378C61.022 7.09774 61.3104 6.67311 61.5219 6.17126C61.7334 5.66942 61.8296 5.14827 61.8296 4.62713C61.8296 4.08668 61.7334 3.56554 61.5219 3.06369C61.3104 2.56185 61.022 2.13721 60.6566 1.75118C60.2913 1.38445 59.8682 1.07562 59.3683 0.843998C58.8876 0.612378 58.3492 0.515869 57.7915 0.515869H51.4268V8.71909H57.7915C58.3684 8.71909 58.8876 8.60328 59.3683 8.39096ZM53.5612 6.92403V2.33023H54.0419C54.4072 2.33023 57.9453 2.38813 58.2338 2.50394C58.5222 2.61975 58.7722 2.77417 58.9645 2.98649C59.1568 3.1988 59.3106 3.43042 59.426 3.71995C59.5413 4.00947 59.5798 4.299 59.5798 4.62713C59.5798 4.95526 59.5221 5.26408 59.426 5.55361C59.3298 5.82383 59.176 6.07476 58.9645 6.28707C58.7722 6.49939 58.5222 6.65381 58.2338 6.76962C57.9453 6.88543 54.4072 6.94333 54.0227 6.94333H53.5612V6.92403Z" fill="#EA5EBF"/>
<path d="M69.7905 6.92403H65.3102V5.49571H69.6559V3.70065H65.3102V2.33023H69.7905V0.515869H63.1758V8.71909H69.7905V6.92403Z" fill="#EA5EBF"/>
<path d="M24.9296 15.6481C24.8142 15.9184 24.6411 16.1693 24.4296 16.3623C24.2181 16.5746 23.9681 16.729 23.6989 16.8449C23.4297 16.9607 23.122 17.0186 22.8144 17.0186C22.5067 17.0186 22.1991 16.9607 21.9299 16.8449C21.6606 16.729 21.4107 16.5746 21.1992 16.3623C20.9876 16.15 20.8146 15.9184 20.6992 15.6481C20.5838 15.3779 20.5069 15.0691 20.5069 14.741H18.2764C18.2764 15.3586 18.3917 15.9184 18.6033 16.4395C18.834 16.9607 19.1417 17.4239 19.5455 17.8099C19.9493 18.196 20.4108 18.5048 20.9684 18.7364C21.526 18.9487 22.1221 19.0645 22.7951 19.0645C23.4489 19.0645 24.0643 18.9487 24.6219 18.7364C25.1795 18.5241 25.6602 18.2153 26.0641 17.8099C26.4679 17.4239 26.7755 16.9607 27.0063 16.4395C27.237 15.9184 27.3332 15.3393 27.3332 14.741H25.1026C25.1218 15.0691 25.0449 15.3586 24.9296 15.6481Z" fill="#EA5EBF"/>
<path d="M20.68 3.87416C20.7953 3.60394 20.9684 3.35302 21.1799 3.16C21.3914 2.94768 21.6414 2.79327 21.9106 2.67746C22.1798 2.56165 22.4875 2.50374 22.7951 2.50374C23.1028 2.50374 23.3912 2.56165 23.6797 2.67746C23.9489 2.79327 24.1989 2.94768 24.4104 3.16C24.6219 3.37232 24.795 3.60394 24.9103 3.87416C25.0257 4.14439 25.1026 4.45321 25.1026 4.78134H27.3332C27.3332 4.16369 27.2178 3.60394 27.0063 3.08279C26.7755 2.56165 26.4679 2.09841 26.0641 1.71237C25.6602 1.32634 25.1988 1.01751 24.6411 0.785892C24.0835 0.573574 23.4874 0.457764 22.8144 0.457764C22.1606 0.457764 21.5453 0.573574 20.9876 0.785892C20.43 0.998211 19.9493 1.30704 19.5455 1.71237C19.1417 2.09841 18.834 2.56165 18.6033 3.08279C18.3725 3.60394 18.2764 4.18299 18.2764 4.78134H20.5069C20.5069 4.45321 20.5646 4.14439 20.68 3.87416Z" fill="#EA5EBF"/>
</svg>
