<svg width="68" height="25" viewBox="0 0 68 25" fill="none" xmlns="http://www.w3.org/2000/svg">
<path d="M8.65031 0.229004H0.143066V24.3445H8.65031V0.229004Z" fill="#EA5EBF"/>
<path d="M10.5391 0.22876V24.3442C15.167 24.3442 19.795 21.1505 19.795 11.9449C19.812 4.00321 15.184 0.22876 10.5391 0.22876Z" fill="#EA5EBF"/>
<path d="M30.9561 8.69981C30.9561 6.71865 29.646 5.79639 28.1657 5.79639H24.0142V11.6203H28.1657C29.646 11.6032 30.9561 10.681 30.9561 8.69981ZM25.4774 10.3565V7.04315H27.6042C28.7102 7.04315 29.4758 7.28225 29.4758 8.69981C29.4758 10.1174 28.7272 10.3565 27.6042 10.3565H25.4774Z" fill="#EA5EBF"/>
<path d="M34.9037 6.6333C32.947 6.6333 31.5688 7.3677 31.5688 9.17806C31.5688 10.9714 32.9981 11.7057 34.8186 11.7057C36.6051 11.7057 37.7961 11.108 38.1194 9.86122H36.7242C36.3669 10.3565 35.7884 10.5444 34.8186 10.5444C33.8828 10.5444 33.1512 10.2882 32.9981 9.50256H38.2045C38.2045 7.26522 36.7242 6.6333 34.9037 6.6333ZM33.0491 8.59738C33.2703 7.91422 33.9339 7.70927 34.9037 7.70927C35.7884 7.70927 36.469 7.89714 36.7072 8.59738H33.0491Z" fill="#EA5EBF"/>
<path d="M38.6299 9.89539C38.6299 11.4666 40.3484 11.7058 42.2029 11.7058C44.0575 11.7058 45.2826 11.4666 45.2826 10.0833C45.2826 8.78526 43.9895 8.73402 42.1179 8.58031C40.4504 8.46076 40.1952 8.40952 40.1952 8.1021C40.1952 7.81176 40.5695 7.72636 41.8967 7.72636C43.1898 7.72636 43.7002 7.82884 43.7002 8.23873H45.1124C45.1124 6.8895 43.7853 6.65039 41.9817 6.65039C40.2633 6.65039 38.783 6.88949 38.783 8.17041C38.783 9.34886 39.8209 9.51965 41.9477 9.6392C43.6492 9.74168 43.8704 9.77583 43.8704 10.1516C43.8704 10.5273 43.6322 10.6298 42.1179 10.6298C40.5525 10.6298 40.0251 10.4248 40.0251 9.91246H38.6299V9.89539Z" fill="#EA5EBF"/>
<path d="M47.3415 4.95972H45.9463V6.20648H47.3415V4.95972Z" fill="#EA5EBF"/>
<path d="M47.3415 6.71875H45.9463V11.6204H47.3415V6.71875Z" fill="#EA5EBF"/>
<path d="M50.812 11.552C51.9519 11.552 52.7686 11.2275 53.245 10.681C53.194 11.9449 52.6495 12.5085 51.2033 12.5085C50.1314 12.5085 49.0595 12.2694 48.498 12.1669V13.3112C48.9574 13.4307 50.1144 13.704 51.5266 13.704C53.3471 13.704 54.6743 12.833 54.6743 10.8518V6.73579H53.2621V7.52141C52.7857 6.97489 51.969 6.65039 50.829 6.65039C49.1786 6.65039 48.0046 7.38478 48.0046 9.10976C47.9876 10.8176 49.1616 11.552 50.812 11.552ZM51.3224 7.82884C52.6325 7.82884 53.2621 8.20457 53.2621 9.10976C53.2621 10.0149 52.6495 10.3736 51.3224 10.3907C49.9953 10.3907 49.3828 10.0149 49.3828 9.10976C49.3828 8.18749 50.0123 7.82884 51.3224 7.82884Z" fill="#EA5EBF"/>
<path d="M60.7657 11.6033H62.1779L62.1949 8.88771C62.1779 7.07734 60.9699 6.61621 59.6938 6.61621C58.5198 6.61621 57.567 7.00903 56.8864 7.55555V6.70161H55.4912V11.6033H56.8864V8.85355C57.3288 8.34118 58.3326 7.84589 59.2854 7.84589C60.4424 7.84589 60.7827 8.39242 60.7827 9.43424V11.6033H60.7657Z" fill="#EA5EBF"/>
<path d="M26.8897 13.5505L23.9292 19.3745H25.5456L26.1581 18.1277H29.595L30.2075 19.3745H31.8409L28.8804 13.5505H26.8897ZM26.7196 17.0176L27.8936 14.6607L29.0506 17.0176H26.7196Z" fill="#EA5EBF"/>
<path d="M33.7469 13.0549L32.3347 13.4648V14.4725H31.0586V15.668H32.3347V17.9054C32.3347 18.9813 33.1344 19.4595 34.3764 19.4595C35.023 19.4595 35.5504 19.4254 36.0268 19.34V18.1957C35.4653 18.2811 35.2101 18.2811 34.7677 18.2811C33.917 18.2811 33.7299 18.042 33.7299 17.0856V15.668H36.0438V14.4725H33.7639V13.0549H33.7469Z" fill="#EA5EBF"/>
<path d="M38.1193 14.4727H36.7241V19.3743H38.1193V14.4727Z" fill="#EA5EBF"/>
<path d="M38.1193 12.7307H36.7241V13.9775H38.1193V12.7307Z" fill="#EA5EBF"/>
<path d="M42.0839 18.3667L40.1953 14.4727H38.647L41.08 19.3743H43.0707L45.5208 14.4727H43.9725L42.0839 18.3667Z" fill="#EA5EBF"/>
<path d="M47.3923 14.4727H45.9971V19.3743H47.3923V14.4727Z" fill="#EA5EBF"/>
<path d="M47.3923 12.7307H45.9971V13.9775H47.3923V12.7307Z" fill="#EA5EBF"/>
<path d="M51.5265 16.3342C49.8591 16.2147 49.6039 16.1634 49.6039 15.856C49.6039 15.5657 49.9782 15.4803 51.3054 15.4803C52.5985 15.4803 53.1089 15.5827 53.1089 15.9926H54.5211C54.5211 14.6434 53.194 14.4043 51.3904 14.4043C49.672 14.4043 48.1917 14.6434 48.1917 15.9243C48.1917 17.1028 49.2296 17.2736 51.3564 17.3931C53.0579 17.4956 53.279 17.5297 53.279 17.9055C53.279 18.2812 53.0408 18.3837 51.5265 18.3837C49.9612 18.3837 49.4338 18.1787 49.4338 17.6664H48.0386C48.0386 19.2376 49.757 19.4767 51.6116 19.4767C53.4662 19.4767 54.6912 19.2376 54.6912 17.8542C54.7083 16.5221 53.4152 16.4879 51.5265 16.3342Z" fill="#EA5EBF"/>
<path d="M57.6351 13.0549L56.2229 13.4648V14.4725H54.9468V15.668H56.2229V17.9054C56.2229 18.9813 57.0225 19.4595 58.2646 19.4595C58.9112 19.4595 59.4386 19.4254 59.915 19.34V18.1957C59.3535 18.2811 59.0983 18.2811 58.6559 18.2811C57.8052 18.2811 57.618 18.042 57.618 17.0856V15.668H59.898V14.4725H57.618V13.0549H57.6351Z" fill="#EA5EBF"/>
<path d="M63.8284 14.3872C62.8246 14.3872 61.8547 14.5751 60.8679 14.8996L61.3613 15.9414C62.3482 15.634 63.1138 15.5827 63.7604 15.5827C64.4239 15.5827 65.5979 15.651 65.5979 16.5904C64.9684 16.3684 64.2027 16.2488 63.386 16.2488C61.8547 16.2488 60.4766 16.6416 60.4766 17.9225C60.4766 19.0327 61.3273 19.4767 62.6714 19.4767C63.8114 19.4767 64.7472 19.2035 65.5979 18.7936V19.4084H67.0101V16.932C66.9931 15.0533 65.8531 14.3872 63.8284 14.3872ZM65.5979 17.8542C64.8833 18.1787 63.8284 18.4178 63.0628 18.4178C62.3311 18.4178 61.8717 18.3837 61.8717 17.8542C61.8717 17.3589 62.5013 17.1711 63.5562 17.1711C64.4409 17.1711 65.1045 17.3077 65.5979 17.4785V17.8542Z" fill="#EA5EBF"/>
</svg>
