<svg width="79" height="20" viewBox="0 0 79 20" fill="none" xmlns="http://www.w3.org/2000/svg">
<path d="M6.98845 10.7455H0.354492V18.9681H2.4889V16.2465H6.98845C7.91144 16.2465 8.60368 16.0149 9.10363 15.5324C9.58435 15.0498 9.83432 14.3743 9.83432 13.5057C9.83432 12.6371 9.58435 11.9616 9.10363 11.479C8.60368 10.9965 7.91144 10.7455 6.98845 10.7455ZM6.43081 14.5287H2.4889V12.4827H6.45004C7.23843 12.4827 7.623 12.8301 7.623 13.5057C7.60377 14.1812 7.2192 14.5287 6.43081 14.5287Z" fill="#EA5EBF"/>
<path d="M16.5064 14.8183C16.814 14.4322 16.9486 13.9304 16.9486 13.2934C16.9486 12.946 16.8909 12.6179 16.7756 12.309C16.6602 12.0002 16.5064 11.73 16.2756 11.4984C16.0641 11.2667 15.7757 11.0737 15.4295 10.9579C15.0834 10.8228 14.6988 10.7649 14.2374 10.7649H10.9492V18.9681H13.0836V15.8026L15.1027 18.9681H17.7562L15.1796 15.5903C15.7757 15.4552 16.2179 15.2043 16.5064 14.8183ZM14.4489 14.162C14.2181 14.3357 13.9105 14.4322 13.4874 14.4322H13.0836V12.4055H13.4874C13.9105 12.4055 14.2374 12.502 14.4489 12.6758C14.6796 12.8495 14.7758 13.1004 14.7758 13.4285C14.795 13.7374 14.6796 13.9883 14.4489 14.162Z" fill="#EA5EBF"/>
<path d="M19.5445 12.7144C19.9483 13.1005 20.4098 13.4093 20.9674 13.6409C21.5251 13.8532 22.1212 13.9691 22.7942 13.9691C23.448 13.9691 24.0633 13.8532 24.6209 13.6409C25.1786 13.4286 25.6593 13.1198 26.0631 12.7144C26.4669 12.3284 26.7745 11.8652 27.0053 11.344C27.236 10.8229 27.3322 10.2438 27.3322 9.64548C27.3322 9.02782 27.2168 8.46808 27.0053 7.94693C26.7745 7.42578 26.4669 6.96254 26.0631 6.57651C25.6593 6.19048 25.1786 5.88165 24.6209 5.65003C24.0633 5.43771 23.448 5.3219 22.7942 5.3219C22.1212 5.3219 21.5251 5.43771 20.9674 5.65003C20.4098 5.86235 19.9483 6.17117 19.5445 6.57651C19.1407 6.98184 18.833 7.42578 18.6023 7.94693C18.3715 8.46808 18.2754 9.04713 18.2754 9.64548C18.2754 10.2631 18.3908 10.8229 18.6023 11.344C18.8138 11.8652 19.1599 12.3091 19.5445 12.7144ZM20.679 8.719C20.7944 8.44877 20.9674 8.19785 21.1789 8.00483C21.3905 7.79252 21.6404 7.6381 21.9096 7.52229C22.1788 7.40648 22.4865 7.34858 22.7942 7.34858C23.1018 7.34858 23.3903 7.40648 23.6787 7.52229C23.9479 7.6381 24.1979 7.79252 24.4094 8.00483C24.6209 8.21715 24.794 8.44877 24.9093 8.719C25.0247 8.98922 25.1016 9.29805 25.1016 9.62618C25.1016 9.9543 25.0439 10.2631 24.9093 10.5334C24.794 10.8036 24.6209 11.0545 24.4094 11.2475C24.1979 11.4598 23.9479 11.6143 23.6787 11.7301C23.4095 11.8459 23.1018 11.9038 22.7942 11.9038C22.4865 11.9038 22.1981 11.8459 21.9096 11.7301C21.6404 11.6143 21.3905 11.4598 21.1789 11.2475C20.9674 11.0352 20.7944 10.8036 20.679 10.5334C20.5636 10.2631 20.4867 9.9543 20.4867 9.62618C20.5059 9.29805 20.5636 9.00852 20.679 8.719Z" fill="#EA5EBF"/>
<path d="M35.4087 10.7455H28.5439V18.9681H30.6783V16.2465H35.4279C36.3509 16.2465 37.0431 16.0149 37.5431 15.5324C38.0238 15.0498 38.2737 14.3743 38.2737 13.5057C38.2737 12.6371 38.0238 11.9616 37.5431 11.479C37.0239 10.9965 36.3124 10.7455 35.4087 10.7455ZM34.851 14.5287H30.6591V12.4827H34.851C35.6394 12.4827 36.024 12.8301 36.024 13.5057C36.024 14.1812 35.6394 14.5287 34.851 14.5287Z" fill="#EA5EBF"/>
<path d="M44.3882 15.2235C44.3882 15.4552 44.3882 15.7061 44.3689 15.957C44.3497 16.2079 44.292 16.4395 44.1959 16.6326C44.0997 16.8449 43.9651 16.9993 43.7729 17.1344C43.5806 17.2695 43.3114 17.3274 42.946 17.3274C42.5999 17.3274 42.3115 17.2695 42.1192 17.1344C41.9269 16.9993 41.7731 16.8449 41.6961 16.6326C41.6 16.4202 41.5423 16.2079 41.5423 15.957C41.5231 15.7061 41.5231 15.4552 41.5231 15.2235V10.7455H39.3887V15.5131C39.3887 16.787 39.6771 17.7328 40.2732 18.3118C40.8501 18.8909 41.7538 19.1997 42.9652 19.1997C44.1767 19.1997 45.0612 18.9102 45.6573 18.3118C46.2341 17.7328 46.5226 16.787 46.5226 15.5131V10.7455H44.4074V15.2235H44.3882Z" fill="#EA5EBF"/>
<path d="M50.33 10.7455H48.2148V18.9681H52.8875V17.1537H50.33V10.7455Z" fill="#EA5EBF"/>
<path d="M57.7714 13.9497C57.5983 13.8918 57.4253 13.8339 57.2522 13.7953C57.0792 13.7374 56.9253 13.6795 56.7715 13.6216C56.6369 13.5444 56.5215 13.4672 56.4254 13.3707C56.3292 13.2742 56.2908 13.1584 56.2908 13.004C56.2908 12.7916 56.3869 12.6179 56.56 12.4828C56.733 12.3477 56.9638 12.2898 57.233 12.2898C57.4445 12.2898 57.6752 12.3284 57.906 12.4249C58.1367 12.5214 58.3675 12.6565 58.5982 12.8495L59.4443 11.1896C59.0405 10.9773 58.6175 10.8036 58.1752 10.6878C57.7329 10.5719 57.3099 10.514 56.9061 10.514C56.4638 10.514 56.0792 10.5719 55.7331 10.7071C55.387 10.8422 55.0793 11.0159 54.8486 11.2475C54.5986 11.4791 54.4256 11.7686 54.291 12.0968C54.1564 12.4249 54.0987 12.7916 54.0987 13.197C54.0987 13.6023 54.1564 13.9304 54.291 14.2007C54.4256 14.4709 54.5794 14.6832 54.7909 14.8569C55.0024 15.0306 55.2332 15.1657 55.5024 15.2816C55.7716 15.3781 56.0408 15.4746 56.31 15.5711C56.5407 15.6483 56.733 15.7255 56.9061 15.7834C57.0599 15.8413 57.1945 15.9185 57.3099 15.9957C57.406 16.0729 57.483 16.1501 57.5214 16.2466C57.5599 16.3431 57.5791 16.4397 57.5791 16.5748C57.5791 16.7871 57.5022 16.9608 57.3291 17.1152C57.1561 17.2696 56.9061 17.3468 56.56 17.3468C56.2523 17.3468 55.9446 17.2696 55.637 17.1345C55.3293 16.9994 55.0024 16.7871 54.6948 16.4976L53.791 18.2154C54.6755 18.8331 55.637 19.1419 56.6561 19.1419C57.1561 19.1419 57.5983 19.084 58.0021 18.9489C58.4059 18.8138 58.7328 18.6207 59.002 18.3891C59.2712 18.1382 59.4828 17.8487 59.6174 17.5205C59.752 17.1731 59.8289 16.8064 59.8289 16.3818C59.8289 15.7641 59.675 15.243 59.3482 14.8569C58.9828 14.4902 58.4636 14.1814 57.7714 13.9497Z" fill="#EA5EBF"/>
<path d="M65.6746 11.7879C65.3092 11.7879 64.9439 11.8458 64.5593 11.9037C64.1363 11.9616 63.7132 12.0388 63.2517 12.0388C63.0979 12.0388 62.9633 12.0388 62.8287 12.0195L60.1943 18.9681H62.4633L62.9441 17.5398H65.9822L66.4629 18.9681H68.7319L66.0207 11.8072C65.9053 11.7879 65.7899 11.7879 65.6746 11.7879ZM63.5017 15.9185L64.4631 13.1776L65.4246 15.9185H63.5017Z" fill="#EA5EBF"/>
<path d="M78.0395 13.1584C77.8087 12.6372 77.5011 12.174 77.0973 11.7879C76.6935 11.4019 76.2127 11.0931 75.6551 10.8615C75.0975 10.6491 74.4821 10.5333 73.8284 10.5333C73.1553 10.5333 72.5592 10.6491 72.0016 10.8615C71.444 11.0738 70.9633 11.3826 70.5787 11.7879C70.1941 12.1933 69.8672 12.6372 69.6365 13.1584C69.4057 13.6795 69.3096 14.2586 69.3096 14.8569C69.3096 15.4746 69.4249 16.0343 69.6365 16.5555C69.8672 17.0766 70.1749 17.5398 70.5787 17.9259C70.9825 18.3119 71.444 18.6207 72.0016 18.8524C72.5592 19.0647 73.1553 19.1805 73.8284 19.1805C74.4821 19.1805 75.0975 19.0647 75.6551 18.8524C76.2127 18.64 76.6935 18.3312 77.0973 17.9259C77.5011 17.5205 77.8087 17.0766 78.0395 16.5555C78.2702 16.0343 78.3664 15.4553 78.3664 14.8569C78.3664 14.2392 78.251 13.6795 78.0395 13.1584ZM75.9628 15.7641C75.8474 16.0343 75.6743 16.2852 75.4628 16.4782C75.2513 16.6906 75.0013 16.845 74.7321 16.9608C74.4629 17.0766 74.1552 17.1345 73.8476 17.1345C73.5399 17.1345 73.2515 17.0766 72.9631 16.9608C72.6939 16.845 72.4439 16.6906 72.2324 16.4782C72.0208 16.2659 71.8478 16.0343 71.7324 15.7641C71.617 15.4939 71.5401 15.185 71.5401 14.8569C71.5401 14.5288 71.5978 14.2199 71.7324 13.9497C71.8478 13.6795 72.0208 13.4286 72.2324 13.2356C72.4439 13.0232 72.6939 12.8688 72.9631 12.753C73.2323 12.6372 73.5399 12.5793 73.8476 12.5793C74.1552 12.5793 74.4629 12.6372 74.7321 12.753C75.0013 12.8688 75.2513 13.0232 75.4628 13.2356C75.6743 13.4479 75.8474 13.6795 75.9628 13.9497C76.0781 14.2199 76.155 14.5288 76.155 14.8569C76.1358 15.185 76.0781 15.4939 75.9628 15.7641Z" fill="#EA5EBF"/>
<path d="M66.5976 11.286C66.5976 10.6683 66.5976 10.3595 66.5976 9.74186C65.0785 9.29792 63.8286 10.1858 62.3096 9.74186V11.286C63.8479 11.7299 65.0785 10.8614 66.5976 11.286Z" fill="#EA5EBF"/>
<path d="M17.0452 8.71903V6.92397H12.488L17.4683 0.515808H9.58444V2.33017H13.9302L8.93066 8.71903H17.0452Z" fill="#EA5EBF"/>
<path d="M30.6588 3.70059L35.1968 8.71903H37.312V0.515808H35.1968V5.53425L30.6588 0.515808H28.5244V8.71903H30.6588V3.70059Z" fill="#EA5EBF"/>
<path d="M41.3885 0.515808L38.2734 8.71903H40.5424L41.0232 7.2907H44.0613L44.542 8.71903H46.8111L43.696 0.515808H41.3885ZM41.5808 5.66936L42.5422 2.92852L43.5037 5.66936H41.5808Z" fill="#EA5EBF"/>
<path d="M59.3683 8.3909C59.849 8.15928 60.2913 7.86975 60.6566 7.48372C61.022 7.09768 61.3104 6.67305 61.5219 6.1712C61.7334 5.66936 61.8296 5.14821 61.8296 4.62707C61.8296 4.08662 61.7334 3.56547 61.5219 3.06363C61.3104 2.56179 61.022 2.13715 60.6566 1.75112C60.2913 1.38438 59.8682 1.07556 59.3683 0.843937C58.8876 0.612317 58.3492 0.515808 57.7915 0.515808H51.4268V8.71903H57.7915C58.3684 8.71903 58.8876 8.60322 59.3683 8.3909ZM53.5612 6.92397V2.33017H54.0419C54.4072 2.33017 57.9453 2.38807 58.2338 2.50388C58.5222 2.61969 58.7722 2.77411 58.9645 2.98642C59.1568 3.19874 59.3106 3.43036 59.426 3.71989C59.5413 4.00941 59.5798 4.29894 59.5798 4.62707C59.5798 4.9552 59.5221 5.26402 59.426 5.55355C59.3298 5.82377 59.176 6.07469 58.9645 6.28701C58.7722 6.49933 58.5222 6.65374 58.2338 6.76955C57.9453 6.88537 54.4072 6.94327 54.0227 6.94327H53.5612V6.92397Z" fill="#EA5EBF"/>
<path d="M69.7895 6.92397H65.3092V5.49564H69.6549V3.70059H65.3092V2.33017H69.7895V0.515808H63.1748V8.71903H69.7895V6.92397Z" fill="#EA5EBF"/>
<path d="M24.9286 15.6483C24.8132 15.9185 24.6401 16.1694 24.4286 16.3624C24.2171 16.5748 23.9671 16.7292 23.6979 16.845C23.4287 16.9608 23.1211 17.0187 22.8134 17.0187C22.5057 17.0187 22.1981 16.9608 21.9289 16.845C21.6597 16.7292 21.4097 16.5748 21.1982 16.3624C20.9867 16.1501 20.8136 15.9185 20.6982 15.6483C20.5829 15.378 20.5059 15.0692 20.5059 14.7411H18.2754C18.2754 15.3587 18.3908 15.9185 18.6023 16.4396C18.833 16.9608 19.1407 17.424 19.5445 17.8101C19.9483 18.1961 20.4098 18.5049 20.9674 18.7365C21.5251 18.9489 22.1212 19.0647 22.7942 19.0647C23.448 19.0647 24.0633 18.9489 24.6209 18.7365C25.1786 18.5242 25.6593 18.2154 26.0631 17.8101C26.4669 17.424 26.7745 16.9608 27.0053 16.4396C27.236 15.9185 27.3322 15.3394 27.3322 14.7411H25.1016C25.1209 15.0692 25.044 15.3587 24.9286 15.6483Z" fill="#EA5EBF"/>
<path d="M20.679 3.87429C20.7944 3.60406 20.9674 3.35314 21.1789 3.16012C21.3905 2.9478 21.6404 2.79339 21.9096 2.67758C22.1788 2.56177 22.4865 2.50387 22.7942 2.50387C23.1018 2.50387 23.3903 2.56177 23.6787 2.67758C23.9479 2.79339 24.1979 2.9478 24.4094 3.16012C24.6209 3.37244 24.794 3.60406 24.9093 3.87429C25.0247 4.14451 25.1016 4.45334 25.1016 4.78147H27.3322C27.3322 4.16381 27.2168 3.60406 27.0053 3.08292C26.7745 2.56177 26.4669 2.09853 26.0631 1.7125C25.6593 1.32646 25.1978 1.01763 24.6401 0.786014C24.0825 0.573696 23.4864 0.457886 22.8134 0.457886C22.1596 0.457886 21.5443 0.573696 20.9867 0.786014C20.429 0.998333 19.9483 1.30716 19.5445 1.7125C19.1407 2.09853 18.833 2.56177 18.6023 3.08292C18.3715 3.60406 18.2754 4.18311 18.2754 4.78147H20.5059C20.5059 4.45334 20.5636 4.14451 20.679 3.87429Z" fill="#EA5EBF"/>
</svg>
