<svg width="57" height="101" viewBox="0 0 57 101" fill="none" xmlns="http://www.w3.org/2000/svg">
<path d="M13.9406 100.001L8.16016 78.5796L25.5016 70.4189L39.4428 78.5796L31.6221 100.001L25.5016 80.6198H22.7814L13.9406 100.001Z" fill="#FFBEEB"/>
<circle cx="23.5496" cy="20.0955" r="6.80057" fill="#FFBEEB"/>
<path d="M23.549 9.21484L25.3158 12.2751H21.7821L23.549 9.21484Z" fill="#FFBEEB"/>
<path d="M23.549 30.9775L25.3158 27.9173H21.7821L23.549 30.9775Z" fill="#FFBEEB"/>
<path d="M12.668 20.0956L15.7282 18.3287V21.8624L12.668 20.0956Z" fill="#FFBEEB"/>
<path d="M34.4297 20.0956L31.3694 18.3287V21.8624L34.4297 20.0956Z" fill="#FFBEEB"/>
<path d="M15.8538 12.4041L19.267 13.3186L16.7683 15.8173L15.8538 12.4041Z" fill="#FFBEEB"/>
<path d="M31.2434 27.7918L30.3288 24.3785L27.8301 26.8772L31.2434 27.7918Z" fill="#FFBEEB"/>
<path d="M15.8562 27.7898L16.7708 24.3765L19.2695 26.8752L15.8562 27.7898Z" fill="#FFBEEB"/>
<path d="M31.2429 12.4011L27.8297 13.3157L30.3283 15.8144L31.2429 12.4011Z" fill="#FFBEEB"/>
<path d="M25.5229 86.9835L2.49344 80.0141C1.06315 79.5812 0.169507 78.1617 0.39755 76.6849L6.61721 36.4052C6.91836 34.4549 8.59691 33.0156 10.5704 33.0156H36.3784C38.341 33.0156 40.0137 34.4395 40.3271 36.3769L46.8681 76.8125C47.0979 78.2328 46.2869 79.6162 44.9354 80.1096L26.1555 86.9658C25.9521 87.04 25.7301 87.0462 25.5229 86.9835Z" fill="#EA5EBF"/>
<path d="M46.471 1.66699C41.871 1.66699 38.1377 5.40033 38.1377 10.0003C38.1377 14.6003 41.871 18.3337 46.471 18.3337C51.071 18.3337 54.8044 14.6003 54.8044 10.0003C54.8044 5.40033 51.071 1.66699 46.471 1.66699ZM44.8044 14.167L40.6377 10.0003L41.8127 8.82533L44.8044 11.8087L51.1294 5.48366L52.3044 6.66699L44.8044 14.167Z" fill="#48FEA7"/>
</svg>
