<svg width="1440" height="360" viewBox="0 0 1440 360" fill="none" xmlns="http://www.w3.org/2000/svg">
<g opacity="0.6">
<path d="M872.302 116.213L384.212 604.304L-103.878 116.213L384.212 -371.877L872.302 116.213Z" stroke="#4D068A" stroke-width="3"/>
<path d="M461.213 507.527L69.9001 116.214L461.213 -275.099L852.527 116.214L461.213 507.527Z" stroke="#771F5C"/>
<path d="M-68.1801 194.762L610.793 873.735L1289.77 194.762L610.793 -484.212L-68.1801 194.762Z" stroke="#4D068A" stroke-miterlimit="10"/>
<path d="M610.786 -509.15L-93.1505 194.787L610.786 898.724L1314.72 194.787L610.786 -509.15Z" stroke="#4D068A" stroke-width="1.25" stroke-miterlimit="10"/>
<path d="M610.751 -534.113L-118.15 194.787L610.751 923.688L1339.65 194.787L610.751 -534.113Z" stroke="#4D068A" stroke-width="1.5" stroke-miterlimit="10"/>
<path d="M610.784 -559.077L-143.08 194.787L610.784 948.651L1364.65 194.787L610.784 -559.077Z" stroke="#4D068A" stroke-width="1.75" stroke-miterlimit="10"/>
<path d="M610.785 -584.078L-168.079 194.787L610.785 973.652L1389.65 194.787L610.785 -584.078Z" stroke="#4D068A" stroke-width="2" stroke-miterlimit="10"/>
<path d="M610.823 -609.041L-193.006 194.787L610.823 998.616L1414.65 194.787L610.823 -609.041Z" stroke="#4D068A" stroke-width="2.15" stroke-miterlimit="10"/>
<path d="M-218 194.792L610.792 1023.58L1439.58 194.792L610.792 -634.001L-218 194.792Z" stroke="#4D068A" stroke-width="2.5" stroke-miterlimit="10"/>
</g>
</svg>
