<svg width="70" height="34" viewBox="0 0 70 34" fill="none" xmlns="http://www.w3.org/2000/svg">
<g clip-path="url(#clip0)">
<path d="M0.800049 5.84275V0.0761719H3.10835V1.00967H1.73647V2.7122L1.74956 2.69912C2.11846 2.33095 2.62486 2.02814 3.10835 2.09131V3.19365C2.60413 3.03244 2.07807 3.41042 1.73647 3.86682V5.84275H0.800049Z" fill="white"/>
<path d="M11.5885 4.90925V5.84275H9.28125V0.0761719H11.5896V1.00967H10.2166V2.7122L10.2297 2.69912C10.5986 2.33095 11.105 2.02814 11.5885 2.09131V3.19365C11.0842 3.03244 10.5582 3.41042 10.2166 3.86682V4.90925H11.5885Z" fill="white"/>
<path d="M19.1277 2.18468C19.6515 2.52453 20.2256 2.75001 20.6032 3.15195C21.0081 3.5833 21.1151 4.23468 20.9547 4.79456C20.8117 5.29127 20.4461 5.67469 19.8873 5.84244C19.55 5.94374 19.1964 5.94374 18.8592 5.84244C18.2556 5.66053 17.7612 5.15402 17.7612 4.324V4.11377H18.6966V4.324C18.6966 4.76624 19.0327 4.99063 19.3754 4.99826C19.6755 5.00479 19.9811 4.84249 20.0652 4.51244C20.1525 4.1715 19.9702 3.94167 19.7203 3.7249C19.3023 3.36327 18.6431 3.05392 18.3691 2.83715C17.603 2.22825 17.5833 1.01372 18.2895 0.386304C18.4412 0.251235 18.6311 0.145577 18.8592 0.0769529C19.1964 -0.0243489 19.55 -0.0243489 19.8873 0.0769529C20.4908 0.25886 20.9852 0.765369 20.9852 1.59539V1.80562H20.0499V1.59539C20.0499 0.946187 19.3634 0.756655 18.9814 1.03986C18.5536 1.35684 18.69 1.89929 19.1277 2.18468Z" fill="white"/>
<path d="M28.8862 1.00967V5.84275H27.9509V1.00967H26.8071V0.0761719H30.03V1.00967H28.8862Z" fill="white"/>
<path d="M36.2026 5.87107V0.104492H37.138V5.87107H36.2026Z" fill="white"/>
<path d="M44.279 5.84275L43.3098 0.0761719H44.2724L44.9938 4.43541L45.7153 0.0761719H46.6779L45.7087 5.84275H44.279Z" fill="white"/>
<path d="M54.8929 4.47463V3.61738C54.3887 3.45616 53.8626 3.83414 53.521 4.29054V5.84275H52.5857V1.69482C52.5857 0.804891 53.3158 0.0761719 54.2075 0.0761719H55.8293V5.84275H54.894V4.47463H54.8929ZM54.8929 1.00967H54.2064C53.891 1.00967 53.6214 1.22862 53.5428 1.52054L53.5407 1.52707C53.5396 1.53034 53.5385 1.5347 53.5385 1.53797L53.5374 1.54341C53.5363 1.54668 53.5352 1.55104 53.5352 1.55431L53.5341 1.55975C53.533 1.56411 53.5319 1.56847 53.5319 1.57173V1.575C53.5308 1.57936 53.5308 1.58372 53.5297 1.58807V1.59134C53.5287 1.5957 53.5287 1.60114 53.5276 1.6055V1.60768C53.5265 1.61204 53.5265 1.61748 53.5254 1.62293V1.62511C53.5254 1.63055 53.5243 1.636 53.5243 1.64036V1.64145C53.5243 1.64689 53.5232 1.65234 53.5232 1.65779C53.5232 1.66323 53.5232 1.66868 53.5221 1.67413C53.5221 1.67957 53.5221 1.68611 53.5221 1.69155V3.13265L53.5352 3.11958C53.9041 2.75141 54.4105 2.44859 54.894 2.51177V2.32006V1.00967H54.8929Z" fill="white"/>
<path d="M62.9411 4.90925H64.313V5.84275H62.0046V0.0761719H62.94C62.9411 1.75146 62.9411 3.23395 62.9411 4.90925Z" fill="white"/>
<path d="M45.7786 33.433C45.7273 33.433 45.6793 33.4298 45.6356 33.4232C45.4446 33.3917 45.342 33.2806 45.33 33.0888V32.1826C45.3366 31.4952 45.3366 30.8123 45.33 30.1315C45.3235 29.9975 45.3497 29.8864 45.4064 29.7971C45.4632 29.7078 45.5494 29.6315 45.664 29.5683C46.1606 29.3015 46.6615 29.0335 47.1646 28.7666C47.2279 28.7285 47.2923 28.6937 47.3556 28.6621C47.4124 28.6305 47.4735 28.5989 47.5368 28.5662C47.6263 28.515 47.718 28.4649 47.814 28.4137C47.8904 28.3756 47.9286 28.3124 47.9286 28.2231V27.6697C47.9286 27.4475 47.9253 27.221 47.9188 26.9922C47.9188 26.9225 47.9046 26.8735 47.8762 26.8441C47.8479 26.8158 47.7977 26.8016 47.7278 26.8016C47.575 26.7885 47.4222 26.7885 47.2694 26.8016C47.193 26.8016 47.1385 26.8179 47.1068 26.8495C47.0752 26.8811 47.0588 26.9389 47.0588 27.0216V27.7188C47.0588 27.7819 47.049 27.8462 47.0304 27.9094C47.0108 27.9726 46.9791 28.0227 46.9344 28.0575C46.8896 28.0924 46.8329 28.1098 46.7619 28.1098H46.7237C46.3472 28.1163 45.9685 28.1163 45.5865 28.1098C45.5101 28.1033 45.449 28.076 45.4053 28.0292C45.3606 27.9813 45.3355 27.9159 45.3289 27.8331V27.4606C45.3224 27.2831 45.3191 27.1066 45.3191 26.9312C45.3191 26.7569 45.3256 26.5827 45.3376 26.4116C45.3758 26.0239 45.5112 25.7189 45.7436 25.4956C45.9761 25.2734 46.2839 25.1492 46.6659 25.123C46.9398 25.1034 47.2138 25.0947 47.4877 25.0947C47.7616 25.0947 48.0389 25.1045 48.3193 25.123C48.5354 25.1296 48.7363 25.1786 48.9218 25.2712C49.1062 25.3638 49.2612 25.4956 49.3856 25.6677C49.5101 25.8398 49.5941 26.0489 49.6388 26.2973C49.6639 26.4498 49.677 26.6055 49.677 26.7646C49.6836 27.0892 49.6869 27.4138 49.6869 27.7373C49.6803 28.1577 49.6803 28.5738 49.6869 28.9878C49.6869 29.1283 49.6596 29.247 49.6061 29.3461C49.5515 29.4453 49.4642 29.5259 49.3431 29.589C48.9862 29.7742 48.6326 29.9616 48.2822 30.1522C48.1545 30.2284 48.0247 30.3014 47.8904 30.3722C47.814 30.4169 47.7344 30.4583 47.6514 30.4964C47.4986 30.5857 47.3458 30.6718 47.193 30.7535C47.097 30.7981 47.0522 30.8776 47.0588 30.992V31.5639C47.0588 31.6401 47.0686 31.6891 47.0872 31.712C47.1057 31.7349 47.1505 31.7458 47.2214 31.7458C47.3993 31.7523 47.5783 31.7523 47.7573 31.7458C47.8271 31.7458 47.8719 31.736 47.8915 31.7175C47.9112 31.6989 47.9232 31.6543 47.9297 31.5835C47.9363 31.5203 47.9461 31.4593 47.9581 31.4027C47.9766 31.3133 48.017 31.2447 48.0771 31.1979C48.1371 31.1499 48.2124 31.126 48.3019 31.126C48.6391 31.1129 48.9775 31.1129 49.3147 31.126C49.4227 31.1325 49.5112 31.1706 49.5777 31.2404C49.6443 31.3101 49.6781 31.4027 49.6781 31.517C49.6847 32.0192 49.6847 32.5224 49.6781 33.0246C49.6781 33.2914 49.5439 33.4287 49.2765 33.4352H45.7786V33.433Z" fill="white"/>
<path d="M50.1857 28.5753C50.1857 27.9707 50.1889 27.364 50.1955 26.7529C50.1955 26.5623 50.2184 26.375 50.2621 26.1898C50.3134 25.961 50.4007 25.7682 50.5251 25.6125C50.6495 25.4567 50.8012 25.3358 50.9791 25.2497C51.157 25.1637 51.3545 25.1179 51.5717 25.1114C51.8391 25.0983 52.1098 25.0918 52.3848 25.0918C52.6588 25.0918 52.9294 25.0983 53.1968 25.1114C53.5788 25.1365 53.8888 25.2628 54.1245 25.4883C54.3602 25.7138 54.4978 26.0144 54.536 26.3902C54.5611 26.6386 54.5742 26.8858 54.5742 27.1342C54.5807 28.6668 54.5807 30.1972 54.5742 31.7232C54.5742 31.8703 54.5632 32.0141 54.5403 32.1579C54.5174 32.3006 54.4781 32.4422 54.4214 32.5827C54.3188 32.8114 54.1791 32.9933 54.0001 33.1262C53.8222 33.2602 53.6083 33.3463 53.3594 33.3844C53.1935 33.4094 53.0277 33.4225 52.8618 33.4225C52.4852 33.429 52.1098 33.429 51.7333 33.4225C51.5608 33.416 51.3938 33.3909 51.2312 33.3463C51.0686 33.3016 50.9169 33.2286 50.7772 33.1262C50.6179 33.0118 50.4956 32.8779 50.4094 32.7254C50.3232 32.5729 50.2642 32.4008 50.2326 32.2101C50.2009 32.0326 50.1878 31.8507 50.1944 31.6666C50.1878 31.0686 50.1846 30.4739 50.1846 29.8824V28.5753H50.1857ZM52.8912 27.0296C52.8912 26.9218 52.8716 26.8488 52.8345 26.8107C52.7963 26.7725 52.7264 26.7529 52.6238 26.7529H52.2888C52.1676 26.7529 52.0814 26.7606 52.0312 26.7769C51.9799 26.7932 51.9461 26.8259 51.9308 26.8771C51.9144 26.9283 51.9068 27.0111 51.9068 27.1255V31.5522C51.9133 31.6219 51.9308 31.671 51.9592 31.7004C51.9876 31.7298 52.0367 31.7429 52.1076 31.7429C52.2855 31.7494 52.4645 31.7494 52.6435 31.7429C52.7395 31.7494 52.8028 31.7363 52.8345 31.7047C52.8661 31.6731 52.8858 31.6089 52.8912 31.5141V27.0296Z" fill="white"/>
<path d="M55.5107 33.4321C55.4595 33.4321 55.4114 33.4288 55.3678 33.4223C55.1768 33.3907 55.0742 33.2796 55.0622 33.0879V32.1816C55.0687 31.4943 55.0687 30.8113 55.0622 30.1305C55.0556 29.9965 55.0818 29.8854 55.1386 29.7961C55.1953 29.7068 55.2816 29.6305 55.3962 29.5674C55.8927 29.3005 56.3937 29.0325 56.8968 28.7657C56.9601 28.7275 57.0245 28.6927 57.0878 28.6611C57.1446 28.6295 57.2057 28.5979 57.269 28.5652C57.3585 28.514 57.4502 28.4639 57.5462 28.4127C57.6226 28.3746 57.6608 28.3114 57.6608 28.2221V27.6688C57.6608 27.4466 57.6575 27.22 57.651 26.9913C57.651 26.9215 57.6368 26.8725 57.6084 26.8431C57.58 26.8148 57.5298 26.8006 57.46 26.8006C57.3072 26.7876 57.1544 26.7876 57.0016 26.8006C56.9252 26.8006 56.8706 26.817 56.839 26.8486C56.8073 26.8801 56.791 26.9379 56.791 27.0207V27.7178C56.791 27.781 56.7811 27.8452 56.7626 27.9084C56.7429 27.9716 56.7113 28.0217 56.6665 28.0566C56.6218 28.0914 56.565 28.1088 56.4941 28.1088H56.4559C56.0794 28.1154 55.7006 28.1154 55.3187 28.1088C55.2423 28.1023 55.1811 28.0751 55.1375 28.0282C55.0927 27.9803 55.0676 27.9149 55.0611 27.8322V27.4596C55.0545 27.2821 55.0513 27.1056 55.0513 26.9303C55.0513 26.756 55.0578 26.5817 55.0698 26.4107C55.108 26.0229 55.2434 25.7179 55.4758 25.4946C55.7083 25.2724 56.0161 25.1482 56.3981 25.1221C56.672 25.1025 56.9459 25.0938 57.2199 25.0938C57.4938 25.0938 57.771 25.1036 58.0515 25.1221C58.2676 25.1286 58.4684 25.1776 58.654 25.2702C58.8384 25.3628 58.9934 25.4946 59.1178 25.6667C59.2422 25.8388 59.3263 26.0479 59.371 26.2963C59.3961 26.4488 59.4092 26.6046 59.4092 26.7636C59.4158 27.0882 59.419 27.4128 59.419 27.7363C59.4125 28.1568 59.4125 28.5729 59.419 28.9868C59.419 29.1273 59.3917 29.246 59.3383 29.3452C59.2837 29.4443 59.1964 29.5249 59.0752 29.5881C58.7184 29.7732 58.3647 29.9606 58.0144 30.1512C57.8867 30.2275 57.7568 30.3004 57.6226 30.3712C57.5462 30.4159 57.4665 30.4573 57.3836 30.4954C57.2308 30.5847 57.078 30.6708 56.9241 30.7525C56.8281 30.7971 56.7833 30.8767 56.7899 30.991V31.5629C56.7899 31.6391 56.7997 31.6882 56.8182 31.711C56.8368 31.7339 56.8815 31.7448 56.9525 31.7448C57.1304 31.7513 57.3094 31.7513 57.4884 31.7448C57.5582 31.7448 57.6029 31.735 57.6226 31.7165C57.6422 31.698 57.6542 31.6533 57.6608 31.5825C57.6673 31.5193 57.6772 31.4583 57.6892 31.4017C57.7077 31.3124 57.7481 31.2437 57.8081 31.1969C57.8682 31.149 57.9435 31.125 58.033 31.125C58.3702 31.1119 58.7085 31.1119 59.0458 31.125C59.1538 31.1316 59.2422 31.1697 59.3088 31.2394C59.3754 31.3091 59.4092 31.4017 59.4092 31.5161C59.4158 32.0182 59.4158 32.5215 59.4092 33.0236C59.4092 33.2905 59.275 33.4277 59.0076 33.4343H55.5107V33.4321Z" fill="white"/>
<path d="M59.9176 28.5753C59.9176 27.9707 59.9209 27.364 59.9274 26.7529C59.9274 26.5623 59.9503 26.375 59.994 26.1898C60.0453 25.961 60.1326 25.7682 60.257 25.6125C60.3814 25.4567 60.5331 25.3358 60.711 25.2497C60.8889 25.1637 61.0865 25.1179 61.3037 25.1114C61.5711 25.0983 61.8417 25.0918 62.1168 25.0918C62.3907 25.0918 62.6614 25.0983 62.9288 25.1114C63.3107 25.1365 63.6207 25.2628 63.8564 25.4883C64.0922 25.7138 64.2297 26.0144 64.2679 26.3902C64.293 26.6386 64.3061 26.8858 64.3061 27.1342C64.3126 28.6668 64.3126 30.1972 64.3061 31.7232C64.3061 31.8703 64.2952 32.0141 64.2723 32.1579C64.2493 32.3006 64.2101 32.4422 64.1533 32.5827C64.0507 32.8114 63.911 32.9933 63.732 33.1262C63.5541 33.2602 63.3402 33.3463 63.0914 33.3844C62.9255 33.4094 62.7596 33.4225 62.5937 33.4225C62.2172 33.429 61.8417 33.429 61.4652 33.4225C61.2928 33.416 61.1258 33.3909 60.9632 33.3463C60.8005 33.3016 60.6488 33.2286 60.5091 33.1262C60.3498 33.0118 60.2276 32.8779 60.1413 32.7254C60.0551 32.5729 59.9962 32.4008 59.9645 32.2101C59.9329 32.0326 59.9198 31.8507 59.9263 31.6666C59.9198 31.0686 59.9165 30.4739 59.9165 29.8824V28.5753H59.9176ZM62.6232 27.0296C62.6232 26.9218 62.6035 26.8488 62.5664 26.8107C62.5282 26.7725 62.4584 26.7529 62.3558 26.7529H62.0207C61.8996 26.7529 61.8133 26.7606 61.7631 26.7769C61.7118 26.7932 61.678 26.8259 61.6627 26.8771C61.6464 26.9283 61.6387 27.0111 61.6387 27.1255V31.5522C61.6453 31.6219 61.6627 31.671 61.6911 31.7004C61.7195 31.7287 61.7686 31.7429 61.8395 31.7429C62.0174 31.7494 62.1964 31.7494 62.3754 31.7429C62.4715 31.7494 62.5348 31.7363 62.5664 31.7047C62.5981 31.6731 62.6177 31.6089 62.6232 31.5141V27.0296Z" fill="white"/>
<path d="M68.0735 11.4057C69.1374 11.4057 69.9998 10.5449 69.9998 9.4831C69.9998 8.4213 69.1374 7.56055 68.0735 7.56055C67.0097 7.56055 66.1472 8.4213 66.1472 9.4831C66.1472 10.5449 67.0097 11.4057 68.0735 11.4057Z" fill="white"/>
<path d="M68.0735 17.1664C69.1374 17.1664 69.9998 16.3056 69.9998 15.2438C69.9998 14.182 69.1374 13.3213 68.0735 13.3213C67.0097 13.3213 66.1472 14.182 66.1472 15.2438C66.1472 16.3056 67.0097 17.1664 68.0735 17.1664Z" fill="white"/>
<path d="M68.0735 22.9291C69.1374 22.9291 69.9998 22.0683 69.9998 21.0065C69.9998 19.9447 69.1374 19.084 68.0735 19.084C67.0097 19.084 66.1472 19.9447 66.1472 21.0065C66.1472 22.0683 67.0097 22.9291 68.0735 22.9291Z" fill="white"/>
<path d="M4.32411 20.6592C5.2387 20.6592 6.15329 20.0601 6.15329 18.8619H8.64823C8.64823 21.6973 6.48617 23.1155 4.32411 23.1155C2.16206 23.1155 0 21.6984 0 18.8619V11.5856C0 8.75026 2.16206 7.33203 4.32411 7.33203C6.48617 7.33203 8.64823 8.75026 8.64823 11.5856H6.15329C6.15329 10.3874 5.2387 9.78833 4.32411 9.78833C3.40952 9.78833 2.49493 10.3874 2.49493 11.5856V18.8619C2.49493 20.0601 3.40952 20.6592 4.32411 20.6592Z" fill="white"/>
<path d="M14.6662 7.33301C16.8282 7.33301 18.9903 8.75123 18.9903 11.5866V18.8629C18.9903 21.6982 16.8282 23.1165 14.6662 23.1165C12.5041 23.1165 10.342 21.6982 10.342 18.8629V11.5866C10.342 8.75014 12.5041 7.33301 14.6662 7.33301ZM16.4964 18.8618V11.5855C16.4964 10.3873 15.5818 9.78821 14.6672 9.78821C13.7527 9.78821 12.8381 10.3873 12.8381 11.5855V18.8618C12.8381 20.06 13.7527 20.6591 14.6672 20.6591C15.5818 20.6591 16.4964 20.06 16.4964 18.8618Z" fill="white"/>
<path d="M23.1793 22.9133H20.6843V7.53613H23.1793L26.3072 12.721V7.53613H28.8021V22.9133H26.3072V17.3733L23.1793 12.2058V22.9133Z" fill="white"/>
<path d="M33.0638 22.9133L30.4805 7.53613H33.0463L34.9705 19.1608L36.8946 7.53613H39.4605L36.8782 22.9133H33.0638Z" fill="white"/>
<path d="M41.1445 22.9885V7.61133H43.6395V22.9885H41.1445Z" fill="white"/>
<path d="M53.9686 18.5965C53.9686 20.97 52.0226 22.9122 49.6444 22.9122H45.3203V7.53613H49.6444C52.0226 7.53613 53.9686 9.47829 53.9686 11.8518V18.5965ZM47.8142 20.4232H49.6433C50.6452 20.4232 51.4725 19.5965 51.4725 18.5976V11.8518C51.4725 10.8529 50.6442 10.0262 49.6433 10.0262H47.8142V20.4232Z" fill="white"/>
<path d="M61.8158 19.2653V16.979C60.4701 16.5498 59.0698 17.5574 58.1563 18.7752V22.9133H55.6614V11.8518C55.6614 9.47829 57.6073 7.53613 59.9855 7.53613H64.3096V22.9122H61.8147V19.2653H61.8158ZM61.8158 10.0262H59.9866C59.1451 10.0262 58.4259 10.61 58.2174 11.3889L58.2131 11.4063C58.2109 11.4161 58.2087 11.4259 58.2054 11.4357L58.2022 11.4499C58.2 11.4597 58.1978 11.4695 58.1956 11.4793L58.1923 11.4934C58.1901 11.5043 58.188 11.5152 58.1858 11.5272L58.1847 11.537C58.1825 11.549 58.1803 11.561 58.1781 11.573L58.177 11.5817C58.1749 11.5936 58.1727 11.6067 58.1716 11.6198L58.1705 11.6263C58.1683 11.6394 58.1672 11.6525 58.1661 11.6666L58.165 11.6721C58.164 11.6862 58.1629 11.6993 58.1618 11.7135V11.7167C58.1607 11.7309 58.1596 11.7451 58.1585 11.7603V11.7614V11.7625C58.1574 11.7777 58.1574 11.7919 58.1563 11.8071V11.8082C58.1563 11.8235 58.1552 11.8387 58.1552 11.854V15.698L58.1912 15.6621C59.1757 14.6795 60.5268 13.8746 61.8147 14.0412V13.5304V10.0262H61.8158Z" fill="white"/>
</g>
<defs>
<clipPath id="clip0">
<rect width="70" height="33.4328" fill="white"/>
</clipPath>
</defs>
</svg>
