<svg width="50" height="50" viewBox="0 0 50 50" fill="none" xmlns="http://www.w3.org/2000/svg">
<path d="M8.15466 44.7252C8.09063 45.8518 8.02659 46.9783 7.95341 48.2751C5.33267 48.2751 2.79882 48.2751 0.0820312 48.2751C0.0820312 40.6382 0.0820312 32.9839 0.0820312 25.0108C3.89195 25.0108 7.66984 24.9715 11.4432 25.0283C13.6157 25.0588 16.488 24.5043 17.7458 25.5872C18.8389 26.5303 18.1437 29.4034 18.1757 31.4251C18.2123 33.8135 18.1848 36.2063 18.1848 38.8087C17.0506 38.931 16.0398 39.0358 15.029 39.1449C14.8735 39.3283 14.7134 39.5073 14.5579 39.6907C15.5412 40.4549 16.52 41.2277 17.5079 41.9875C18.4547 42.7167 19.4152 43.4371 20.4397 44.2187C18.0979 46.3277 16.1861 48.0524 14.0227 49.9999C12.3716 48.2096 10.6153 46.3102 8.85901 44.4108C8.62118 44.5156 8.38792 44.6204 8.15466 44.7252Z" fill="white"/>
<path d="M21.0898 25.1416C27.1912 25.1416 33.1782 25.1416 39.3847 25.1416C39.3847 32.8047 39.3847 40.459 39.3847 48.2837C36.8829 48.2837 34.3399 48.2837 31.5317 48.2837C31.5317 45.6245 31.5317 42.9785 31.5317 40.1796C30.6489 40.1796 30.0315 40.1796 29.1533 40.1796C29.1533 42.8999 29.1533 45.559 29.1533 48.3317C26.3496 48.3317 23.7975 48.3317 21.0944 48.3317C21.0898 40.5857 21.0898 32.9313 21.0898 25.1416Z" fill="white"/>
<path d="M21.0215 23.1772C21.0215 15.2827 21.0215 7.74191 21.0215 0.0351562C23.7017 0.0351562 26.3041 0.0351562 29.1536 0.0351562C29.1536 2.55022 29.1536 4.98669 29.1536 7.61528C30.8001 7.61528 32.218 7.61528 33.956 7.61528C33.956 10.2832 33.956 12.772 33.956 15.453C35.9181 15.453 37.5555 15.453 39.3804 15.453C39.3804 18.134 39.3804 20.6098 39.3804 23.1772C33.2105 23.1772 27.1777 23.1772 21.0215 23.1772Z" fill="white"/>
<path d="M0 23.1467C0 15.4094 0 7.80304 0 0.0351562C5.95956 0.0351562 11.8551 0.0351562 17.9656 0.0351562C17.9656 2.47162 17.9656 4.95176 17.9656 7.64585C16.3922 7.64585 14.8326 7.64585 12.9574 7.64585C12.9574 10.3356 12.9574 12.8288 12.9574 15.5054C11.2376 15.5054 9.82436 15.5054 8.13666 15.5054C8.13666 18.1165 8.13666 20.5399 8.13666 23.1467C5.33754 23.1467 2.80827 23.1467 0 23.1467Z" fill="white"/>
<path d="M50.0001 23.2163C47.297 23.2163 44.8135 23.2163 42.1836 23.2163C42.1836 15.4441 42.1836 7.78971 42.1836 0C44.8181 0 47.361 0 50.0001 0C50.0001 7.78535 50.0001 15.4921 50.0001 23.2163Z" fill="white"/>
</svg>
