<svg width="44" height="50" viewBox="0 0 44 50" fill="none" xmlns="http://www.w3.org/2000/svg">
<path d="M0 21.9206L21.748 0L28.2692 6.52007L26.169 8.66873L22.4515 4.94298L4.87255 22.3334L21.8425 39.4803L39.306 21.9523L35.8511 18.3112L37.9408 16.2578L44 22.418L22.2415 44.3386L0 21.9206Z" fill="white"/>
<path d="M26.8621 14.3422L30.8 10.373L34.4964 14.0988L30.5585 18.0574L26.8621 14.3422Z" fill="white"/>
<path d="M33.6667 8.83778L35.1054 7.3877L36.4601 8.7531L35.0214 10.2032L33.6667 8.83778Z" fill="white"/>
<path d="M34.864 13.6329L37.1323 11.3467L39.369 13.6012L37.1008 15.8874L34.864 13.6329Z" fill="white"/>
<path d="M29.9808 18.9993L26.484 22.6086L23.1446 19.1898L26.6835 15.6017L22.0104 10.9551L11.6248 21.4232L22.0629 32.1877L32.5956 21.6349L29.9808 18.9993ZM19.2591 22.5769L17.2324 20.5341L19.0806 18.6712L21.1073 20.714L19.2591 22.5769Z" fill="white"/>
<path d="M3.38623 47.9117V45.8281H3.97748H4.56874V46.1261V46.4241H4.86436H5.15999V46.722V47.02H5.45339H5.74902V46.722V46.4241H6.04464H6.34027V46.1261V45.8281H6.93152H7.52055V47.9117V49.9953H6.9293H6.33805V49.1013V48.2097H6.04242H5.7468V48.5076V48.8056H5.45339H5.15777V48.5076V48.2097H4.86214H4.56651V49.1036V49.9975H3.97526H3.38623V47.9117Z" fill="white"/>
<path d="M9.29408 46.1261V45.8281H10.181H11.0678V46.1261V46.4241H11.3635H11.6591V46.722V47.02H11.9547H12.2503V48.5076V49.9953H11.6591H11.0678V49.3993V48.8034H10.181H9.29408V49.3993V49.9953H8.70283H8.11157V48.5076V47.02H8.4072H8.70283V46.722V46.4241H8.99845H9.29408V46.1261ZM10.4744 46.722V46.4241H10.1787H9.88311V46.722V47.02H9.58748H9.29186V47.616V48.2119H10.1787H11.0656V47.616V47.02H10.77H10.4744V46.722Z" fill="white"/>
<path d="M12.8374 47.9117V45.8281H14.3133H15.7892V46.1261V46.4241H16.0848H16.3805V46.722V47.02H16.6761H16.9717V47.9139V48.8078H16.6761H16.3805V49.1058V49.4038H16.0848H15.7892V49.7018V49.9997H14.3133H12.8374V47.9117ZM15.2002 46.722V46.4241H14.6089H14.0177V47.9117V49.3993H14.6089H15.2002V49.1013V48.8034H15.4958H15.7914V47.9094V47.0155H15.4958H15.2002V46.722Z" fill="white"/>
<path d="M17.563 47.9117V45.8281H19.3345H21.1061V46.1261V46.4241H21.4017H21.6973V47.318V48.2119H21.4017H21.1061V48.5099V48.8078H19.9258H18.7455V49.4038V49.9997H18.1542H17.563V47.9117ZM20.517 47.318V46.4241H19.6301H18.7455V47.318V48.2119H19.6324H20.5192V47.318H20.517Z" fill="white"/>
<path d="M22.8796 46.1261V45.8281H24.6512H26.4227V46.1261V46.4241H25.8315H25.2402V47.9117V49.3993H25.8315H26.4227V49.6973V49.9953H24.6512H22.8796V49.6973V49.3993H23.4709H24.0621V47.9117V46.4241H23.4709H22.8796V46.1261Z" fill="white"/>
<path d="M27.0139 46.4241V45.8281H27.6052H28.1964V46.1261V46.4241H28.492H28.7877V46.722V47.02H29.0833H29.3789V46.722V46.4241H29.6746H29.9702V46.1261V45.8281H30.5614H31.1527V46.4241V47.02H30.8571H30.5614V47.318V47.616H30.2658H29.9702V47.9139V48.2119H30.2658H30.5614V48.5099V48.8078H30.8571H31.1527V49.4038V49.9997H30.5614H29.9702V49.7018V49.4038H29.6746H29.3789V49.1058V48.8078H29.0811H28.7855V49.1058V49.4038H28.4898H28.1942V49.7018V49.9997H27.6029H27.0139V49.4038V48.8078H27.3095H27.6052V48.5099V48.2097H27.9008H28.1964V47.9117V47.6137H27.9008H27.6052V47.3157V47.0178H27.3095H27.0139V46.4241Z" fill="white"/>
<path d="M31.7395 47.9117V45.8281H33.8067H35.8738V46.1261V46.4241H34.3979H32.922V47.02V47.616H34.1023H35.2826V47.9139V48.2119H34.1023H32.922V48.8078V49.4038H34.3979H35.8738V49.7018V49.9997H33.8067H31.7395V47.9117Z" fill="white"/>
<path d="M37.0564 47.9117V45.8281H37.6476H38.2389V47.6137V49.3993H39.4192H40.5995V49.6973V49.9953H38.8279H37.0564V47.9117Z" fill="white"/>
</svg>
