<?xml version="1.0" encoding="UTF-8" standalone="no"?>
<svg
   xmlns:dc="http://purl.org/dc/elements/1.1/"
   xmlns:cc="http://creativecommons.org/ns#"
   xmlns:rdf="http://www.w3.org/1999/02/22-rdf-syntax-ns#"
   xmlns:svg="http://www.w3.org/2000/svg"
   xmlns="http://www.w3.org/2000/svg"
   xmlns:sodipodi="http://sodipodi.sourceforge.net/DTD/sodipodi-0.dtd"
   xmlns:inkscape="http://www.inkscape.org/namespaces/inkscape"
   inkscape:version="1.0 (4035a4fb49, 2020-05-01)"
   height="150"
   width="600"
   sodipodi:docname="madpixel.svg"
   xml:space="preserve"
   viewBox="0 0 600.00001 149.99999"
   y="0px"
   x="0px"
   id="svg58"
   version="1.1"><metadata
   id="metadata29"><rdf:RDF><cc:Work
       rdf:about=""><dc:format>image/svg+xml</dc:format><dc:type
         rdf:resource="http://purl.org/dc/dcmitype/StillImage" /><dc:title></dc:title></cc:Work></rdf:RDF></metadata><defs
   id="defs27" /><sodipodi:namedview
   inkscape:current-layer="svg58"
   inkscape:window-maximized="1"
   inkscape:window-y="-9"
   inkscape:window-x="-9"
   inkscape:cy="279.67582"
   inkscape:cx="91.218167"
   inkscape:zoom="0.98586528"
   showgrid="false"
   id="namedview25"
   inkscape:window-height="1001"
   inkscape:window-width="1920"
   inkscape:pageshadow="2"
   inkscape:pageopacity="0"
   guidetolerance="10"
   gridtolerance="10"
   objecttolerance="10"
   borderopacity="1"
   bordercolor="#666666"
   pagecolor="#ffffff" />
<style
   id="style2"
   type="text/css">
	.st0{fill:#FFFFFF;}
	.st1{fill:#494444;}
</style>
<g
   inkscape:label="Layer 1"
   inkscape:groupmode="layer"
   id="layer1">
	
	
	
	
	
</g>
<g
   transform="translate(29.415784,-343.86037)"
   id="g52"><path
     id="rect77"
     inkscape:connector-curvature="0"
     sodipodi:nodetypes="ccccccccccccc"
     class="st0"
     d="m 26.1,420.2 63.3,-63.3 19,18.8 -6.1,6.2 -10.8,-10.8 -51.2,50.2 49.4,49.7 50.8,-50.6 -10.1,-10.5 6.1,-5.9 17.6,17.8 -63.2,63.2 z" /><path
     id="rect83"
     inkscape:connector-curvature="0"
     class="st0"
     d="m 104.3,398.3 11.5,-11.5 10.8,10.8 -11.5,11.4 z" /><path
     id="path86"
     inkscape:connector-curvature="0"
     class="st0"
     d="m 124.2,382.4 4.2,-4.2 3.9,3.9 -4.2,4.2 z" /><path
     id="path88"
     inkscape:connector-curvature="0"
     class="st0"
     d="m 127.6,396.3 6.6,-6.6 6.5,6.5 -6.6,6.6 z" /><path
     class="st0"
     d="m 113.4,411.8 -10.2,10.4 -9.7,-9.9 10.3,-10.4 -13.6,-13.4 -30.2,30.3 30.4,31.1 30.7,-30.5 z m -31.2,10.3 -5.9,-5.9 5.4,-5.4 5.9,5.9 z"
     id="path8" /><g
     id="text4775"
     transform="matrix(0.21166667,0,0,0.21166667,15.107827,80.520369)">
	<g
   id="g4594"
   transform="translate(-11.25)">
		<g
   id="text4618">
			<path
   id="path4639"
   class="st0"
   d="m 775,1613.8 v -93 h 26.6 26.6 v 13.3 13.3 h 13.3 13.3 v 13.3 13.3 h 13.2 13.3 v -13.3 -13.3 h 13.3 13.3 v -13.3 -13.3 h 26.6 26.5 v 93 93 h -26.6 -26.6 v -39.9 -39.8 h -13.3 -13.3 v 13.3 13.3 H 868 854.7 v -13.3 -13.3 h -13.3 -13.3 v 39.9 39.9 H 801.5 775 Z" />
			<path
   id="path4641"
   class="st0"
   d="m 1040.8,1534.1 v -13.3 h 39.9 39.9 v 13.3 13.3 h 13.3 13.3 v 13.3 13.3 h 13.3 13.3 v 66.4 66.4 h -26.6 -26.6 v -26.6 -26.6 h -39.9 -39.9 v 26.6 26.6 h -26.6 -26.6 v -66.4 -66.4 h 13.3 13.3 v -13.3 -13.3 h 13.3 13.3 z m 53.1,26.6 v -13.3 h -13.3 -13.3 v 13.3 13.3 h -13.3 -13.3 v 26.6 26.6 h 39.9 39.9 v -26.6 -26.6 h -13.3 -13.3 z" />
			<path
   id="path4643"
   class="st0"
   d="m 1200.2,1613.8 v -93 h 66.4 66.4 v 13.3 13.3 h 13.3 13.3 v 13.3 13.3 h 13.3 13.3 v 39.9 39.9 h -13.3 -13.3 v 13.3 13.3 h -13.3 -13.3 v 13.3 13.3 h -66.4 -66.4 z m 106.3,-53.1 v -13.3 h -26.6 -26.6 v 66.4 66.4 h 26.6 26.6 v -13.3 -13.3 h 13.3 13.3 v -39.9 -39.9 h -13.3 -13.3 z" />
			<path
   id="path4645"
   class="st0"
   d="m 1412.8,1613.8 v -93 h 79.7 79.7 v 13.3 13.3 h 13.3 13.3 v 39.9 39.9 h -13.3 -13.3 v 13.3 13.3 h -53.1 -53.1 v 26.6 26.6 h -26.6 -26.6 z m 132.9,-26.5 v -39.9 h -39.9 -39.8 v 39.9 39.9 h 39.9 39.9 v -39.9 z" />
			<path
   id="path4647"
   class="st0"
   d="m 1652,1534.1 v -13.3 h 79.7 79.7 v 13.3 13.3 h -26.6 -26.6 v 66.4 66.4 h 26.6 26.6 v 13.3 13.3 h -79.7 -79.7 v -13.3 -13.3 h 26.6 26.6 v -66.4 -66.4 h -26.6 -26.6 z" />
			<path
   id="path4649"
   class="st0"
   d="m 1838,1547.4 v -26.6 h 26.6 26.6 v 13.3 13.3 h 13.3 13.3 v 13.3 13.3 h 13.3 13.3 v -13.3 -13.3 h 13.3 13.3 v -13.3 -13.3 h 26.6 26.6 v 26.6 26.6 h -13.3 -13.3 v 13.3 13.3 h -13.3 -13.3 v 13.3 13.3 h 13.3 13.3 v 13.3 13.3 h 13.3 13.3 v 26.6 26.6 h -26.6 -26.6 v -13.3 -13.3 h -13.3 -13.3 v -13.3 -13.3 h -13.4 -13.3 v 13.3 13.3 h -13.3 -13.3 v 13.3 13.3 h -26.6 -26.5 v -26.6 -26.6 h 13.3 13.3 v -13.3 -13.4 h 13.3 13.3 v -13.3 -13.3 h -13.3 -13.3 v -13.3 -13.3 h -13.3 -13.3 z" />
			<path
   id="path4651"
   class="st0"
   d="m 2050.6,1613.8 v -93 h 93 93 v 13.3 13.3 h -66.4 -66.4 v 26.6 26.6 h 53.1 53.1 v 13.3 13.3 h -53.1 -53.1 v 26.6 26.6 h 66.4 66.4 v 13.3 13.3 h -93 -93 z" />
			<path
   id="path4653"
   class="st0"
   d="m 2289.8,1613.8 v -93 h 26.6 26.6 v 79.7 79.7 h 53.1 53.1 v 13.3 13.3 h -79.7 -79.7 z" />
		</g>
	</g>
</g></g>
<rect
   id="rect22"
   height="2"
   width="9"
   class="st1"
   y="257"
   x="845" />
</svg>
