<?xml version="1.0" encoding="utf-8"?>
<!-- Generator: Adobe Illustrator 24.0.1, SVG Export Plug-In . SVG Version: 6.00 Build 0)  -->
<svg version="1.1"
	 id="svg58" xmlns:cc="http://creativecommons.org/ns#" xmlns:dc="http://purl.org/dc/elements/1.1/" xmlns:inkscape="http://www.inkscape.org/namespaces/inkscape" xmlns:rdf="http://www.w3.org/1999/02/22-rdf-syntax-ns#" xmlns:sodipodi="http://sodipodi.sourceforge.net/DTD/sodipodi-0.dtd" xmlns:svg="http://www.w3.org/2000/svg"
	 xmlns="http://www.w3.org/2000/svg" xmlns:xlink="http://www.w3.org/1999/xlink" x="0px" y="0px" viewBox="0 0 595.3 841.9"
	 style="enable-background:new 0 0 595.3 841.9;" xml:space="preserve">
<style type="text/css">
	.st0{fill:#FFFFFF;}
	.st1{fill:#494444;}
</style>
<g id="layer1" inkscape:groupmode="layer" inkscape:label="Layer 1">
	<path id="rect77" inkscape:connector-curvature="0" sodipodi:nodetypes="ccccccccccccc" class="st0" d="M26.1,420.2l63.3-63.3
		l19,18.8l-6.1,6.2l-10.8-10.8l-51.2,50.2L89.7,471l50.8-50.6l-10.1-10.5l6.1-5.9l17.6,17.8L90.9,485L26.1,420.2z"/>
	<path id="rect83" inkscape:connector-curvature="0" class="st0" d="M104.3,398.3l11.5-11.5l10.8,10.8l-11.5,11.4L104.3,398.3z"/>
	<path id="path86" inkscape:connector-curvature="0" class="st0" d="M124.2,382.4l4.2-4.2l3.9,3.9l-4.2,4.2L124.2,382.4z"/>
	<path id="path88" inkscape:connector-curvature="0" class="st0" d="M127.6,396.3l6.6-6.6l6.5,6.5l-6.6,6.6L127.6,396.3z"/>
	<path class="st0" d="M113.4,411.8l-10.2,10.4l-9.7-9.9l10.3-10.4l-13.6-13.4L60,418.8l30.4,31.1l30.7-30.5L113.4,411.8z
		 M82.2,422.1l-5.9-5.9l5.4-5.4l5.9,5.9L82.2,422.1z"/>
</g>
<g id="text4775" transform="matrix(0.21166667,0,0,0.21166667,15.107827,80.520369)">
	<g id="g4594" transform="translate(-11.25)">
		<g id="text4618">
			<path id="path4639" class="st0" d="M775,1613.8v-93h26.6h26.6v13.3v13.3h13.3h13.3v13.3v13.3H868h13.3v-13.3v-13.3h13.3h13.3
				v-13.3v-13.3h26.6H961v93v93h-26.6h-26.6v-39.9v-39.8h-13.3h-13.3v13.3v13.3H868h-13.3v-13.3v-13.3h-13.3h-13.3v39.9v39.9h-26.6
				H775V1613.8z"/>
			<path id="path4641" class="st0" d="M1040.8,1534.1v-13.3h39.9h39.9v13.3v13.3h13.3h13.3v13.3v13.3h13.3h13.3v66.4v66.4h-26.6
				h-26.6v-26.6v-26.6h-39.9h-39.9v26.6v26.6h-26.6h-26.6v-66.4V1574h13.3h13.3v-13.3v-13.3h13.3h13.3V1534.1z M1093.9,1560.7v-13.3
				h-13.3h-13.3v13.3v13.3H1054h-13.3v26.6v26.6h39.9h39.9v-26.6V1574h-13.3h-13.3L1093.9,1560.7L1093.9,1560.7z"/>
			<path id="path4643" class="st0" d="M1200.2,1613.8v-93h66.4h66.4v13.3v13.3h13.3h13.3v13.3v13.3h13.3h13.3v39.9v39.9h-13.3h-13.3
				v13.3v13.3h-13.3H1333v13.3v13.3h-66.4h-66.4V1613.8L1200.2,1613.8z M1306.5,1560.7v-13.3h-26.6h-26.6v66.4v66.4h26.6h26.6v-13.3
				v-13.3h13.3h13.3v-39.9v-39.9h-13.3h-13.3V1560.7z"/>
			<path id="path4645" class="st0" d="M1412.8,1613.8v-93h79.7h79.7v13.3v13.3h13.3h13.3v39.9v39.9h-13.3h-13.3v13.3v13.3h-53.1
				H1466v26.6v26.6h-26.6h-26.6V1613.8z M1545.7,1587.3v-39.9h-39.9H1466v39.9v39.9h39.9h39.9v-39.9H1545.7z"/>
			<path id="path4647" class="st0" d="M1652,1534.1v-13.3h79.7h79.7v13.3v13.3h-26.6h-26.6v66.4v66.4h26.6h26.6v13.3v13.3h-79.7
				H1652v-13.3v-13.3h26.6h26.6v-66.4v-66.4h-26.6H1652V1534.1z"/>
			<path id="path4649" class="st0" d="M1838,1547.4v-26.6h26.6h26.6v13.3v13.3h13.3h13.3v13.3v13.3h13.3h13.3v-13.3v-13.3h13.3h13.3
				v-13.3v-13.3h26.6h26.6v26.6v26.6h-13.3h-13.3v13.3v13.3h-13.3H1971v13.3v13.3h13.3h13.3v13.3v13.3h13.3h13.3v26.6v26.6h-26.6
				H1971v-13.3v-13.3h-13.3h-13.3v-13.3v-13.3H1931h-13.3v13.3v13.3h-13.3h-13.3v13.3v13.3h-26.6H1838v-26.6v-26.6h13.3h13.3v-13.3
				v-13.4h13.3h13.3v-13.3v-13.3h-13.3h-13.3v-13.3v-13.3h-13.3H1838V1547.4z"/>
			<path id="path4651" class="st0" d="M2050.6,1613.8v-93h93h93v13.3v13.3h-66.4h-66.4v26.6v26.6h53.1h53.1v13.3v13.3h-53.1h-53.1
				v26.6v26.6h66.4h66.4v13.3v13.3h-93h-93V1613.8z"/>
			<path id="path4653" class="st0" d="M2289.8,1613.8v-93h26.6h26.6v79.7v79.7h53.1h53.1v13.3v13.3h-79.7h-79.7L2289.8,1613.8
				L2289.8,1613.8z"/>
		</g>
	</g>
</g>
<rect x="845" y="257" class="st1" width="9" height="2"/>
</svg>
