<svg width="70" height="47" viewBox="0 0 70 47" fill="none" xmlns="http://www.w3.org/2000/svg">
<path fill-rule="evenodd" clip-rule="evenodd" d="M0 45.8717H69.9726H70V0H0V45.8717ZM68.1096 44.0016H1.83561V1.87007H68.1096V44.0016ZM4.60417 41.224V4.64763H14.7138L16.7686 6.6552V41.224H12.7138V8.71778H8.65897V41.224H4.60417ZM20.8215 4.64763H24.8763V41.224H20.8215V4.64763ZM41.0984 6.6552L39.0436 4.64763H28.934V41.224H32.9888V8.71778H37.0436V34.1562H41.0984V6.6552ZM41.536 37.1538H45.0977V4.64763H49.1525V40.2339L48.084 41.224H41.0977H37.0429H36.9881V37.1538H37.0429H41.0977H41.536ZM54.1913 4.64763H64.3009L65.342 5.66516V41.224H61.2872V29.0135H57.2324V41.224H53.1776V5.66516L54.1913 4.64763ZM57.2604 24.9434H57.2598V8.71778H61.3146V8.71805H61.3152V24.9437H57.2604V24.9434Z" fill="white"/>
</svg>
