<svg width="80" height="12" viewBox="0 0 80 12" fill="none" xmlns="http://www.w3.org/2000/svg">
<path d="M0 1.14551H4.39992C5.06387 1.14551 5.63987 1.21488 6.12669 1.35361C6.61351 1.49235 7.01733 1.69178 7.33815 1.95439C7.65898 2.217 7.89805 2.53535 8.05537 2.91192C8.21269 3.28849 8.29073 3.71461 8.29073 4.19027C8.29073 4.5111 8.25233 4.81706 8.17429 5.10568C8.09749 5.39554 7.97733 5.66187 7.81754 5.90589C7.65774 6.14992 7.45459 6.3667 7.21181 6.55622C6.96778 6.74574 6.68287 6.9043 6.35461 7.02941L8.23622 9.7967H6.08705L4.46062 7.33785H4.41107L1.75402 7.33289V9.79546H0V1.14551ZM4.44451 5.81671C4.77649 5.81671 5.06759 5.77831 5.31657 5.70027C5.56555 5.62223 5.77366 5.51446 5.94212 5.37325C6.10935 5.23327 6.2357 5.06233 6.31869 4.86166C6.40168 4.66098 6.4438 4.43678 6.4438 4.18903C6.4438 3.70593 6.27781 3.33184 5.94584 3.068C5.61386 2.80415 5.11342 2.67284 4.44575 2.67284H1.75402V5.81671H4.44451Z" fill="white"/>
<path d="M9.23267 1.14551H16.5981V2.68399H10.9867V4.41076H15.9564V5.85511H10.9867V8.26193H16.7145V9.79546H9.23267V1.14551Z" fill="white"/>
<path d="M22.3152 0H23.9033L18.7626 11.7542H17.1746L22.3152 0Z" fill="white"/>
<path d="M25.2829 7.2213C25.5963 7.39844 25.9146 7.55824 26.2379 7.69945C26.5612 7.8419 26.8957 7.96206 27.2425 8.05868C27.5894 8.15653 27.9536 8.23086 28.3351 8.28288C28.7166 8.33491 29.1241 8.36092 29.5552 8.36092C30.0755 8.36092 30.5177 8.32624 30.8831 8.25811C31.2485 8.18998 31.5458 8.09584 31.7762 7.97568C32.0066 7.85553 32.1751 7.71307 32.2804 7.54709C32.3857 7.3811 32.4377 7.20025 32.4377 7.00453C32.4377 6.69113 32.3064 6.44339 32.045 6.26006C31.7824 6.07797 31.3786 5.9863 30.8336 5.9863C30.5933 5.9863 30.3406 6.00241 30.0755 6.03338C29.8104 6.06434 29.5416 6.09903 29.2703 6.13619C28.999 6.17335 28.7315 6.2068 28.4676 6.239C28.2038 6.26997 27.956 6.28607 27.7232 6.28607C27.3354 6.28607 26.9638 6.23653 26.6083 6.13619C26.2516 6.03709 25.9369 5.88721 25.6619 5.68777C25.3869 5.48834 25.1689 5.23936 25.0067 4.94083C24.8444 4.6423 24.7639 4.29298 24.7639 3.89535C24.7639 3.65876 24.7961 3.42464 24.8605 3.193C24.9249 2.96012 25.029 2.73839 25.1702 2.52657C25.3126 2.31475 25.4959 2.11656 25.7214 1.93446C25.9468 1.75237 26.2181 1.59382 26.5377 1.46127C26.8573 1.32873 27.2252 1.22468 27.6451 1.14912C28.0638 1.07356 28.5407 1.03516 29.0758 1.03516C29.4636 1.03516 29.8525 1.05621 30.2439 1.09833C30.6354 1.14045 31.0157 1.20114 31.3873 1.27794C31.7577 1.35598 32.1156 1.44889 32.4575 1.55789C32.8007 1.6669 33.1202 1.78706 33.4151 1.92084L32.6458 3.33793C32.4018 3.2314 32.1404 3.1323 31.8605 3.04188C31.5805 2.95145 31.2869 2.87341 30.981 2.80652C30.675 2.73963 30.3579 2.6876 30.0321 2.6492C29.7051 2.6108 29.3731 2.59098 29.0337 2.59098C28.5506 2.59098 28.153 2.62567 27.8408 2.69627C27.5287 2.76688 27.2809 2.85607 27.0964 2.96508C26.9118 3.07408 26.7842 3.19548 26.7111 3.3305C26.6393 3.46552 26.6034 3.5993 26.6034 3.73184C26.6034 3.99073 26.7198 4.20131 26.9514 4.36606C27.1843 4.53081 27.5386 4.61257 28.0143 4.61257C28.2063 4.61257 28.4267 4.59894 28.6757 4.57045C28.9247 4.54196 29.1861 4.51223 29.4611 4.47879C29.7361 4.44534 30.016 4.41561 30.3022 4.38712C30.5883 4.35987 30.8658 4.34501 31.1346 4.34501C31.6437 4.34501 32.0946 4.40199 32.4873 4.51595C32.8799 4.62991 33.2094 4.79342 33.4745 5.00524C33.7396 5.21706 33.9415 5.47348 34.0778 5.77448C34.214 6.07549 34.2822 6.41242 34.2822 6.78404C34.2822 7.282 34.167 7.72546 33.9366 8.11442C33.7062 8.50338 33.3779 8.83163 32.9518 9.0992C32.5257 9.36676 32.0116 9.56991 31.4108 9.70741C30.8088 9.84614 30.1399 9.91551 29.4016 9.91551C28.9148 9.91551 28.4391 9.88454 27.9734 9.82385C27.5076 9.76315 27.0629 9.67644 26.6368 9.56372C26.2107 9.45099 25.8044 9.31597 25.4191 9.15989C25.0339 9.00258 24.6772 8.8304 24.3477 8.64211L25.2829 7.2213Z" fill="white"/>
<path d="M37.7312 7.65372L33.9507 1.14551H35.9376L38.5996 6.06569L41.2281 1.14551H43.215L39.4853 7.64257V9.79546H37.7312V7.65372Z" fill="white"/>
<path d="M43.8132 7.2213C44.1266 7.39844 44.4449 7.55824 44.7682 7.69945C45.0915 7.8419 45.426 7.96206 45.7728 8.05868C46.1196 8.15653 46.4838 8.23086 46.8654 8.28288C47.2469 8.33491 47.6544 8.36092 48.0855 8.36092C48.6058 8.36092 49.048 8.32624 49.4134 8.25811C49.7788 8.18998 50.0761 8.09584 50.3065 7.97568C50.5369 7.85553 50.7054 7.71307 50.8107 7.54709C50.916 7.3811 50.968 7.20025 50.968 7.00453C50.968 6.69113 50.8367 6.44339 50.5753 6.26006C50.3127 6.07797 49.9089 5.9863 49.3638 5.9863C49.1235 5.9863 48.8708 6.00241 48.6058 6.03338C48.3407 6.06434 48.0719 6.09903 47.8006 6.13619C47.5293 6.17335 47.2617 6.2068 46.9979 6.239C46.7341 6.26997 46.4863 6.28607 46.2534 6.28607C45.8657 6.28607 45.4941 6.23653 45.1386 6.13619C44.7818 6.03709 44.4672 5.88721 44.1922 5.68777C43.9172 5.48834 43.6992 5.23936 43.5369 4.94083C43.3747 4.6423 43.2941 4.29298 43.2941 3.89535C43.2941 3.65876 43.3263 3.42464 43.3908 3.193C43.4552 2.96012 43.5592 2.73839 43.7004 2.52657C43.8429 2.31475 44.0262 2.11656 44.2517 1.93446C44.4771 1.75237 44.7484 1.59382 45.068 1.46127C45.3876 1.32873 45.7555 1.22468 46.1754 1.14912C46.5941 1.07356 47.071 1.03516 47.6061 1.03516C47.9938 1.03516 48.3828 1.05621 48.7742 1.09833C49.1657 1.14045 49.5459 1.20114 49.9176 1.27794C50.2879 1.35598 50.6459 1.44889 50.9878 1.55789C51.3309 1.6669 51.6505 1.78706 51.9453 1.92084L51.1761 3.33793C50.9321 3.2314 50.6707 3.1323 50.3907 3.04188C50.1108 2.95145 49.8172 2.87341 49.5113 2.80652C49.2053 2.73963 48.8882 2.6876 48.5624 2.6492C48.2354 2.6108 47.9034 2.59098 47.564 2.59098C47.0809 2.59098 46.6833 2.62567 46.3711 2.69627C46.059 2.76688 45.8112 2.85607 45.6266 2.96508C45.4421 3.07408 45.3145 3.19548 45.2414 3.3305C45.1696 3.46552 45.1336 3.5993 45.1336 3.73184C45.1336 3.99073 45.2501 4.20131 45.4817 4.36606C45.7146 4.53081 46.0689 4.61257 46.5445 4.61257C46.7365 4.61257 46.957 4.59894 47.206 4.57045C47.455 4.54196 47.7164 4.51223 47.9913 4.47879C48.2663 4.44534 48.5463 4.41561 48.8324 4.38712C49.1186 4.35987 49.3961 4.34501 49.6649 4.34501C50.174 4.34501 50.6249 4.40199 51.0175 4.51595C51.4102 4.62991 51.7397 4.79342 52.0048 5.00524C52.2699 5.21706 52.4718 5.47348 52.608 5.77448C52.7443 6.07549 52.8124 6.41242 52.8124 6.78404C52.8124 7.282 52.6972 7.72546 52.4668 8.11442C52.2364 8.50338 51.9082 8.83163 51.4821 9.0992C51.0559 9.36676 50.5419 9.56991 49.9411 9.70741C49.3391 9.84614 48.6702 9.91551 47.9319 9.91551C47.4451 9.91551 46.9694 9.88454 46.5037 9.82385C46.0379 9.76315 45.5932 9.67644 45.1671 9.56372C44.741 9.45099 44.3347 9.31597 43.9494 9.15989C43.5642 9.00258 43.2074 8.8304 42.8779 8.64211L43.8132 7.2213Z" fill="white"/>
<path d="M56.2159 2.68399H53.0225V1.14551H61.1633V2.68399H57.9711V9.79546H56.2171V2.68399H56.2159Z" fill="white"/>
<path d="M61.9004 1.14551H69.2659V2.68399H63.6544V4.41076H68.6242V5.85511H63.6544V8.26193H69.3823V9.79546H61.9004V1.14551Z" fill="white"/>
<path d="M70.2043 1.14551H71.9584L75.1022 4.30052L78.2461 1.14551H80.0001V9.79546H78.2461V3.57463L75.1022 6.60205L71.9584 3.57463V9.79546H70.2043V1.14551Z" fill="white"/>
</svg>
