<svg width="70" height="21" viewBox="0 0 70 21" fill="none" xmlns="http://www.w3.org/2000/svg">
<g clip-path="url(#clip0)">
<path d="M66.8178 3.34278V0.313477H48.3054V20.2137H52.6474V5.17072H55.423V20.2137H61.4246V5.17072H63.9568V20.2137H69.9999V3.34278H66.8178Z" fill="white"/>
<path d="M12.0447 18.805C10.7061 19.9804 9.03871 20.5708 7.03989 20.5708C5.04107 20.5708 3.36848 19.9701 2.01954 18.7687C0.673178 17.57 0 16.0657 0 14.2558H4.59056C4.59056 14.9109 4.83135 15.465 5.31552 15.9155C5.79969 16.366 6.39261 16.5913 7.09685 16.5913C7.77262 16.5913 8.33706 16.4074 8.78757 16.0424C9.23808 15.6773 9.46334 15.2268 9.46334 14.6934C9.46334 13.5956 8.29045 12.7438 5.94468 12.1353C4.29281 11.7133 2.93868 11.0091 1.88231 10.02C0.825938 9.03095 0.297752 7.66129 0.297752 5.90843C0.297752 4.22031 0.937272 2.8144 2.21372 1.69071C3.48758 0.561845 5.07732 0 6.98293 0C8.92479 0 10.5404 0.57738 11.8272 1.72955C13.114 2.88172 13.7561 4.32129 13.7561 6.04566H9.18112C9.18112 5.45533 8.97399 4.9634 8.56231 4.56985C8.14805 4.17629 7.62245 3.97952 6.98552 3.97952C6.39519 3.97952 5.89549 4.14781 5.49417 4.48699C5.09026 4.82358 4.88831 5.24043 4.88831 5.73755C4.88831 6.81464 5.97316 7.64057 8.14028 8.21278C8.98434 8.44839 9.72484 8.7073 10.3566 8.99211C10.9909 9.27691 11.6046 9.65493 12.2001 10.1236C12.7956 10.5922 13.2538 11.1877 13.5723 11.9101C13.8908 12.6325 14.0513 13.461 14.0513 14.3982C14.0513 16.1589 13.3833 17.6295 12.0447 18.805Z" fill="white"/>
<path d="M37.9615 17.6166C35.9524 19.5843 33.4487 20.5682 30.4504 20.5682C27.4522 20.5682 24.9485 19.5843 22.9393 17.6166C20.9301 15.6488 19.9255 13.2047 19.9255 10.2841C19.9255 7.36354 20.9301 4.91938 22.9393 2.95163C24.9485 0.983876 27.4522 0 30.4504 0C33.4487 0 35.9524 0.983876 37.9615 2.95163C39.9707 4.91938 40.9753 7.36354 40.9753 10.2841C40.9753 13.2047 39.9707 15.6488 37.9615 17.6166ZM26.2042 14.5588C27.3409 15.698 28.7519 16.2676 30.4427 16.2676C32.1334 16.2676 33.5445 15.698 34.6811 14.5588C35.8177 13.4196 36.3848 11.9955 36.3848 10.2841C36.3848 8.57267 35.8177 7.14605 34.6811 6.00423C33.5445 4.85983 32.1334 4.29022 30.4427 4.29022C28.7519 4.29022 27.3409 4.86242 26.2042 6.00423C25.0676 7.14864 24.5006 8.57526 24.5006 10.2841C24.5006 11.9955 25.0702 13.4196 26.2042 14.5588Z" fill="white"/>
<path d="M19.5717 19.4185C19.028 19.9493 18.3548 20.2134 17.5521 20.2134C16.7495 20.2134 16.0789 19.9493 15.5456 19.4185C15.0122 18.8878 14.7429 18.2223 14.7429 17.4171C14.7429 16.6326 15.0096 15.9724 15.5456 15.4364C16.0789 14.9031 16.7495 14.6338 17.5521 14.6338C18.3548 14.6338 19.0305 14.9005 19.5717 15.4364C20.1154 15.9698 20.3873 16.63 20.3873 17.4171C20.3873 18.2223 20.1154 18.8903 19.5717 19.4185Z" fill="white"/>
<path d="M45.9259 19.4185C45.3822 19.9493 44.709 20.2134 43.9064 20.2134C43.1038 20.2134 42.4332 19.9493 41.8998 19.4185C41.3664 18.8878 41.0972 18.2223 41.0972 17.4171C41.0972 16.6326 41.3639 15.9724 41.8998 15.4364C42.4332 14.9031 43.1038 14.6338 43.9064 14.6338C44.709 14.6338 45.3848 14.9005 45.9259 15.4364C46.4696 15.9698 46.7415 16.63 46.7415 17.4171C46.7389 18.2223 46.4671 18.8903 45.9259 19.4185Z" fill="white"/>
</g>
<defs>
<clipPath id="clip0">
<rect width="70" height="20.5708" fill="white"/>
</clipPath>
</defs>
</svg>
